<mxfile host="Electron" agent="Mozilla/5.0 (Macintosh; Intel Mac OS X 10_15_7) AppleWebKit/537.36 (KHTML, like Gecko) draw.io/24.7.17 Chrome/128.0.6613.36 Electron/32.0.1 Safari/537.36" version="24.7.17">
  <diagram name="Page-1" id="Z3Ff5de7To0AwEFlAEXJ">
    <mxGraphModel dx="1570" dy="1113" grid="1" gridSize="10" guides="1" tooltips="1" connect="1" arrows="1" fold="1" page="1" pageScale="1" pageWidth="827" pageHeight="1169" math="0" shadow="0">
      <root>
        <mxCell id="0" />
        <mxCell id="1" parent="0" />
        <mxCell id="GuKiVb0SX-iynXpTRoYO-3" value="" style="shape=image;verticalLabelPosition=bottom;labelBackgroundColor=default;verticalAlign=top;aspect=fixed;imageAspect=0;image=data:image/svg+xml,PHN2ZyB4bWxuczp4bGluaz0iaHR0cDovL3d3dy53My5vcmcvMTk5OS94bGluayIgeG1sbnM9Imh0dHA6Ly93d3cudzMub3JnLzIwMDAvc3ZnIiBvdmVyZmxvdz0iaGlkZGVuIiB4bWw6c3BhY2U9InByZXNlcnZlIiBoZWlnaHQ9IjE5ODUiIHdpZHRoPSIyODA1IiB2aWV3Qm94PSIwIDAgMjgwNSAxOTg1Ij48ZGVmcz48aW1hZ2UgaWQ9ImltZzAiIHByZXNlcnZlQXNwZWN0UmF0aW89Im5vbmUiIHhsaW5rOmhyZWY9ImRhdGE6aW1hZ2UvcG5nO2Jhc2U2NCxpVkJPUncwS0dnb0FBQUFOU1VoRVVnQUFBdTRBQUFMdUNBWUFBQUR4SFpQS0FBQUFBWE5TUjBJQXJzNGM2UUFBQUlSbFdFbG1UVTBBS2dBQUFBZ0FCUUVTQUFNQUFBQUJBQUVBQUFFYUFBVUFBQUFCQUFBQVNnRWJBQVVBQUFBQkFBQUFVZ0VvQUFNQUFBQUJBQUlBQUlkcEFBUUFBQUFCQUFBQVdnQUFBQUFBQUFDUUFBQUFBUUFBQUpBQUFBQUJBQU9nQVFBREFBQUFBUUFCQUFDZ0FnQUVBQUFBQVFBQUF1NmdBd0FFQUFBQUFRQUFBdTRBQUFBQUJtbEozZ0FBQUFsd1NGbHpBQUFXSlFBQUZpVUJTVklrOEFBQVFBQkpSRUZVZUFIdDNVMm9aVmVaT082VHhsRWdHS2drWUloS1VwUENJREVCKzBkMUZDZVZRVnBvTVhFZ0tyUzJBY0Z1SnhvY3RZaTBJNGxPL0NzRWpMYWc0aUF4dEtBWlZDWmlZdEV0VkNLU1VKT3E0QWNSa2lxSUJES3RmNzMzdXNwVHA4NjlkNjk5OXNkYWF6OGI5Tng3N3Y1WTYzbjNxYng3blhldnZWcFpDQkFnUUlBQUFRSUVDQkFnUUlBQUFRSUVDQkFnUUlBQUFRSUVDQkFnUUlBQUFRSUVDQkFnUUlBQUFRSUVDQkFnUUlBQUFRSUVDQkFnUUlBQUFRSUVDQkFnUUlBQUFRSUVDQkFnUUlBQUFRSUVDQkFnUUlBQUFRSUVDQkFnUUlBQUFRSUVDQkFnUUlBQUFRSUVDQkFnUUlBQUFRSUVDQkFnUUlBQUFRSUVDQkFnUUlBQUFRSUVDQkFnUUlBQUFRSUVDQkFnUUlBQUFRSUVDQkFnUUlBQUFRSUVDQkFnUUlBQUFRSUVDQkFnUUlBQUFRSUVDQkFnUUlBQUFRSUVDQkFnUUlBQUFRSUVDQkFnUUlBQUFRSUVDQkFnUUlBQUFRSUVDQkFnUUlBQUFRSUVDQkFnUUlBQUFRSUVDQkFnUUlBQUFRSUVDQkFnUUlBQUFRSUVDQkFnUUlBQUFRSUVDQkFnUUlBQUFRSUVDQkFnUUlBQUFRSUVDQkFnUUlBQUFRSUVDQkFnUUlBQUFRSUVDQkFnUUlBQUFRSUVDQkFnUUlBQUFRSUVDQkFnUUlBQUFRSUVDQkFnUUlBQUFRSUVDQkFnUUlBQUFRSUVDQkFnUUlBQUFRSUVDQkFnUUlBQUFRSUVDQkFnUUlBQUFRSUVDQkFnUUlBQUFRSUVDQkFnUUlBQUFRSUVDQkFnUUlBQUFRSUVDQkFnUUlBQUFRSUVDQkFnUUlBQUFRSUVDQkFnUUlBQUFRSUVDQkFnUUlBQUFRSUVDQkFnUUlBQUFRSUVDQkFnUUlBQUFRSUVDQkFnUUlBQUFRSUVDQkFnUUlBQUFRSUVDQkFnUUlBQUFRSUVDQkFnUUlBQUFRSUVDQkFnUUlBQUFRSUVDQkFnUUlBQUFRSUVDQkFnUUlBQUFRSUVDQkFnUUlBQUFRSUVDQkFnUUlBQUFRSUVDQkFnUUlBQUFRSUVDQkFnUUlBQUFRSUVDQkFnUUlBQUFRSUVDQkFnUUlBQUFRSUVDQkFnUUlBQUFRSUVDQkFnUUlBQUFRSUVDQkFnUUlBQUFRSUVDQkFnUUlBQUFRSUVDQkFnUUlBQUFRSUVDQkFnUUlBQUFRSUVDQkFnUUlBQUFRSUVDQkFnUUlBQUFRSUVDQkFnUUlBQUFRSUVDQkFnUUlBQUFRSUVDQkFnUUlBQUFRSUVDQkFnUUlBQUFRSUVDQkFnUUlBQUFRSUVDQkFnUUlBQUFRSUVDQkFnUUlBQUFRSUVDQkFnUUlBQUFRSUVDQkFnUUlBQUFRSUVDQkFnUUlBQUFRSUVDQkFnUUlBQUFRSUVDQkFnUUlBQUFRSUVDQkFnUUlBQUFRSUVDQkFnUUlBQUFRSUVDQkFnUUlBQUFRSUVDQkFnUUlBQUFRSUVDQkFnUUlBQUFRSUVDQkFnUUlBQUFRSUVDQkFnUUlBQUFRSUVDQkFnUUlBQUFRSUVDQkFnUUlBQUFRSUVDQkFnUUlBQUFRSUVDQkFnUUlBQUFRSUVDQkFnUUlBQUFRSUVDQkFnUUlBQUFRSUVDQkFnUUlBQUFRSUVDQkFnUUlBQUFRSUVDQkFnUUlBQUFRSUVDQkFnUUlBQUFRSUVDQkFnUUlBQUFRSUVDQkFnUUlBQUFRSUVDQkFnUUlBQUFRSUVDQkFnUUlBQUFRSUVDQkFnUUlBQUFRSUVDQkFnUUlBQUFRSUVDQkFnUUlBQUFRSUVDQkFnUUlBQUFRSUVDQkFnUUlBQUFRS2pDOXd3K2hFY2dBQUJBZ1FJRURoVTRJMjNMbDJPRlo0Ly84enF0VGRmM1Z2My9Pc3Y3YjBldi9YdXZkZmJicnA5OVk2M3YzdDEzN3MrNkwvZGV5TCtqOER5Qkh6NGx4ZHpQU1pBZ0FDQkFnUWlXWTlFL2N5RjA2c1gvdlJjVm9zK2R0L25WdmZjY1ZJU242Vm1aUUwxQzBqYzY0K2hIaEFnUUlCQUpRS1JyRC85NGhPckdFM1BUZGEzZGZIZWQzNWc5ZEM5ajBqZ3QrRjRqMENEQWhMM0JvT3FTd1FJRUNCUWhrQWs2aGN1dnJ6NjNaL1BySjQ5OTlUcWpiY3VqdEt3R0lIL3pEOTkyWC9UUjlHMVV3TGxDUGlRbHhNTExTRkFnQUNCQmdRMmsvWG8wbGdKK3pyWHpUZmVzdnJPeDMrNXV2bkdZLzdidmc3alp3SU5DZmh3TnhSTVhTRkFnQUNCZVFSU3N2NnpGNzYzZXVYU3VVa1M5VzA5bGJ4dlUvRWVnWFlFSk83dHhGSlBDQkFnUUdCQ2dValcrOTVjT21Zem8rNzk2eC81b2YrK2o0bHMzd1JtRXZEQm5nbmVZUWtRSUVDZ1BvRlNrL1ZOU1RYdm15SitKOUNHZ01TOWpUanFCUUVDQkFpTUpCREorcEF6d1l6VXpHdDJHeVV6WHpyMW1ObG1ybEh4QzRINkJTVHU5Y2RRRHdnUUlFQmdRSUZVcno3MlREQURObm5ycnBUTWJHWHhKb0dxQmQ1V2RlczFuZ0FCQWdRSURDQ3ducXovKzAvL2ViYWJTd2ZveXRWZHhFMnlaLy80Njh1ZXRIcVZ4QThFcWhlUXVGY2ZRaDBnUUlBQWdUNENLVm1QbVdCYVNkYlhIV0lLeXZqV3dFS0FRRHNDU21YYWlhV2VFQ0JBZ01BUkFwR3NsemdUekJITjd2M25xSFgvOGIvOXIvL1c5eGEwSVlHeUJJeTRseFVQclNGQWdBQ0JnUVVpV1U4M2wzN3krLzg0OE43TDM1MXltZkpqcElVRXVncEkzTHRLV1k4QUFRSUVxaENJUkQwYXV1UmtmVDFRZi9uckg5Wi85VE1CQWhVTFNOd3JEcDZtRXlCQWdNQytRS3BYajVydUZ1dlYrOFk1NnR4ZmUvUFZ2cHZiamdDQndnUWs3b1VGUkhNSUVDQkFvSnRBU3RaYnZibTBtNEsxQ0JCWWtvREVmVW5SMWxjQ0JBaFVMaERKZXJxNTFNaDZ0MkNlZi8ybGJpdGFpd0NCNGdVazdzV0hTQU1KRUNDd2JJSDFaSDJKTjVmdUd2M2p0OTY5Nnk1c1Q0QkFJUUlTOTBJQ29Sa0VDQkFnOEhlQlNOYmRYUHAzajExK011SytpNTV0Q1pRbElIRXZLeDVhUTRBQWdVVUtwSHIxbUFIbEo3Lzk5c3JJK25DbmdSSDM0U3p0aWNEY0FoTDN1U1BnK0FRSUVGaW9RRXJXelFRejdnbGd4SDFjWDNzbk1LV0F4SDFLYmNjaVFJREF3Z1ZTc200bW1PbE9CQ1B1MDFrN0VvR3hCU1R1WXd2YlB3RUNCQll1RU1sNm1nbEdDY3owSjRNUjkrbk5IWkhBV0FJUzk3Rms3WmNBQVFJTEZwQ3NseE44SSs3bHhFSkxDT3dxSUhIZlZkRDJCQWdRSUxBbkVNbDZ6QVR6N0xtbjNGeGEwRGxoeEwyZ1lHZ0tnUjBGSk80N0F0cWNBQUVDU3hWSTllcHhjNmxrdmR5endJaDd1YkhSTWdLNUFoTDNYREhyRXlCQVlNRUM2OG02SjVmV2NTSVljYThqVGxwSm9JdUF4TDJMa25VSUVDQ3dZSUdVck1kTU1HNHVyZTlFTU9KZVg4eTBtTUJCQWhMM2cyUzhUNEFBZ1FVTFJMSnVKcGcyVGdBajdtM0VVUzhJaElERTNYbEFnQUFCQW5zQ2t2VTJUd1FqN20zR1ZhK1dLU0J4WDJiYzlab0FBUUo3QW1mLytPdkxiaTV0KzJRdzR0NTJmUFZ1V1FJUzkyWEZXMjhKRUZpNFFLcFhUOG42VjM3KzZZV0x0Tjk5SSs3dHgxZ1BseU1nY1Y5T3JQV1VBSUdGQ3F3bjYyYUNXZDVKWU1SOWVUSFg0M1lGSk83dHhsYlBDQkJZc01CNnZicGtmY0Vud3BXdUczRmZkdnoxdmkwQmlYdGI4ZFFiQWdRV0xDQlpYM0R3RCttNkVmZERjUHlKUUdVQ0V2ZktBcWE1QkFnUVNBS1JxTWZQVDcvNHhDcVNNM09zSnhtdjZ3SkczTmMxL0V5Z2JnR0plOTN4MDNvQ0JCWW9rR2FDVVFLendPRDM2TElSOXg1b05pRlFxSURFdmREQWFCWUJBZ1NTd1ByTnBjK2VlMnBsSnBnazQ3V0xnQkgzTGtyV0lWQ0hnTVM5ampocEpRRUNDeE5JeWZyUFh2amV5c2o2d29JL2NIZU51QThNYW5jRVpoU1F1TStJNzlBRUNCQllGMWkvdVZTOStycU1uM2NSTU9LK2k1NXRDWlFsSUhFdkt4NWFRNERBd2dRaVdVODNseHBaWDFqd0orcXVFZmVKb0IyR3dBUUNFdmNKa0IyQ0FBRUNTU0FTOWZnNUpldEcxcE5NT2E4MzMzakw2dFNKaDFlMzNYVDc2aDF2Zi9mcXJsdmVzN3I1eG1NM1JBdFRDZE5mL3ZxSDFXdHZ2cnFLZXc3ZWVPdGlPWTNmMGhJajdsdFF2RVdnVWdHSmU2V0IwMndDQk9vU01CTk0yZkZLeWZvOWQ1eGMzZmV1RDk3dzQ5WC9ibTF3U3VEVEgxTWlIL2NpdlBDbjU5TGJSYjBhY1M4cUhCcERZQ2VCdlJHRW5mWmdZd0lFQ0JDNFRpQWxkTC83ODVrcVJtV3Y2OEFDM3JqM25SOVluYnpyZ2RYOXh4KzhPcUxldDlzUjcrZlBQN1A2N3ErKzJuY1hvMjMzc2ZzK3Qvck1QMzNaZis5SEU3WmpBdE1KR0hHZnp0cVJDQkJvWENBbDYyYUNLVGZRMXlmclB4eWtzV2trUHI1WitlYXpqeFpWUG1QRWZaQVEyd21CSWdRazdrV0VRU01JRUtoVklJMjBucmx3MnBOTEN3MWlKT3NQM2Z2SVdxMzZNTW42dHU1R21VMXB5YnNhOTIyUjhoNkJPZ1Y4ZFZabjNMU2FBSUVaQlNKWlR6ZVhsbHJYUENQUDdJZGVyMWRmdjdGMHlvWkY4bDdLZzdMaXd1WHJIL21oLzk1UGVRSTRGb0dSQkl5NGp3UnJ0d1FJdENXUWJpNk5zZ016d1pRWDJ4S1M5WFdWdUdENC9JZStWa1ROdXhIMzljajRtVURkQXE3QTY0NmYxaE1nTUtKQVN0WnJtUEp2UklaaWQ1MlM5WSsrNzdNNzMxdzZSaWZqbTVrUzV1WTM0ajVHZE8yVHdEd0NFdmQ1M0IyVkFJRUNCZFp2TG4zbDBybWliakFza0d1V0psMS9jK2tzemVoMDBIVC93OXd6elpoVnBsTzRyRVNnQ2dHbE1sV0VTU01KRUJoTElDVlhjWE5wQ2FPalkvV3oxdjNHcVBxZHgwNU1kblBwa0U0eDAweDhhelBrUHZ2c3k2d3lmZFJzUTZCTUFZbDdtWEhSS2dJRVJoUllUOWJWcTQ4STNYUFgyNUwxcjY5KzJITnY4MjRXdGU3eExjR2NOekdyY1ovM0hIQjBBa01LU055SDFMUXZBZ1NLRlloa1BXYUNpWHAxeVhwNVlVcjE2dW5KcGFzclR5NnROVm5mMUkzRWVjN0UzWWo3WmtUOFRxQmVBWWw3dmJIVGNnSUVEaEdJUlAzQ3haZFg2Y21sa3ZWRHNHYjZVeVRybjNqL0YxYnZlUHU3VnpILytZK3ZKT3N0TG5FeDh1VFp4MmZybWhIMzJlZ2RtTURnQWhMM3dVbnRrQUNCdVFUV2szWDE2bk5GNGZEalJ0bElKSkpwSnBoV2svV2tVRUtkdXhIM0ZBMnZCT29Ya0xqWEgwTTlJTEJvZ1pTcy8reUY3N201dE5BellkdE1NSjlaZmJuUTFyYlhMQ1B1N2NWVWo1WXJJSEZmYnV6MW5FQzFBcEdzUDMvK21WWE1CS01FcHJ3d2JydTVkRlhwemFYbDZlYTN5SWg3dnBrdENKUXFJSEV2TlRMYVJZREFOUUtSck1mTnBaR0VTTmF2b1NuaWwvV2JTMk1tbFNnUmFlWG0waUdBdytlTnR5NE9zYXZzZlJoeHp5YXpBWUZpQlNUdXhZWkd3d2dRV0g5eXFXUzl2UE5oUFZsditlYlNJZVRuU3RxajdVYmNoNGlnZlJBb1EwRGlYa1ljdElJQWdTc0NxVjQ5elFUemxaOS9ta3RoQXBHc3gwd3c5eDkvY0c5VXZmV2JTd3ZqNzlVY0krNjkyR3hFb0VnQmlYdVJZZEVvQXNzUldFL1d6UVJUWnR3M2J5NlZySmNacDROYVpjVDlJQm52RTZoUFFPSmVYOHkwbUVEMUFpbFpqNWxnbE1DVUY4NFlWYi96MkluVlEvYytza3IxNm00dTNTMU9hdHgzODdNMUFRTDdBaEozWndJQkFwTUlSTEp1SnBoSnFIc2RaRnV5N3ViU1hwUmJOMUxqdnBYRm13UUlaQXBJM0RQQnJFNkFRSGVCU05iTkJOUGRhK28xSTFrL2RlTGhWVHpaTTI0dVhWMTVjcWxrZmVvb2pIODhOZTdqR3pzQ2dha0VKTzVUU1RzT2dZVUltQW1tN0VDdlA3azBXaHJUTnBiZFlxM2JWVUNOKzY2Q3RpZFFqb0RFdlp4WWFBbUJLZ1ZTdmJxWllNb04zM3F5bmhKMVR5NmRObDVxM0tmMWRqUUNyUXBJM0Z1TnJINFJHRkZnUFZrM0U4eUkwRHZzZW5NbW1OaVZaSDBIMEIwM1ZlTytJNkROQ1JEWUU1QzRPeEVJRU9na2tKSjFNOEYwNHBwOHBXMDNsNW9KWnZJd0ZIbEFOZTVGaGtXakNQUVNrTGozWXJNUmdXVUl1TG0wN0RpdjMxeWFwbTEwYzJuWk1adWpkV3JjNTFCM1RBTGpDRWpjeDNHMVZ3TFZDcVNiUytNLzl1WllMeStNNjhsNnpBVGpZVWpseFdoYmk5UzRiMVB4SGdFQ3VRSVM5MXd4NnhOb1VDQWw2OCtlZTJyMWxaOS91c0VlMXQybHpadExKZXYxeFZPTmUzMHgwMklDSlFwSTNFdU1pallSR0ZrZzFhdkhUREJQbm4xY3NqNnlkNS9kdTdtMGo1cHR0Z21vY2QrbTRqMENkUXBJM091TW0xWVR5QmFJWkQyZVhQcmFtNit1ekFTVHpUZjZCbTR1SFoxNHNRZFE0NzdZME90NGd3SVM5d2FEcWtzRWtrQksxczljT0sxZVBhRVU5THBlcis3bTBvSUNNMEpUMUxpUGdHcVhCQllvSUhGZllOQjF1VzBCTThHVUhkOXR5WHJaTGRhNklRVFV1QStoYUI4RUNFamNuUU1FR2hCSU41ZWFDYWJNWUthYlMrKzU0K1RLVERCbHhxamxWcWx4YnptNityWTBBWW43MGlLdXY4MElwR1RkVERCbGhuVGJ6YVZsdGxTcldoZFE0OTU2aFBWdlNRSVM5eVZGVzErckZrZ3p3Y1NUUzErNWRNNU1NQVZHTTVMMWgrNTlaSlhxMVQyNXRNQWd6ZFFrTmU0endUc3NnY1lFSk82TkJWUjMyaEpZdjduVVRERGx4VGFTc1R1UG5iZ21XZmZrMHZMaVZFS0wxTGlYRUFWdElGQy9nTVM5L2hqcVFXTUM2OG02SjVlV0Y5eHRONWRLMXN1TGt4YjlYVUNOKzk4dC9FU2dkZ0dKZSswUjFQNG1CTkpNTUZHdkxsa3ZMNlFwV2Yvbyt6Njd1dm5HWXpkNGNtbDVNZEtpZ3dYVXVCOXM0eThFYWhPUXVOY1dNZTF0Um1EOTVsTEplbmxoWGIrNU5Gb1hDZnRuVmw4dXI2RmFWSVdBR3ZjcXdxU1JCSW9Ya0xnWEh5SU5iRVVnM1Z6NnV6K2ZXWmtKcHJ5b3BucjFrM2M5c0xyLytJTjdpYnFiUzh1TFU2MHRVdU5lYStTMG0wQlpBaEwzc3VLaE5ZMEpwR1E5Wm9KeGMybDV3VTNKdXBsZ3lvdU5GZzBub01aOU9FdDdJakMzZ01SOTdnZzRmbk1DYmk0dE82U3BYajBlaHBTbWJYUnphZGt4MDdyZEJOUzQ3K1puYXdJbENVamNTNHFHdGxRcklGa3ZPM1RyVHk1TnlYclpMZGE2MWdUVXVMY1dVZjBoTUkrQXhIMGVkMGR0UkNEZFlPcm0wdklDbXBMMU5CTk1lUzNVb2lVSnFIRmZVclQxbGNCNEFoTDM4V3p0dVdHQkdHRi83UFFYUGIyMHNCaXZ6d1FUczhCRTg4d0VVMWlRTkdkeUFUWHVrNU03SUlIUkJDVHVvOUhhY1lzQ2tiQS8vZUlUNWxvdkpManA1bEl6d1JRU0VNMG9Va0NOZTVGaDBTZ0N2UVFrN3IzWWJMUkVnU2lMTVRQTS9KRlB5YnFaWU9hUGhSWjBGMURqM3QzS21nUUlIQ3dnY1QvWXhsOElYQlg0d1crK2Nma3JQLy8wMWQvOU1LMUFKRDJuVGp5OGlucjFXS0lNeGt3dzA4YkEwWFlUVU9PK201K3RDUkRZRjVDNE94TUlIQ0tRYXRtZlBQdjRJV3Y1MHhnQ216ZVgvbmoxdityVng0QzJ6K1lGMUxnM0gySWRYSkNBeEgxQndkYlZQSUZJMnBYRzVKbnR1dlptc2g3N2MzUHBycXEyWDdxQUd2ZWxud0g2MzVLQXhMMmxhT3JMWUFLUnRKdmljVERPUTNka0pwaERlZnl4RVFFMTdvMEVVamNJekN5d04xM2F6RzF3ZUFKRkNjUk5xTjk4OXRIVm5EV3BSWUZvREFFQ0JBWVNpQXYxV0tKOEo1NWVmTis3UGlnUEdjaldicFloNEFPempEanJaVWNCNVRFZG9heEdnQUNCQVFUU2plZVMrQUV3N1dJUkFoTDNSWVJaSjdzSXBCdFJYL2pUYzExV3R3NEJBZ1FJRENnUVNmd24zditGMVlmZit5bTV5WUN1ZHRXV2dBOUhXL0hVbXgwRS92Ti8vdld5cEgwSFFKc1NJRUJnQUlGSTRMOTA2akZsTkFOWTJrVjdBaEwzOW1LcVJ6MEVZcDUyVXo3MmdMTUpBUUlFUmhDSTVQM09ZeWRXano3d3JiM25Ob3h3Q0xza1VLV0F4TDNLc0duMGtBSm1rQmxTMDc0SUVDQXduRUFrOE4vNStDOGw3OE9SMmxQbEFoTDN5Z09vK2JzTGZQTDcvKyt5R1dSMmQ3UUhBZ1FJakNYdzQzLzdQOG43V0xqMlc1WEFQMVRWV28wbE1MQkFsTWhJMmdkR3RUc0NCQWdNTEJBUHc0dXBlZ2ZlcmQwUnFFN0FpSHQxSWRQZ29RU1V5QXdsYVQ4RUNCQVlYMERaelBqR2psQytnQkgzOG1Pa2hTTUpQUDNpRXlQdDJXNEpFQ0JBWUdpQitIWTBubWdkZ3k1RDc5ditDTlFpSUhHdkpWTGFPYWhBL01OdkZwbEJTZTJNQUFFQ2t3ZzhkdnFMa3h6SFFRaVVLQ0J4THpFcTJqUzZnTkgyMFlrZGdBQUJBcU1JeFBNMmZ2SDdIeGwxSDBYWFRrc1hrTGlYSGlIdEcxekFhUHZncEhaSWdBQ0JTUVYrOHR0dks1bVpWTnpCU2hHUXVKY1NDZTJZVE1CbysyVFVEa1NBQUlGUkJLTGUzYi9sbzlEYWFlRUNFdmZDQTZSNXd3b1liUi9XMDk0SUVDQXdsMERjcCtSRzFibjBIWGN1QVluN1hQS09PNHVBRVpwWjJCMlVBQUVDb3dqNE4zMFVWanN0V0VEaVhuQndORzE0Z1dmUFBUWDhUdTJSQUFFQ0JHWVI4Ry82TE93T09xT0F4SDFHZkllZVZpQ2V1dWNwcWRPYU94b0JBZ1RHRkloLzA1WExqQ2xzMzZVSlNOeExpNGoyakNid2w3LytZYlI5MnpFQkFnUUl6Q09nWEdZZWQwZWRSMERpUG8rN284NGdjT2JDNlJtTzZwQUVDQkFnTUtiQStkZGZHblAzOWsyZ0tBR0plMUhoMEpneEJlS2hIUllDQkFnUWFFdkF2KzF0eFZOdkRoZVF1Qi91NDYrTkNLaUJiQ1NRdWtHQUFBRUNCQllzSUhGZmNQQ1gxUFVMRjE5ZVVuZjFsUUFCQWdRSUVHaFFRT0xlWUZCMWlRQUJBZ1FJRUNCQW9EMEJpWHQ3TWRVakFnUUlFQ0JBZ0FDQkJnVWs3ZzBHVlpjSUVDQkFnQUFCQWdUYUU1QzR0eGRUUFNKQWdBQUJBZ1FJRUdoUVFPTGVZRkIxaVFBQkFnUUlFQ0JBb0QwQmlYdDdNZFVqQWdRSUVDQkFnQUNCQmdVazdnMEdWWmNJRUNCQWdBQUJBZ1RhRTVDNHR4ZFRQU0pBZ0FBQkFnUUlFR2hRUU9MZVlGQjFpUUFCQWdRSUVDQkFvRDBCaVh0N01kVWpBZ1FJRUNCQWdBQ0JCZ1VrN2cwR1ZaY0lFQ0JBZ0FBQkFnVGFFNUM0dHhkVFBTSkFnQUFCQWdRSUVHaFFRT0xlWUZCMWlRQUJBZ1FJRUNCQW9EMEJpWHQ3TWRVakFnUUlFQ0JBZ0FDQkJnVWs3ZzBHVlpjSUVDQkFnQUFCQWdUYUU1QzR0eGRUUFNKQWdBQUJBZ1FJRUdoUVFPTGVZRkIxaVFBQkFnUUlFQ0JBb0QwQmlYdDdNZFVqQWdRSUVDQkFnQUNCQmdVazdnMEdWWmNJRUNCQWdBQUJBZ1RhRTVDNHR4ZFRQU0pBZ0FBQkFnUUlFR2hRUU9MZVlGQjFpUUFCQWdRSUVDQkFvRDBCaVh0N01kVWpBZ1FJRUNCQWdBQ0JCZ1VrN2cwR1ZaY0lFQ0JBZ0FBQkFnVGFFNUM0dHhkVFBTSkFnQUFCQWdRSUVHaFFRT0xlWUZCMWlRQUJBZ1FJRUNCQW9EMEJpWHQ3TWRVakFnUUlFQ0JBZ0FDQkJnVWs3ZzBHVlpjSUVDQkFnQUFCQWdUYUU1QzR0eGRUUFNKQWdBQUJBZ1FJRUdoUVFPTGVZRkIxaVFBQkFnUUlFQ0JBb0QwQmlYdDdNZFVqQWdRSUVDQkFnQUNCQmdVazdnMEdWWmNJRUNCQWdBQUJBZ1RhRTVDNHR4ZFRQU0pBZ0FBQkFnUUlFR2hRUU9MZVlGQjFpUUFCQWdRSUVDQkFvRDBCaVh0N01kVWpBZ1FJRUNCQWdBQ0JCZ1VrN2cwR1ZaY0lFQ0JBZ0FBQkFnVGFFNUM0dHhkVFBTSkFnQUFCQWdRSUVHaFFRT0xlWUZCMWlRQUJBZ1FJRUNCQW9EMEJpWHQ3TWRVakFnUUlFQ0JBZ0FDQkJnVWs3ZzBHVlpjSUVDQkFnQUFCQWdUYUU1QzR0eGRUUFNKQWdBQUJBZ1FJRUdoUVFPTGVZRkIxaVFBQkFnUUlFQ0JBb0QwQmlYdDdNZFVqQWdRSUVDQkFnQUNCQmdVazdnMEdWWmNJRUNCQWdBQUJBZ1RhRTVDNHR4ZFRQU0pBZ0FBQkFnUUlFR2hRUU9MZVlGQjFpUUFCQWdRSUVDQkFvRDBCaVh0N01kVWpBZ1FJRUNCQWdBQ0JCZ1VrN2cwR1ZaY0lFQ0JBZ0FBQkFnVGFFNUM0dHhkVFBTSkFnQUFCQWdRSUVHaFFRT0xlWUZCMWlRQUJBZ1FJRUNCQW9EMEJpWHQ3TWRVakFnUUlFQ0JBZ0FDQkJnVWs3ZzBHVlpjSUVDQkFnQUFCQWdUYUU1QzR0eGRUUFNKQWdBQUJBZ1FJRUdoUVFPTGVZRkIxaVFBQkFnUUlFQ0JBb0QwQmlYdDdNZFVqQWdRSUVDQkFnQUNCQmdVazdnMEdWWmNJRUNCQWdBQUJBZ1RhRTVDNHR4ZFRQU0pBZ0FBQkFnUUlFR2hRUU9MZVlGQjFpUUFCQWdRSUVDQkFvRDBCaVh0N01kVWpBZ1FJRUNCQWdBQ0JCZ1VrN2cwR1ZaY0lFQ0JBZ0FBQkFnVGFFNUM0dHhkVFBTSkFnQUFCQWdRSUVHaFFRT0xlWUZCMWlRQUJBZ1FJRUNCQW9EMEJpWHQ3TWRVakFnUUlFQ0JBZ0FDQkJnVWs3ZzBHVlpjSUVDQkFnQUFCQWdUYUU1QzR0eGRUUFNKQWdBQUJBZ1FJRUdoUVFPTGVZRkIxaVFBQkFnUUlFQ0JBb0QwQmlYdDdNZFVqQWdRSUVDQkFnQUNCQmdVazdnMEdWWmNJRUNCQWdBQUJBZ1RhRTVDNHR4ZFRQU0pBZ0FBQkFnUUlFR2hRUU9MZVlGQjFpUUFCQWdRSUVDQkFvRDBCaVh0N01kVWpBZ1FJRUNCQWdBQ0JCZ1VrN2cwR1ZaY0lFQ0JBZ0FBQkFnVGFFNUM0dHhkVFBTSkFnQUFCQWdRSUVHaFFRT0xlWUZCMWlRQUJBZ1FJRUNCQW9EMEJpWHQ3TWRVakFnUUlFQ0JBZ0FDQkJnVWs3ZzBHVlpjSUVDQkFnQUFCQWdUYUU1QzR0eGRUUFNKQWdBQUJBZ1FJRUdoUTRHME45a21YQ0JBZzBKVEF6VGZlc3JyejJJbTlQaDIvOWU1cituYlBIU2V2K2Yyb1gzNzM1elBYckhMKzlaZjJmbi9sMHJuVkcyOWR2T1p2ZmlGQWdBQ0JzZ1FrN21YRlEyc0lFRmlnUUVyTUl5bS83YWJiOXdUdVAvN2czdXZOTng2N1liVTZmK1huLzUxRTVvMjNMbDIrY1BIbHZXUDk1YTkvV0wzMjVxdXJTTzRsOXBQd093Z0JBZ1FPRlpDNEg4cmpqd1FJRUJoV0lKTDBVeWNlM2t2UTMvSDJkNi91dXVVOXEvM2tmSnJFL0tqZTdMZGwrMW9wcVU4Si9iUG5uakpLdjUzS3V3UUlFQmhGUU9JK0NxdWRFaUJBWUhVbElkOHZjVGw1MXdPcjlTVDl4eE9Obmc4ZGcyMUovWG95ZitiQ2FTUHpRNlBiSHdFQ0JOWUVKTzVyR0g0a1FJREFMZ0xyaWZxMXBTNC8zR1czUlcrN21jeEhJaDhOZnY3OE15dUpmTkdoMHpnQ0JDb1VrTGhYR0RSTkprQ2dISUZVK2hJM2lmNjk3S1hkUlAwbytXMkpmTlRNeDAyeFNtdU8wdk4zQWdRSUhDNGdjVC9jeDE4SkVDQnduVUJLMWovNnZzL3UxYWZYV3ZweVhjZEdlR05iSXYvMGkwOUk0a2V3dGtzQ0JOb1hrTGkzSDJNOUpFQmdBSUZ0eWZwblZsOGVZTS9MMnNWNkloOWxOWkw0WmNWZmJ3a1EyRTFBNHI2Ym42MEpFR2hjNE41M2ZtRDEwTDJQWEMyRGthd1BGL0NVeEtjYlhLT2M1c216anc5M0FIc2lRSUJBWXdJUzk4WUNxanNFQ093dUVNbDZ6QVFUTjVoR2N2bjExWEpyMW5mWFBIb1BLWUdQTlNPSlR6ZTJ2dkNuNTQ3ZTJCb0VDQkJZa0lERWZVSEIxbFVDQkE0WFNLUHI5NzNyZzFjZWVpUlpQMXhybkwrdUovRm4vL2pyeXo5NzRYdW1tQnlIMmw0SkVLaFFRT0plWWRBMG1RQ0JZUVUrZHQvblZ1bEcwNXBHMTlQVWkrdko3ckF5OCs1dC93SnFmeFJlTGZ5OHNYQjBBZ1RLRUpDNGx4RUhyU0JBWUdLQnVObjBFKy8vd3RWeW1KSnExMVBOZDNwQ2FkQ2NmLzJsUGFGWExwMjcrclRTZi8vcFA2KytkT3F4em5JeGd2MlZuMy82NnZwaGNPZXhFMWQvai9LZ1dOWWZGblgxanpQK2tDNU1VaG5OVDM3Nzdhc0dNemJMb1FrUUlEQzVnTVI5Y25JSEpFQmdUb0hOaEgzT3RzU3hJNW1PbXpKamlYbk9ZL25rOS85eDc3WEwvMFZ5MzNXSmRhUC9iN3gxY1crVGVIM2hyZWV1YnI1WlUvN2gvKy80NWZWdkk2NnVPTk1QRXZpWjRCMldBSUZpQkNUdXhZUkNRd2dRR0ZPZ3RJUTkrdnFMMy8vbzhqZWZmZlJxSXQybi96RTYzblhKV1RmdHM4UlpYaVR3S1RwZUNSQlltb0RFZldrUjExOENDeFFvYWRRNDhhY2JMOVBvZDNvLzl6VjN4RDEzLzdGK2ZCTVFGeGtmZnUrbnJ0eTBXODRpZ1M4bkZscENnTUEwQWhMM2Fad2RoUUNCR1FUV0UvYlNhdGdmTy8zRjFXWnB5dGhFTWVMZTUwSWh0b202OHJqWVNEZU1qdDNXblAydkovQnhFMnVKM3hMazlNZTZCQWdRT0VoQTRuNlFqUGNKRUtoV1lIMWF4NUlTOWdRYXllVlFTWHRPK2N0bWpYdHFUOWZYbUpveGJoQk5pWEtYN2RJTnBhKzkrZXJWbVh1NmJOZG5uZFN1T09ZY0YwWjkybXdiQWdRSTVBajhRODdLMWlWQWdFREpBbEhIL2wvLzh0K3JyMy9raHplTU9USWNpV0dVanNScnJrZHNsMjVDemQxMjIvbzVwVEk1U2Y3bXNmWnVaTDN5UUtTNDZNaFpJcG1PNDBhZjQ2YmJUMzcvLy9XMjYzcmNPR2FjQTNFdXhEbGhJVUNBUUNzQ0V2ZFdJcWtmQkJZdUVHVXgzL240TDFkakp1eFJLdktmLy9Pdmx5TUJqUkhrM0NXMlAzUGhkSzl5bFczSGltUTZKeG5QU2ZLM0hTL2VTL1h1Qi8xOTIvc1JrNWg2TTVabzgzZC85ZFc5SkQ0c3cyVGJOa084RjhlTmN5TE9EUXNCQWdSYUVGQXEwMElVOVlIQWdnWEdMb3VKVWZYMDhKODBCM29jODU0N1RsNFp6VDNXK1diTk1jbzNZalE1SnhtUEpEOFM1MTJXMkQ0dVBuTHIzZTgvL3VEZXhjNTYvWG1VQzhYL1loUitmVTc5WGRxM3VXMktVYlEzU24yR0tsSGFQSTdmQ1JBZ01JV0F4SDBLWmNjZ1FHQVVnYzkvNkd0WEg2QTA5QUZTb2gwUE9kcE1kdU5CUmJrais4K2ZmMllWRDA4YWVza2RjWTlrZjdNL3VXMks1UGY0clhkZjJVLzNldmRJb0NONWpoSDd6ZVBIN3pFS0gvK0xVZmlIN24wazIvZW9Qa1M4b3IwUmh6aU9oUUFCQWpVS1NOeHJqSm8yRTFpNHdQb28rOUFVYVdUMm9JY2dSZGxGakI3bkxMSFBYZWRyUCtoNHVTUHVCKzBuOS8wWU9iL3RwdHV6Tm92a09XcjhEMHVjMHlqOEdBbTgwZmVzY0ZtWkFJRUNCU1R1QlFaRmt3Z1FPRmhnZllySGc5ZksvMHRLMkZNNXpMWTl4R2gxM3hLWnpWSG1iZnZQZlMvMm1UdmlubnVNdzlidk0wVmtYUFJFcWMxUkpTdGpKdkJHM3crTHFyOFJJRkN5Z0p0VFM0Nk90aEVnY0ZVZ2t1YVlKZVF6Ly9UbEc5TEk2ZFUvN3ZCREpPeFJZeDBKKzFISlpOUmg1NWJJRERuMTQyWTM1Nmh4WDI5RFhEaWtLU0xYM3ovczU0aGRsTUowWFNJbUVadWhiMlNOZHNRRHBjdzgwelVTMWlOQW9BUUJpWHNKVWRBR0FnUU9GWWpTbUtGbmpJbUVQWkxCU0FxN2pJWkhHL3FVeUF3NTllTTJwTndSOTBqMmgxd2lzWTY2OFp6bHJsdmVrejNUUzByZzR5SXJZcGR6dk1QV2pRdXhPTGNpdmhZQ0JBaVVMaUJ4THoxQzJrZGc0UUp4QStxakQzd3Jhd2FYdzhqaUJzV1VzQjgxd3I2K254Z2x6aG5waitQRWFQVFl5MXcxN3V2OVNpVXo2KzhkOW5NNFJzbFJuMlE1THJLR0hvR1A5c1E1RnFQdkZnSUVDSlFzb01hOTVPaG9HNEVGQzhUSThKZE9QWlpkbW5JUVdTVFNVYlp5MEUybkIyMFg3MGRkZll3UzV5d3hDcDF6WVpDejc3VHUzRFh1NiszNDNaL1BwRjg3dmFZYlZmc2F4WFl4Uzg4UGZ2T055eDk5MzJlekxxcTJOVEJkbE1Wby9sZzNFbTg3cnZjSUVDQ1FJMkRFUFVmTHVnUUlUQ0lRSTdGREp1MHhrMGxNNjdnK2gzalhqc1FGUk80TnFaSDh4UTJZWXk5ejE3aXY5eTlzdzNuOXZhTitqdEtqUHFQdWFiOXg0UkxIamRqbUhqdnRZL05WNmN5bWlOOEpFQ2hKUU9KZVVqUzBoUUNCdmRIdEtGdkl2UWwwRzEwcWk0bnBCN3ZVc1cvYng2a1REMmVQdHNmb2M5K1I1RzF0T095OXVXdmMxOXUyLzFUWVM1MlQ5eGpsampueGQxMGl0bWtPK0NIcTMxUHBqQ2V1N2hvWjJ4TWdNTFNBVXBtaFJlMlBBSUhlQWtNK1VDbEdZUHVVeGF3M1BrYTBjOHN3NHJoUjh6M1ZVa0tOZStwclhLeEVPVkxPMG5WNnlDNzdITEo4SnBMM3VQQ0x1ZW9QbTNlK1M3dXNRNEFBZ2FFRWpMZ1BKV2svQkFqc0pEQlUwcjQreXI1VGc2NXNITk0vcHRybkx2dUtZKytQT2wvc3N2ck82NVJTNDc3ZWtaaEZKMmZVTzN4enBvZGNQOWEybjFQNXpHT252NWpWam0zN2lyYVpNbktialBjSUVKaExRT0krbDd6akVpQ3dKeENqMmpHYlJ5UklPVW55TnI0MHlqNUVtVXJVWHVkTy96am1uTzNiK2x0U2pYdHFYeVRPdVRlcTlwa2VNaDN2b05jNEIyTDJtYmg1OWFCMXVyNGZaVnR4ejBWNFd3Z1FJRENuZ01SOVRuM0hKckJ3Z1VpRWhyZ0pkY2hSOWhTU3FMM091WkNJVWVienI3K1VOcC9zdGFRYTk5VHBHSFhQdVZrMG5QZHZBQjQrTVk2YlYyUDZ6emhIVXZ2NnZMcHB0WSthYlFnUUdGcEE0ajYwcVAwUklOQkpJRWEwaDNpb1VpVE1NYXZJRUtQc3FlRjlSdHVudkNFMXRUTmVTNnB4VCsyS1VmZmNHMVZqMUQxdUJCNWppWE5qaUpsbjRnSmovNWtDdzE5Z2pORnYreVJBb0QwQmlYdDdNZFVqQXNVTHhFajdFQTlWaWpLSXJrOCt6VUhwTTlvKzloTlN0N1cveEJyMzFNNUlsbk9lcURybXFIdTBLYXppSnRNNFozWVpmWTkyZXRKcWlySlhBZ1NtRnBDNFR5M3VlQVFXTHBCRzJpTUI2a3VSU21QNnpNdCsxREg3akxaUDhZVFViZTB1c2NaOXZaMHg2cDV6bytxWW8rNnBYWEhPeEkycnV5YnZjZUVaNTRxRkFBRUNVd3BJM0tmVWRpd0NDeGVJUkdmWGtmWkl1SVl1alZrUFM1L1I5bmlDWjR6b3pyR1VXT09lSEdMVVBlZEcxYkZIM2RmYkZlZFF6a1ZGMmphOVJsc2w3MG5ES3dFQ1V3bEkzS2VTZGh3Q0N4Y1lJbW1QR3g0ajRSb3JTZTQ3Mmo1V2U3cWNNaVhXdUsrM08yN1l6VW1RcHhoMWovWkZ6TDc1N0tOWk45R3U5eXQrVHNtNzJXWTJaZnhPZ01CWUFoTDNzV1R0bHdDQnF3SkQxTFJIYmZJdVQwQzkycGhEZnNnZGJZOExpUmh0bjJ1SjVETjN4SDNxdHBZNjZoNE80WmZxM3Z1NlJQS3U1cjJ2bnUwSUVNZ1ZrTGpuaWxtZkFJRXNnUmpGanNRbUVweXNEZisyY3BUR1JOSStSajM3ZW50eVI5dWpYVk0rYkdtOXJlbm4wbXZjVXp0ekg4bzAxYWg3YXQrdVUwYW1rZmM0aHl3RUNCQVlVMERpUHFhdWZSTll1TUN1SSsyUkhNZU5oR01uN1JHbTNOSDJtREVsUnBQblhuSkgzT2NvNjRpUjdSSnIzZGRqRjdIYzVhWlZ5ZnU2cHA4SkVCaExRT0krbHF6OUVsaTRRQ1NJKzArYjdEL1NIb25VRk1seGpKVG1KTUJwdEwyRUVKZGU0NTZNU2g5MWozYW01RDJuSmovMUwxNGplWC9vM2tldXZKcm5mZDNGendRSURDY2djUi9PMHA0SUVQaWJRRXJhNDJtVGZWRFNTUHNVU1h1MEwwYmJjOXBheW1oN0RUWHVLZjU5UjkzVDlsTzl4amtYTjYzMlRkN2pQTnEvWUpXOFR4VXp4eUd3SkFHSis1S2lyYThFSmhLSXhDVW5FVjV2VmlSTVkwNzN1SDZzK0RrdU11NC8vdURtMndmK1h0Sm9lN1E5ZDhROUV1aTVsajZqN25QVWpZZFJ6TTIvYS9JK2w3UGpFaURRcm9ERXZkM1k2aG1CV1FRKy82R3ZyZUxtd2o1TEpNVXgyamxsY3ZtSjkzOGhxNmtYTHI2OG1uTW1tYzNHNXBUNFJKSS9aeGxIbjFIM0tEMlpZOWwxNUQwK0EvRlpzQkFnUUdCSUFZbjdrSnIyUldEaEFoKzc3M043bzlkOVpwQkpJKzFUSnUyUnhFYmltOVBlR0ltZHNvMUhuVks1SSs1SDdXL3N2OGU4N25HQjF2VTRrUURQTWVvZTdZczQ5eDE1ajNNcXZzbVJ2SGVOdFBVSUVPZ2lJSEh2b21RZEFnU09GSWprNnFQdisyeFdFcHgyT3NkSWV4ejd6bU1uc3I0ZGlJdUxra2JiSTdITUhYRlA1bk85eGtqMjB5OCswZm53a1FESFBRaHpMYnVNdktma1BTNW9MUVFJRUJoQ1FPSStoS0o5RUZpNFFJeGN4K1BmYzBhdUUxa2s3ZnZUOEUxZmU3MC9BMGozV1c5aVNzT1NSdHRycTNGUE1jOGRkWStMazdsRzNhUE5FZlA5RXE3dTN4U2t2c1puSWk1bzUyeC9hb3RYQWdUcUY1QzQxeDlEUFNBd3UwRGZhUjlUMGg2am1sTXZrVWpsMU9MSGFIdmNYRm5ha2p2aVBtZU5lN0tMZU1mTVBGMlhpTlB4VysvdXV2b282MFh5M25lZTkwamVUUk01U2xqc2xNRGlCQ1R1aXd1NURoTVlWcUR2emFoekp1MGhrUHZBcGRKRzIxTVVhNnR4VCszZWYrcHN0eEhzU0h6dnVlTmsyblMyMTdqZzZKdTh4OFZIWE9CYUNCQWdzSXVBeEgwWFBkc1NXTGpBTGplalJwM3pIQ1B0RWJKMFUyclg4TVZvZTVSM2xMYlVXT09lRE9OZWdaaWhwK3N5NTAycTYyM3NtN3pIeFVmMFFiMzd1cWFmQ1JESUZaQzQ1NHBabndDQlBZRklmdnZlalBxRDMzemo4cE5uSDU5Tjh0U0poN1BLWkdKVWU2NkxqTU9RYXExeGp6N0ZSVWZNMk5KMWljUjN6cHRVMTlzWjUwTE9EYlpwMitpRGV2ZWs0WlVBZ1Q0Q0V2Yythclloc0hDQlNCajcxclgvNHZjL21yMVdQTW91SW9ucUVzWW82WW15amxLWEdtdmMxeTNqMjR6MTN3LzdlZTZiVk5mYkZ2Yzd4QVhvK250ZGZvN3pUcjE3RnluckVDQ3dUVURpdmszRmV3UUlIQ29RRHkyS3IvMXpsMGpTZnZMYmI4ODZNMHZ1VGFtbFBYQnAwN3pXR3Zmb1I0eGN4NzBEWFpjNDUrYStTVFcxTmI0eGlPUTlMa1RUZTExZm94L3EzYnRxV1k4QWdYVUJpZnU2aHA4SkVEaFNJQkxmZUxCTTF4SHJ0TU1ZdVo3NnFhanAyT3V2cmR5VUduMnF1Y1k5eFNSbmFzZzQ1MHE0U1RXMVBmempRalRuVzRQWU52cWgzajBwZWlWQUlFZEE0cDZqWlYwQ0N4ZUlFcGsrODdXbkdXUWkwWmw3eVNrdGlYYVhPQVZrTXF5NXhqMzFJVzVTelowYXNxUTUwZU9jM24rYWJyY1pjbEsvSTNuZnYwZmtsdlNXVndJRUNCd3BJSEUva3NnS0JBZ2tnU2lSNmJQTU9ZUE1lbnRqUm8rY0VwOW9kd2tYRyt0OTJQdzU1MElreW1vaTJTOXR5YjJIb0pSeW1lU1lacHBKdjNkOWplUmR5VXhYTGVzUklCQUNFbmZuQVFFQ25RVDZsc2lVY0ROcTZ1QnROOTJlVmVKVDRoU1FxUy9wdGVZYTkraER1akRxV202U3ltVkt1d0NKYnc3NjNLeXFaQ2FkeVY0SkVPZ2lJSEh2b21RZEFnUjZsOGpNZlROcUNsMGtlam1qMDVGSVJqSlc4aEpKYjA2ZmNwTDhLZnZkNXliVk80K2RtTEtKUng0clloRmxWVjB2UU5JT2xjd2tDYThFQ0hRUmVGdVhsYXhEZ01DeUJlTHBxSDJXcUYyT09kTkxXT0tteHB3eW1XaHpsQWE5OXVhckpUUi9heHZpRzRTY0pXNHFMclUvdVRlZHhwU0twWlhNNU1SaWM5MDQxNzc3cTY5dXZ1MTNBZ1FJWENNZ2NiK0d3eThFQ0d3SzlDMlJpZjE4K0wyZjZqUlgrdVl4Uy9qOXZuZDlzTnEySCtRWG83c0gvYTJtOTF2cFJ6S1AvcVRuQmNTM0R4WUNCQWdjSktCVTVpQVo3eE1nc0Nldy83Q1lOaEkrSVNWUXFrQWs3eDdNVkdwMHRJdEFPUUlTOTNKaW9TVUVpaFBJbllXbHVBNW9FSUdLQktLVXE1VFNzb3JZTkpYQW9nUWs3b3NLdDg0UzZDNFFOM1B1enpOdHRMMjdtalVKOUJlSVVYZHp1L2Yzc3lXQkpRaEkzSmNRWlgwazBFT2c3NXp0UFE1bEV3SUUxZ1I4OXRZdy9FaUF3RFVDRXZkck9QeENnRUFJeEdoN3pFRFMyazJBb2t1Z2RJSDR6TVZucjZTbnc1WnVwbjBFbGlRZ2NWOVN0UFdWUUVlQmVKcWpwTDBqbHRVSURDd1FuNzI0VWRWQ2dBQ0JUUUdKKzZhSTN3a3NYQ0JHK25Mbk8xODRtZTRUR0Z3Z1BvTkczUWRudFVNQzFRdEkzS3NQb1E0UUdGYkE5SS9EZXRvYmdUNENSdDM3cU5tR1FQc0NFdmYyWTZ5SEJEb0xHRzN2VEdWRkFxTUx4S2g3VE1scUlVQ0FRQkx3NU5RazRaVUFnVlh1YUhzODdmSEN4WmVMbFl2RXAydXRmdWw5T1FpNTFUN205aXQ4U2o0WFUveHkraFhuN3RrLy92cnlrMmNmVDV0N0pVQmc0UUlTOTRXZkFMcFBJQW4wR1cxLy92d3pxNS84OXR1ck45NjZtSFpUekd2TWpQT2RqLyt5YzN1ZWZ2R0pWVzBKVXZReGJpVHV1a1JpKzVXZmY3cnI2ck91bDF2Zi9kanBMNjVlK05OenM3YjVxSU5IdkhLbmVveEVQMGJkYXpzM2o3THdkd0lFK2drb2xlbm5aaXNDelFuMEdXMC9jK0Ywa1VsN0JPZk9ZeWV5WW5UKzlaZXkxaTlsNWIvODlRK2RteExyUnZKWXcvTEtwWE5YenExTGw3dTI5ZVJkRDNSZGRiYjE0Z0ozL3pQVHZWOHg2bjdQSFNkbmE3TURFeUJRbG9ERXZheDRhQTJCV1FUNmpyYVhQTUtaazhoRmdoaUpZbzNMTzk3KzdzN056bG0zODA1SFhERyswZW15UkhKYlM5L2lNeFBmN3VRc01lcWUrdzFFenY2dFM0QkFQUUlTOTNwaXBhVUVSaFBJblRNNkV0MG9rU2w1aVVTdWEzMTcxd1N4eFA3bWpyaVgySWR0YllyUjZkZmVmSFhibnc1OHI1Yms5dGx6VDJWOW14RG5jZTVuOUVBa2Z5QkFvR29CaVh2VjRkTjRBcnNMUk9sRXpnMXpjY1RTRTkzY2NwQklFRXVzMDk4OXV0ZnVJUzVtYXVwbmxDOTFMWmVKYy9qNHJYZGYyK0ZDZjRzWUdIVXZORGlhUmFCd0FZbDc0UUhTUEFKakMrVGVMSmRHMjB0TkFDTnBqL3IyU09TNkxOR2ZXdXZibzM4NUpTSTExYmluMkhXZEtTWkdwVys3NmZhMFdmR3Z1YVB1MGFHYzhxL2lBVFNRQUlGZUFoTDNYbXcySXRDT3dQM0hIK3hjVWhLOUxuMjBQUzRvY2hLY1NBeHJyVytQZU9TVXl1UWsrYkh2dVplb0IyKzVmem1qN25GaEVwOVZDd0VDeXhhUXVDODcvbnEvY0lIY211RFNSOXRUT0hQcTIzTVN3N1QvVWw3aklpVW5HYSt4cnpFTFM4NlNXeWFWcys4aDE0M1k1WlFDcFdON0lGT1M4RXBnbVFJUzkyWEdYYThKN0Fua1RnSFp0V3hoVHQ1VXM5KzFEVFhYdDBkZmM1THhTUEpMTFhFNkxGNDVkZTVSSmxWTDhoN2ZLT1I4Z3hXajdxYUdQT3hNOFRjQzdRdEkzTnVQc1I0UzJDclFad3JJbjczd3ZlSVR2NXo1MjJ1dmI0L0E1bzY0MTVMVXJwKzBPUmVNVVNaVjA4Vko3amNLcG9aY1B6UDhUR0I1QWhMMzVjVmNqd25zQ2VUVWdjY0c4ZWoxR21yQmMyWVdxYjIrUGVLU08rSWUyOVMweERuWHRZOHhJcDF6SVZPQ1EvVHZGNy8vVWVjSFRVV2JUUTFaUXVTMGdjQThBbStiNTdDT1NvREEzQUs1TjZYKzdzOW5xaGpKakZLQ1NPQzYrSFpOQ0x2c2E0NTFsbERqSG4zTW5jODl2bFdvWmRROTJwa3o2aDduZHRmU29Ubk9TY2NrUUdCY0FTUHU0L3JhTzRFaUJmcmNsQnJUMTdXMjFGemZIckZZU28xN3puU2RVVXFTVXk1Vndqa2RvKzY1eWJpYlZFdUluRFlRbUY1QTRqNjl1U01TbUYwZzk2djJuR25yNXV4Y0pMSmQ1MitQZHVZa2hIUDI2N0JqNTVTR3hEY01OZGE0NXlhMk9lVlNoOWxPOWJjWWRjLzVqTGxKZGFySU9BNkI4Z1FrN3VYRlJJc0lqQzRReVczWGNwSm96UDYwZFJkSGI5ZXVCemgxNHVIT3U4Z2Q0ZXk4NDRsWHpDbjN5VW55Sis3R2tZZkx1VUgxeUowVnVFTHVBNW4yUDhPM0ZOZ1RUU0pBWUV3QmlmdVl1dlpOb0VDQjNLL1lhN2twTlplNmhSdFRZNlEySnhuUFNmSnpQY2RjUC9yWnRlMDFqMGJuWHB6a1hLaU9HUi83SmtCZ09nR0orM1RXamtTZ0NJR2NtemVqd2JYY2xCcHR6ZWxiOUt2MlpTazE3aEdubkJzNFkvM2FTb0xpNGlUbm5LejVBaVhpWXlGQW9KK0F4TDJmbTYwSVZDdVFVd01lNVNRdDNwU2FnaGZKVXUxTDdvaDdiUW50ZW55NmxqZkZPVjdiRGFyUlQrVXk2OUgyTXdFQzJ3UWs3dHRVdkVlZ1VZSGMyV1J5djdxZmt5MFMwcHlMa2hadVRBM3ZyaVVrc1c1T2toL3JsN2JVZEQ3MnRjdDVrbW9jUTdsTVgybmJFYWhUUU9KZVo5eTBta0F2Z2R6WlpHb3FrOGtaWWUwNmN0c0xlY0tObGxMakhxUXhzMHpPVXR2TU10RzNpR2RPU1pCeW1ad3p3cm9FMmhDUXVMY1JSNzBnMEVsZ2Z5YUtiZzhucXExTUppZFJhK0hHMUFqNGttcmNJNm50K3UxQ3pRbHQ3dFNYT2Q4eWRmcEh3a29FQ0JRdElIRXZPandhUjJBNGdaYkxaRUxwdHB0dTc0elZOUUhzdk1NWlY4d3BmNGwrMTF6am52c0UxUm5Ec3RPaGM4dGxjai9iT3pYT3hnUUl6Q29nY1orVjM4RUpUQ2VRTXlJZHJhcXBUQ2JhR3dsc2pMVEd6MGN0dFQ4eGRiMS9PUmNoT1VuKytqRksrVG4zdm9RYUwxTGltNFhjQzVTVGR6MVFTb2kwZ3dDQmtRVWs3aU1EMnoyQlVnUnlwa3FNTnRjMG0weHVncGFiQUpZU3c4MTJMS25HUGZXOTYvMEp0YzRzRS8zTW1WMG1MbFpydnlCTHNmVktnTURSQWhMM280MnNRYUFKZ1p4YTJIam9VbTJkenVsZmJYMDdxTDFMcW5FUGc2ai9Yc0xNTXRIWG5IN0d1Wjk3OFJySHNCQWdVSitBeEwyK21Ha3hnV3lCM0JyWW5QS0w3TWFNc01FU1o1UkpqRG1qclRYWHVQZEpUSFBMdzVKcENhODVEMk9LOXBvV3NvU29hUU9COFFVazd1TWJPd0tCMlFWeUU1aVlraTdLTUdwWmN2clh5b3d5S1RZNUYxazVTWDdhZnltdjZYenMydDhvSWNtNVlibVVma1k3b3ErNTVWeTE5clVrZDIwaFVJT0F4TDJHS0dramdSMEZjdXJibzRZNGQ4N3NIWnRuODU0Q1M2dHhqLzdtM0xoWjg0Vkt6clNRNnR4N2ZvQnNScUJDQVlsN2hVSFRaQUs1QWpuMTN6bTF0Ym50R0d2OUdHM3NPcU5NYmduQ1dHMGVZcjlMcTNFUHM5eVI2Q0djNTlwSHptZFJuZnRjVVhKY0F0TUtTTnluOVhZMEFwTUx0RjdmSHFDNUk2dXA3R0x5WUl4d3dKeSsxMXpqM3BldVQyMTgzMk1OdVYyY283a1htVG4zZWd6WlZ2c2lRR0E2QVluN2ROYU9SS0FLZ2RycTIzTlJXeHV4N1ZyekhVNDVTWDZ1NjVUcjUwd0pPV1c3aGo1VzdybWFjNi9IMEcyMVB3SUVwaEdRdUUvajdDZ0VaaE40Nk41SFpqdjJGQWV1ZFVSMUNKdWwxYmduczV3U2twcEhvWFBxM01QR0RhcnBEUEZLb0YwQmlYdTdzZFV6QWxjRnV0Wi8xM3BqYXRjYS9xNGp0VmZoQ3Y5aGlUWHV1VGRPTDJVVU9qN2o5eDkvc1BBelZ2TUlFTmhWUU9LK3E2RHRDUlF1MERXcGpXNDhmLzZad250emZmTnFIbEc5dmpmNTcrU1V2eXl4eGoxZnRLd3RjaitUUy80R3FxeklhUTJCY1FRazd1TzQyaXVCSWdSeS95T2VNOVZlRVIzTWJFUnJjN2hIOTVkVzR4N2xRVGw5emp4RmlsbzkrcHI3bVZ6NmhXeFJBZFFZQWlNSVNOeEhRTFZMQXFVSTVENU5NVzZHaTJTaHBtVXBwUkRiWXJMRUd2ZTRHTzJhekViNVNEekRvT2JGRGFvMVIwL2JDUXd2SUhFZjN0UWVDUkFvVktDMWtkb2wxcmpYZG1HNTYwY2h0NmJmRGFxN2l0dWVRTmtDRXZleTQ2TjFCSFlTeVBtUGVLMDNwdWIwTVVacVcwdjhsbGpqbmpzS3ZkT0hxSUNOVzd1cHVnQlNUU0JRcllERXZkclFhVGlCb3dVaXFlczZvOHpSZXl0empadys1aVQ1WmZiMitsYmxmSXVRaytSZmY2UjYzOG05MTZPMG5uYWQvdExNTXFWRlRuc0lEQzhnY1IvZTFCNEpGQ1BRK293eXVkQmRhNk56OXp2WCtrdXNjVS9XU3hxRnpyazRTejVlQ1JCb1UwRGkzbVpjOVlyQWxaSDJXeWhzQ0xSV1lySEVHdmVOa0RiL2ExeWM1VjV3K3V3M2Yxcm80SUlGSk80TERyNnVFMWdYcUxIK1c0S3lXdVdVdjhUSTdkTE00bHVucFUyUnVMVCtydjg3NW1jQ3JRdEkzRnVQc1A0dFZpRDNQOTZ0alVZdkpmQTVaUlE1U1g3SmZya3pyWlRjbHk1dHkvMXNMbm1LMUM2ZTFpRlFzNERFdmVib2FUdUJRd1Q4eC90YW5CWnJvcGRjNDk3MWhzMXJ6NEk2Zjh1OVVNbE45T3RVMFdvQ3l4U1F1Qzh6N25wTjREcUIzT1RndWgxNFkzSUJOZTZUazg5MndKd0x6NU4zUFRCYk94MllBSUZ4QlNUdTQvcmFPNEhaQkhLbVBzeEpDbWJyMEpZRFJ6bFF6c3c1VzNaUi9WczU1UzlMckhHUEFQdjJxZnJUWEFjSUVQaWJnTVRkcVVDQUFJR0tCWlpZNDE1eHVDWnBlczdGM0NRTmNoQUNCQVlUa0xnUFJtbEhCTW9TOEIvdjYrUFJXam5Ra212Y2N5NVlyajhUNm51bmEwMS82dzljcXk5eVdreGdXQUdKKzdDZTlrYWdTb0d1U1VHVm5mdGJvMXZzNDFKcjNPT0NKV2ZKS1J2TDJlK1U2K1pjcUN5OWZHekt1RGdXZ2FrRkpPNVRpenNlZ1lrRTRqL2VYVWZmY3BLQ2lacnZNQjBGY3I1WmlUaTNNSTk3OUNIbm9VUTU2M1prdHhvQkFnUm1FYmhobHFNNktJR0pCYzcrOGRlWHYvTHpUMDk4MUhrUDkrTi8rNy9PaWZ1OExYVjBBZ1NHRklpYnpULzUvWDhjY3BmRjcrc1gvM0ZlUGxOOGxEUndDQUVqN2tNbzJnY0JBZ1FJRUNCQWdBQ0JrUVVrN2lNRDJ6MEJBZ1FJRUNCQWdBQ0JJUVFrN2tNbzJnY0JBZ1FJRUNCQWdBQ0JrUVVrN2lNRDJ6MEJBZ1FJRUpoYW9JV2JrS2MyY3p3Q05RaEkzR3VJa2pZU0lFQ0FBQUVDQkFnc1hrRGl2dmhUQUFBQkFnUUl0Q2hnMUwzRnFPclQwZ1VrN2tzL0EvU2ZBQUVDQkpvVXlIMVFWWk1JT2tXZ01RR0plMk1CMVIwQ0JBZ1FJQ0JwZHc0UWFGTkE0dDVtWFBXS0FBRUNCQWdRSUVDZ01RR0plMk1CMVIwQ0JBZ1FJRUNBQUlFMkJkN1dacmYwaWdDQkhJR3pmL3oxNWIvODlRK3IxOTU4TldlejJkZTk3YWJiVi9jZmYzQjE4NDNIam56Y2VUd0cvdm56ejFUWHg2T1FQL3ErejNicWYreW4xamh2R2tUYzMvSDJkNi91ZTljSE84WDl3c1dYVjcvNzg1bk4zVlR6ZTA1L3ErbVVoaElnMEV0QTR0Nkx6VVlFMmhLSXBQMG52LzMycXJhNjJIdmYrWUc5eEwxTE5DSjVxN0dQaC9VdFpnMkpwQzVuYWNYZzh4LzZXdWR1eC9uOTVObkhPNjlmMm9vUjUwKzgvd3VsTlV0N0NCQ1lRVUNwekF6b0RrbGdDb0VZWFk1UjVpN0hpbEZyUzUwQ01mTGNkWWtFdG9VbEV0bWNiNGR5MW0zQlJ4OElFR2hYUU9MZWJtejFqQUNCTllHN2JublA2czVqSjliZWFlUEhuR1E4a3Z6YXZsVTVLRW81M3pUa3JIdlE4ZVordit2RmRWeXN4N2RMRmdJRTJoU1F1TGNaVjcwaXNGY0RqS0Z0Z1VqQ2MwZmNXM2tvVDA2L2x6Ymlubk14MS9ZblJPOEl0Q2NnY1c4dnBucEVZRStnNXB2eHVvYndsVXZuVmtzZVhZd2tQQ2RKeTBsMnU4YkFldVVKaUhONU1kRWlBa01KU055SGtyUWZBaFVMeEt3c0xaYVJWQnlTemszUFNkSnlrdnpPRGFoZ3hmT3Z2MVJCS3c5dllwZVprOUllbG5EUm52cnFsY0RTQkNUdVM0dTQvaEk0UUNCR3IydGNvblo5eVV0T01oNUpmaXMxN2t1S3VZdnFKVVZiWHdrY0xpQnhQOXpIWHdsVUsvRHN1YWV5Mm43cXhNTlo2NWV5Y3RkU21ad1J5MUw2ZGxRN2xscmpIb25zMGkvWURqczNXdmlHNGJEKytSdUJKUXRJM0pjY2ZYMG5VTG5BMGtlUDFiaFhmZ0ozYlA3eFcrL3V1T2IrYXJWK2U1YlZTU3NUV0tpQXhIMmhnZGR0QXBzQ01XVmVLek9PYlBhdDVkL1Z1QjhlM2ZoR3B1WkUxbWZ5OFBqNks0R2xDVWpjbHhaeC9WMk1RTzVvZEU0Q1dDdGk3c2hsRGYxVTQxNURsSFpyWSs0ODlMbWYvZDFhWjJzQ0JLWVVrTGhQcWUxWUJDWVdpTkhHcms5UHJiVm1PQ2R4elUyQUpnNVg5dUdXV3VNZVVDM2VzM0RRQ1pCelVkMzFubytEanVWOUFnVEtGcEM0bHgwZnJTT3drMEJPVXJ2VGdXYmNPQjZ1MC9YaUpOWnRxZlJBalh1M0U2LzJFZWl1RjlWZFB3ZmQxS3hGZ0VDSkFoTDNFcU9pVFFRR0VzaDVZbVN0YzdubmpLTGZjOGZKZ1dUTDJVM09hR3dyRjNJdGxqd2RkRWJGRERvNTN5Nll3LzBnU2U4VGFFTkE0dDVHSFBXQ3dGYUIzR25oYWt5SWNpNU90aUpWL21aT01oNUpmdTJqenhHdW5JdTFISi9LVHdYTkowQmdBUUlTOXdVRVdSZVhLNUE3bTBZa1JMV1ZrdVJlbkxSME5peXh4ajNPejY0WGExRTYwblhkRXMrTDZHdnV4WFR1OHh0SzdMYzJFU0J3c0lERS9XQWJmeUZRdlVEdTZHcE8yVVdOT0ZFcjNOSlRLSmRhNDU1VDhwUXpPbC9pT1ozYi90elBmSWw5MWlZQ0JBNFdrTGdmYk9NdkJKb1F5Smxsb3V0TmNDWEJ4TGNLT1gwc3FlMUR0Q1huWW11SlpTTm5McHdlZ25tMmZkeC8vTUhPeDE3eTU2QXpraFVKVkM0Z2NhODhnSnBQNENpQlNOYTZ6alpSNncycVJ4bWt2K2ZjNUplMktmMDFKeGx2b2NZOXZqR3A4UUt6NzNuVTlaenQraG52Mnc3YkVTQlFob0RFdll3NGFBV0IwUVJ5YTN4emEycEhhM2pISFMrNU5HQ0pOZTRkVDR1OTFXSUVPdmMrajV6OWo3bHVsRUhsbG5XWlVXYk1pTmczZ1RJRUpPNWx4RUVyQ0l3bWtIdXpXbzAzcU9iZ25ienJnWnpWaTE1M3FUWHVYVWVoaXc1ZWg4YmxYa1RuZnRZN05NRXFCQWdVSmlCeEx5d2dta05nYUlIY0VlbWNtdHFoMjlwM2Z6bmxRUEVOUkNTOHJTeHEzQStQWk83NWYvamVwdjFyemsyNDA3Yk0wUWdRbUV0QTRqNlh2T01TbUZBZ1NnYTYxc0RXT0pxWlV3N1VXakswcEJyM3VPQnE2UnVUby80SnlLbmwzLytNWHp4cWwvNU9nRURsQWhMM3lnT28rUVM2Q09UV3ZwNDY4WENYM1JhenpsTG5jbDlhalh2TzZIbGNxT1pjMUJSek1sQ016ZklBQUNzSFNVUkJWUCt0SVRsUFRJMis1bjdHUyt1djloQWcwRTFBNHQ3TnlWb0VxaGJJVFd4YnJuTnZhUzczcGRXNFIzOXpTb055dm9rcDZRUGU1NXVGM005NFNmM1ZGZ0lFdWd0STNMdGJXWk5BdFFJdi9PbTVyTGJYVnVlZU01ZDdqYVZBaHdVdko1R3RlUVE2R2VTVWo5U2N6T2JFTld4eVArUEoweXNCQW5VSlNOenJpcGZXRXVndGtGdm5uanNWWGUrR0RiQmhUZ2xGSEM1M3RvNEJtamphTG5LUzhVZ0djNjFHYTNpUEhlZWVrN1ZPQlJrMDk3M3JnemQwSllyUHRvVUFnV1VJU055WEVXZTlKTERLcllHTjVEYStzbTl4eVgyTWZLa0dTNnR4anpoMC9jYWsxbVEyUG5NNTk1aW9ieS8xMDZsZEJNWVJrTGlQNDJxdkJJb1R5QzBicUczMmxiZ3c2VHB6VG93OHQzQlJFbjNJSFhFdjdzVE1hRkR1TnlXMWZydVErOW5ML1d4bmtGdVZBSUhDQkNUdWhRVkVjd2lNSlJBMXNEbWprRGxmMVkvVlp2czlXaUNuRmpvbnlULzZ5Tk91RVJjcE9kK1UxTnpYbkRyK2lJTDY5bW5QUlVjak1LZUF4SDFPZmNjbU1MRkFKRE5kUjZXamFmR1ZmUzBqMHptamppM05MSk9Ub05aZTQ5NzFJaVhPOFZwbmxObi96QjNyVk44ZS9YeisvRE1UL3l2aWNBUUl6Q2tnY1o5VDM3RUpUQ3h3NXNMcHJDUG1mbVdmdGZPQlYxN2l6REpMcW5HUEcxTnpScUp6THVRR1BoVjc3eTR1a25NL2M3bWY2ZDZOc3lFQkFrVUlTTnlMQ0lOR0VKaEdJUGNyOVpyS1pYTHJtWFBycGFlSlVONVJsbGJqM3ZYRzFGQ3NkVWFaM005YzdtYzY3d3l6TmdFQ3BRbEkzRXVMaVBZUUdGa2d2bHJQS1pmNXhQdS9VRTI1VEU3WlNDc1BtZXBhUGhLblZZN1B5S2RoOXU1ekxyUnk3dVhJYnNoSUc4UkZXTzVzTWpYMmN5USt1eVd3R0FHSisySkNyYU1FOWdWeXYxclBTUXpuTm82NjVxNFhKVFgxNnpEWG5HUTgrcHo3emNSaHg1N3liemszcGthN2F1eG5icG5NejE3NDNwUWhjQ3dDQkFvUWtMZ1hFQVJOSURDbFFPNVg2L0hWZmU2RGI2YnN6L3F4Y3VxYVc3aEJkU2sxN2pFYTNmVkNLeTdjY3A5WnNINE96ZlZ6Zk1hVXljeWw3N2dFNmhHUXVOY1RLeTBsTUpoQWJybk15YnNlcUtKY0pxZXVPYWRlZWpENGdYZTBsQnIzMW05TWpUam1sQUxGeFlreW1ZRS9USFpIb0JJQmlYc2xnZEpNQWtNSzVKYkwzSC84d1NFUFA5cStZZ1E2SjZISlNaWkdhL1NPTys0NkVoMkh5U21yMmJGWmcyL2U5VUlySi82RE4zS0hIWDcwZlovTjJscVpUQmFYbFFrMEl5QnhieWFVT2tLZ3UwQ1V5K1FrT0pFMDFUS25lMDV5MnNJTnFqbjlyYlhHUGZjQ0srZWJsKzZmbXZIV3pKbTdQYlVpdCtRdGJlZVZBSUc2QlNUdWRjZFA2d24wRm9nNjRLNDNjc1pCY2tjRWV6ZHN4dzF6YjFDdHBYNS9HOHNTYXR5ampDVG54dFM0a0tucHh0VG9YODVOcWZHWmZmckZKN2FkRHQ0alFHQUJBaEwzQlFSWkZ3bHNFM2oyM0ZQYjNqN3d2UmgxcnlISnpibEJOZmRtd0FOeFp2ckRFbXJjNDV6cldnNFVTVzF0VDB5Ti91V2Voem5uK0V5bnBzTVNJRENTZ01SOUpGaTdKVkM2UUtvSHp4bDFmK2plUjRxL1NUWG5DYW9Sbzl3eWpOTGkyaldwalhibmxOV1UxTStjeExhbXBEWXV2T0l6bGJORWlac3ltUnd4NnhKb1MwRGkzbFk4OVlaQWxrRHVEVzZSUUpVKzZwNWJKbEY3blh0T01sNWpqWHZPaFZVa3RUWFZ0K2VPdHNkRmRvMVRYV2I5bzJSbEFnUU9GWkM0SDhyamp3VGFGc2k5U1RVMGFwZ2FNcWQrUDVMWjBpOUdEam9MVzY5eHo2MXZENmZjQzdlRGJNZCtQL29XbjZYYzVjbXpqK2R1WW4wQ0JCb1NrTGczRkV4ZElkQkhJQ2ZKamYxLytMMmZLbjdVUGFkY0lxY01vNC92bU51MFh1TWVGMVJkUzRGaU5Ecm4yNGN4NDlKbDM5RzMrQ3gxV1RmV2lmNjVLYldybHZVSXRDc2djVzgzdG5wR29KTkFueEc4MGtmZGwxVG4zald4alpPaHBzUTJuYnc1RjFhNXp5ZEl4NWpqdGM5b2UrNE41WFAweXpFSkVCaFhRT0krcnErOUU2aENJRWJ5Y201U0xYM1VQYmRjb3VZNjk1eGt2TFlhOTFicjIrOTk1d2RXT1E4MWk4L20vdE9PTDFieDc0bEdFaUF3bm9ERWZUeGJleVpRalVDZmtielNSOTF6U29BaWlhcXh6cjNsR3Zjb0E4cVozencrYkxrWGJITjhRRk50ZTljbndhWTIvdVMzMzA0L2VpVkFZTUVDRXZjRkIxL1hDU1NCU0hqMlIvUXVYVTd2SGZWYStxaDdUcDE3YmhKMWxNMVVmMis1eGowdXBPNjY1VDJkS0dORXVwYlpWdnJVdGh0dDczUWFXSW5BSWdRazdvc0lzMDRTT0ZxZ3o0aGV5Zk82NTlhNTk2azVQbHAxL0RWYXJuSFB1YURLdVZBYlB5cmJqNUJHMjdmLzllQjNhNnJkUDdnWC9rS0F3QkFDbmU5b0grSmc5a0ZnTG9HemYvejE1YS84L05OekhiNmE0MzcrUTEvYnE3M05TWmlxNlp5R0VxaFF3TDlkM1lMMmkvODRMNS9wUm1XdHlnV011RmNlUU0wbk1LUkFuMUgzSVk5dlh3UUkvRjBnU29CeUg1TDI5NjM5UklCQWl3SVM5eGFqcWs4RWVncjBxWFh2ZVNpYkVTQndpRUNhU1NZZWttWWhRSUJBRXBDNEp3bXZCQWpzQ1JoMWR5SVFLRVBBWjdHTU9HZ0ZnWklFSk80bFJVTmJDQlFnWU5TOWdDQm93cUlGMG1oN0RkTmJManBRT2s5Z0JnR0ord3pvRGttZ2RJSHYvdXFycFRkUit3ZzBMV0MwdmVudzZoeUIzZ0lTOTk1ME5pVFF0a0R1MDFUYjF0QTdBdE1JeEdqNy9tZlBVMUtuRVhjVUFuVUpTTnpyaXBmV0VwaE00TW16ajY4dVhIeDVzdU01RUFFQ3E3M1BYSHoyTEFRSUVOZ21JSEhmcHVJOUFnVDJCR0lxdWhnQnhFR0F3UGdDOFZtcjVRbXc0MnM0QWdFQzJ3UWs3dHRVdkVlQXdKNUFURVVYbys2U2R5Y0VnZkVGNHJObXRIMThaMGNnVUxPQXhMM202R2s3Z1FrRXZ2bnNveE1jeFNFSUxGc2dMbzU5MXBaOUR1ZzlnUzRDYit1eWtuVUlFRml1UUV4SmwyNVV2Zm5HWTFtUEZmL0JiNzV4dVpRUnhIdmYrWUhWb3c5OGE5VzFEeVcxL2JDejc3Lys1YjlYOTczcmc1M2k4b3ZmLytoeXpGWlM0alNERVordmYrU0huZm9SU1c2Y2s2V2NXK3Z4eWVsSDJpNzFwOFM0cERaNkpVQ2dEQUVqN21YRVFTc0lGQzBRQ1ZLZkcxVS8rcjdQcmlLUktXRjU1ZEs1ckQ3Y2M4ZkpZdHAra04vTk45Nnkrc3RmLzNEUW42OTcveDF2Zi9kMTc1WHdSdlRqNUYwUFpEWGwvT3N2WmEwL3hjclJqN2c0ekYyVXlPU0tXWi9BY2dVazdzdU52WjRUeUJLSXIvRnphOTFqZFB1aGV4KzVNc3A5UzlheHhsZzVSak56a3R5dW85aGp0RFZubnpuSmVFNy9jOXF3NjdwM0hqdXh1di80ZzUxM0U0bHUzSDlSMGhMbitKZE9QZGI1RzUzVTl2aE14VTNnRmdJRUNIUVJrTGgzVWJJT0FRSjc1UlhQbjM4bU8zbVBCUGdUNy85Q0VjbjdtUXVuczlvZm84QWxYSFFjZHZybEpPT1I1SmRZam5IODFyczdKN3lSNkpZMjgwcWNJNmRPUE55NVpDbkZNNVhJbEhZUmt0cm5sUUNCOGdRazd1WEZSSXNJRkNzUVQxVHRVekx6NGZkKzZvWkliT1plMGl3NVhkc1JvOEF4R2x6cUVrbDQ3b2g3YVJjaTBaNG9TOHBabmozM1ZNN3FvNjhiNThobi91bkxuZXJ6MXh1alJHWmR3ODhFQ0hRUmtMaDNVYklPQVFKWEJmcVV6TVRHcGRTN3gyaHQxNUtmS1BXSjBlQlNsMGg2YzBmY1MrdExKTDA1WlVuNzMvcVU4MVRSZE5OenJtdWNnL0ZaS3UxQ0tyY2YxaWRBWUZvQmlmdTAzbzVHb0hxQkdPVk5zOHprZENhUzRQMVpYZWF0ZDg4ZHJZM1I0SktUcTl3Ujk1eVlUYkZ1emsycGtleSs5dWFyVXpTcjB6SGl2TmkvaHlOdnRxVlVJaE9mcFJKTGx6cDEza29FQ013aUlIR2ZoZDFCQ2RRdEVMUE05S2wzaitROWJ1Q2JjNmFaU0pTaTdWMlhHQTB1dVZ3bWQ4UzlwRVF4em9PY0M0K1NTa3NpYVk5ek9lZmJnblRPbGRTUDFDYXZCQWpVSVNCeHJ5Tk9Xa21nT0lHWUQ3eFB2WHNrT25QZjlCbWp0bDNMWlFLK2xKbHhOaytDU01KekV0OUk4a3Y2OWlES2tISVMzNXlMbEUycklYOFB3N2poT3FmdDZmaXBSQ2I5N3BVQUFRSTVBaEwzSEMzckVpQndWU0NTeHBqR0xpY0JUaHZIemFwenpqU1RPeS85WGJlOHA4aWJWQ09CekVsbWM1TDhGS3V4WHFQdE9UZWx4bmtXc3dLVnNNU04xbkVPNTdZbCt2RFk2UzhxajhtRnN6NEJBbGNGSk81WEtmeEFnRUN1UU16UzBxZmVQWTR6OTB3emtmQjJ2ZWdvK1NiVm5HUThKOG5QUFJkeTE4K2RQakhLbTBxWU52Rmo5MzJ1MXd3eWNhN0ZaNldFUHVUR3l2b0VDSlFqSUhFdkp4WmFRcUJLZ2I3MTd0SFptRUl2RXFFNWxpajF5VmxLbVJWbnM4MDV5WGdrK1NYVXVNZG8rMjAzM2I3WmxRTi9qNlMzaEp0U2QwbmExYlVmR0Y1L0lFQWdRMERpbm9GbFZRSUV0Z3YwclhlUHZjMlZ2RWNDbTNPVGFvbWo3clhXdU1mTnZqbWxKaVVrdlhFamJWeTg5Vm1pL1RIMW80VUFBUUs3Q2tqY2R4VzBQUUVDZTZPNGZlZDNENzY1UnJOem42UmEydFNRTmRhNFI1dHpwNENjKzBtcGFhNzJ1SGpML2JqSHR3WDduNDF5NXA3UDdZUDFDUkFvUjBEaVhrNHN0SVJBMVFJeCtydC80OTJseTdrZGlZUW81bmlmZXBySTNDZXB4aXdpSlR3QmR0MjN0aHIzR0cyUEo5TG1MTGx6Nytmcys2aDFkMDNhM1l4NmxMQy9FeUNRSXlCeHo5R3lMZ0VDaHdyc2NyUHFYTWw3N3N3NHBZMjYxMWJqdmo4VmFQZVI2LzNuQmN3eldyMXIwdTVtMUVQL3VmQkhBZ1I2Q0VqY2U2RFpoQUNCZ3dYaVp0VytNODJrNUgzS0cxWmZ1WFF1YXo3NmtrYmRhNnR4ajBRNFo3UTl5a3ptbWdKeTE2UTlMamppczJBaFFJREFrQUlTOXlFMTdZc0FnVDJCWFdhYWllUjl5aHRXSS9tTkd1cElFcnVHcjVSUjk5cHEzT09CU3hIZnJzNXpUUUc1YTlJZU42Tis5MWRmN2RwTjZ4RWdRS0N6Z01TOU01VVZDUkRJRVlqRUpSS1luSVI0ZmY5VEp1OVJReDF0N2JyRXFIdlVhcGV3MUZMakhzbHd6cXdzYzQyMng3YzlYLy9JRDIvSXVjQllQdy9pUFByS3p6KzkvcGFmQ1JBZ01KaUF4SDB3U2pzaVFHQlRJQktZbklSNGMvdXBrdmNZZGMrcEZZOTJQblR2STFkR2oyL1piUExrditlMGU4NTUzSE5IMitPOG1mcGhSWDNuYVU5QlAvdkhYKy9OSUpOKzkwcUFBSUdoQlNUdVE0dmFId0VDMXdqRVZIaVIwRnp6WnNZdmtieC8va05mR3oxSmpscnFuSGFXVU90ZVM0MTduOUgydUdsNHFpVXV3T0ljaTNPdDd6RlQwaDR4c1JBZ1FHQXNBWW43V0xMMlM0REFua0FrTXJzbTcvR3duaStkZW16VTVEMUdkM05HcjZOemM5ZTYxMUxqWHZKb2V4aCs0djFmeUhvZzFPWkhXOUsrS2VKM0FnVEdFcEM0anlWcnZ3UUlYQlVZSW5tUEVlN3ZmUHlYbzg3MVh1T29lK2sxN2lXUHRrZmI0b0l3NXltdVYwL3F2LzBnYWQ4VThUc0JBbU1LU056SDFMVnZBZ1N1Q2d5UnZLZnBJaVBoR21PcGNkUTk1MXVDcVd2Y1l6UTdkOTcycVdyYjR4eUtoMzdGQldIZmMwblMzbGZPZGdRSTlCV1F1UGVWc3gwQkF0a0NReVh2TWV0SDNFZ1lpZUhRUzAyajd1R1pPK0kraHRsQk1jaDlTbXJNSkRORmJmdXVNOGRFZnlYdEIwWGQrd1FJakNrZ2NSOVQxNzRKRUxoT1lJamtQWFlhTnhLT1VmZmVaOVE5cGprYzYxdUE2d0RYM29na1BIZkVmVzN6VVgrTXR1M1B2Tk45M3ZheFI5dWpUYnZlaEJwb2t2WlJUeDA3SjBEZ0VBR0oreUU0L2tTQXdEZ0M2OGw3MzNuZW8yVmoxYjNuanJwSENVL2NnRG5Ia2p2aVBsVWJZN1E5cHd4bDdOSDJ1TENLZXlSMnFXY1BPMG43VkdlUTR4QWdzRTFBNHI1TnhYc0VDSXd1RU1sN3pQTWVUOGZjSlhtUHBEbEtaMklrZGFpbHBsSDMzQkgzY0I5N1NhUHRPY2NaYzdSOWlOS1lPRWQvOGZzZjdjM1RQb1ZoanAxMUNSQllqb0RFZlRteDFsTUNSUXJFRTFaM1RkNmpZekdTK2wvLzh0K0RsYXo4NUxmZnpwclhQUzRnOW0vRUhMN3UvcURBUlFLWk8rSWVTZlhZeTZrVER4Y3gyaDZqN0hGTzdESS9lMWhGMGg3bmFKeXJrdmF4eng3N0owRGdNQUdKKzJFNi9rYUF3Q1FDa1JBOS9lSVRPNDI4UjBPak5DTm1DaG5peHRWSTBINzM1ek5aYllxTGgwaGFwMW9pQ2M4ZGNSKzdiWkVzUjgxL3poSkpjWHpMTWVRUzU4Q3VzOFpFZXlKcGozTXp6bEVMQVFJRTVoWjQyOXdOY0h3Q0JBaUV3Sk5uSDErZGYvMmx2VVFwUnEvN3FxUnRveFk1WmlqWkpTRjg5dHhUZXc5WnltbExQSlFwdHB0cVpEWjN4RDJuTDMzV3paMytNUkxqeDA1L3NjK2h0bTRURnc1eFUyeGN4SDFtOWVXdDYzUjlNeVh0Y1c1YUNCQWdVSUtBRWZjU29xQU5CQWpzQ1VTUy9lOC8vZWVzRXBXRDZDSngyM1hheUVpK0kvbVBCTzZnNDJ5K0g4ZWRjdFE5ZDhSOXpBdUtTSnJ2UC83Z0pzbWh2dzg1Mmo3VUtIczBPQzc4NG9KQzBuNW8rUHlSQUlHSkJTVHVFNE03SEFFQ2h3dEVZdm5OWng5ZHhZMkFPUW56UVh1Tit1WmRucmdhRnhPUlhPWXNVMDBQR1ZhNUkrNWoxYmlua2U3MGpVY1hyMGlPNDE2Q1haYzQ5by8vN2YvMmF0bHpqbi9RY2RQTU1idDhXM1BRdnIxUGdBQ0JYUVNVeXV5aVoxc0NCRVlSaUlRMGFvcGZlL1BWblV0bm9vRXBtVXNKV2U2b2Mwd1BHUmNSYVQ5SGRUcldpMk85Y3VuY3FDVXpKZFc0eDNTWThXM0RVVGJwNzZrTUpUY1dhZnQ0VFJjTGU5K3VySDY0L3FkZVAwZWI0aUl0Wmp1eUVDQkFvRVFCaVh1SlVkRW1BZ1QyQklhcWUwK2NLYkdNMGZ3WTZlMmFOUFlaZFk5ai9lQTMzN2c4ZHFsRjdvaDdzaGp5TlJMbytKWWhwNlk4cG4vc2F4TVhMSjk0L3hmMnluSzZYa3dkMWQ5STJxTTB4aWo3VVZMK1RvREFuQUlTOXpuMUhac0FnU01GSXBGS2RlOHA4VDV5b3lOV2lObGYwdWhxMXdRK1RRK1owNFpJWnVPRzJ6R1R3YmxyM0NPSnpuMUNha3FTandqVGRYK09ZOFg5QStFNlZNSWVCNGx2UitJYzYzb2hkMTNEdkVHQUFJR0pCTlM0VHdUdE1BUUk5QmVJaENyS0YySUVPNUsrL252Nis1YVIrRVVDSC9YdlhhYVBqRGJrVGc4Wnh4aHpidmRvVSs2SWV5Uy9ReTY1YzdiSHNmdmNrQm94aWxqRlBRdERKZTF4THNXM0wzRnVTZHFIUEN2c2l3Q0JzUVNNdUk4bGE3OEVDQXd1a0VwbllvUTBaK1Q3c0lha0pEQ1N1Sml2KzdDcEhPUDRNZDFqemhJWEIyT1Z6RVFTbmp2aW50UDJvOWJ0VXlJVHNZdVplcm9zbXlQc09hVTRSKzAvamZxUCtXM0lVVzN3ZHdJRUNPUUtTTnh6eGF4UGdNQ3NBcEZveGY5aXBEU21Ia3lKOTY2TlN2dUpoQzVHaEE4cW9VblRRNmIxdXh4M3pKS1ozQkgzTHUzdHNrNGsxWDFLWk9MaTZLaGtPZmE5WHNNK2RNSWU4VlVhMHlYSzFpRkFvRFFCaVh0cEVkRWVBZ1E2Q2NTc016SGJ5NUNqNzNIZzlZUThqUTZ2SjVyeGN5U2ZPVXZzTXk0MHhwaGxKbmZFZmFpU2tENGxNa2Zka0JvSis1ZE9QYmE2NjViM1hCT0hIT3ZEMWpYS2ZwaU92eEVnVUlPQXhMMkdLR2tqQVFKYkJTS0pqdjhOUGZxZURwYktjU0tCai9yMlZFWVRyN2tYREdPVXpQU3RjZDgxZVIreVJDYVM5VHVQblZnOStzQzM5cEwxSDY4K21QZ0hlMDNmb256eSsvODQyRDd0aUFBQkFuTUlTTnpuVUhkTUFnUUdGWWpSOXo2enZuUnRSRXJnVXdJWXh5cWhaQ2FTM3R3Ujk2NTlQbWk5T09ZUUpUS1IvTWVOdTZuYzZlc0R6TU8rcmMxeGdXV2F4MjB5M2lOQW9FWUJpWHVOVWRObUFnU3VFNGhSNUpnZDVELy81MTh2cDlIYjYxYmE4WTMxTXBvMzN2cGw5dXcyc1gwa2trT1d6RXhaNHg1SmU5U2Vwd3VacnB4UkloUGZVcVR0bzgzNys5ajlvVWtIdFNFdXNxS2t5Y09VRGhMeVBnRUNOUXBJM0d1TW1qWVRJSENnUUpUT3hJMkhZNVhQcEFPdkovSHB2UzZ2a2JCRzJ3NjYrYlhMUHRiWHlSMXgzNlZNSnVyYW8rUm4vZmhIL1J3SmRDVHVVYnNlZmYveDZuK1AybVNudjZkdlJkeDh1aE9qalFrUUtGVEFQTzZGQmthekNCRG9MeERKYVpUUFJQSVdJOXo5OXpUT2xwSDhSaEs4NnhMOXpCMXhqMUh2UGt1cWE4L2ROaTV3SW1IZkgySFAzYnI3K3BHd3A3S1lpUDB1RnlqZGoycE5BZ1FJVEN0Z3hIMWFiMGNqUUdCQ2dVamVVdmxNMUdXUE5WdEpueTROTVVWa0pPRzVJKzU5MmhySHlhMXI3M09jdnR1a2hEMitiYkVRSUVDZ1pRR0plOHZSMVRjQ0JQWUUwdXd6TVdvY1NkN1lvNzlkMkllcWQ4OGRjZS9TdHZWMVVsMTZDV2JyN1lxZlk1UTlianhWeDc0cDQzY0NCRm9Wa0xpM0dsbjlJa0RnT29HVXdJOTVBK3QxQnoza2pVaUdJL21NVmVLaFFLKzkrZXJxL09zdjdXM1JkZlE0ZDhTOWF3bEpKT3d4VFdQTS9KSmIxMzVJbHdmNVUxeDh4YXcrcG5jY2hOTk9DQkNvU0VEaVhsR3dOSlVBZ1dFRUlpbU9wQzhTK0xsTGFBNjd5VFdTK3JpeE01WkkwQ094anlVbDkvRnp6b2g3ckIvZk9xVGwrSzEzNy8xNDIwMjNYOTNQMzh1SnpsLzVXOXhJT3Q3TUw2a2RYVjZUUlNUc1J0aTdpRm1IQUlFV0JiSm1CMmdSUUorV0lSQWpkUDVqdjR4WTkrbmw1cHppZmZaaG0zRUUxaFAycnQ5Q2pOTVNleTFaNEJmL2NWNCtVM0tBdEcwd0FTUHVnMUhhRVFFQ3RRcWtFcHFZb3ZFSHYvbkc1Ymh4OUxDUjhGcjdXVk83STJHUGVkaE42MWhUMUxTVkFJR3hCVnloamkxcy8wVUlHSEV2SWd4Vk5TSkc0ZWN1bzZrS2JJREdHbDBmQUhHaHV6RGl2dERBTDdEYlJ0d1hHSFJkSmtEZ2FJRTBDaDgzYVJxRlA5cHJseldNcnUraVoxc0NCSllrWU1SOVNkRmVjRitOdUM4NCtBTjJQVTJOZVAveEI1WFM3T2dheVhyTXBIUG13dW1WMnZVZE1XMitNdUx1SkZpS2dNUjlLWkZlZUQ4bDdncy9BVWJvZnBUU3hLd3M2dUc3NFVhaUhtdEsxcnQ1V1N0UFFPS2U1Mlh0ZWdVazd2WEdUc3N6QkNUdUdWaFd6UmFJa2ZoVEp4NWUzWFBIeWFLZXpwcmRrWUUzU0RYcnYvdnptZFd6NTU2NjhzQ2tpd01md2U0STdBdEkzSjBKU3hHUXVDOGwwZ3Z2cDhSOTRTZkF4TjFQMDB2R0hPdC9ueGQ5NGtiTWNMajFSRDNtbW4vbDBqbkorZ3h4V09JaEplNUxqUG95K3l4eFgyYmNGOWRyaWZ2aVFsNU1oOU1UU0tPc0poNTAxRko5ZktwVFQwOThsYWdYYzlvdHJpRVM5OFdGZkxFZGxyZ3ZOdlRMNnJqRWZWbnhMcjIzMjVMNWFIT3BjOGV2MTZkTDBrcy91NWJaUG9uN011Tyt4RjVMM0pjWTlRWDJXZUsrd0tCWDJPWDFoRDZhSHlQMHFkd21maDhyc1UrSitZV0xMOGRoVmxHVEhvdHlsejBHLzFlQmdNUzlnaUJwNGlBQ0V2ZEJHTzJrZEFHSmUra1IwcjZ1QWltNVgxOC9sZUhFYVBoaFN5VGk2NHZTbG5VTlA5Y3NJSEd2T1hyYW5pUGdBVXc1V3RZbFFJREF6QUl4TThzTGJ6MTNUU3ZNZzM0TmgxOElFQ0RRck1BL05Oc3pIU05BZ0FBQkFnUUlFQ0RRa0lERXZhRmc2Z29CQWdRSUVDQkFnRUM3QWhMM2RtT3Jad1FJRUNCQWdBQUJBZzBKU053YkNxYXVFQ0JBZ0FBQkFnUUl0Q3NnY1c4M3RucEdnQUFCQWdRSUVDRFFrSURFdmFGZzZnb0JBZ1FJRUNCQWdFQzdBaEwzZG1Pclp3UUlFQ0JBZ0FBQkFnMEpTTndiQ3FhdUVDQkFnQUFCQWdRSXRDc2djVzgzdG5wR2dBQUJBZ1FJRUNEUWtJREV2YUZnNmdvQkFnUUlFQ0JBZ0VDN0FoTDNkbU9yWndRSUVDQkFnQUFCQWcwSlNOd2JDcWF1RUNCQWdBQUJBZ1FJdENzZ2NXODN0bnBHZ0FBQkFnUUlFQ0RRa0lERXZhRmc2Z29CQWdRSUVDQkFnRUM3QWhMM2RtT3Jad1FJRUNCQWdBQUJBZzBKU053YkNxYXVFQ0JBZ0FBQkFnUUl0Q3NnY1c4M3RucEdnQUFCQWdRSUVDRFFrSURFdmFGZzZnb0JBZ1FJRUNCQWdFQzdBaEwzZG1Pclp3UUlFQ0JBZ0FBQkFnMEpTTndiQ3FhdUVDQkFnQUFCQWdRSXRDc2djVzgzdG5wR2dBQUJBZ1FJRUNEUWtJREV2YUZnNmdvQkFnUUlFQ0JBZ0VDN0FoTDNkbU9yWndRSUVDQkFnQUFCQWcwSlNOd2JDcWF1RUNCQWdBQUJBZ1FJdENzZ2NXODN0bnBHZ0FBQkFnUUlFQ0RRa0lERXZhRmc2Z29CQWdRSUVDQkFnRUM3QWhMM2RtT3Jad1FJRUNCQWdBQUJBZzBKU053YkNxYXVFQ0JBZ0FBQkFnUUl0Q3NnY1c4M3RucEdnQUFCQWdRSUVDRFFrSURFdmFGZzZnb0JBZ1FJRUNCQWdFQzdBaEwzZG1Pclp3UUlFQ0JBZ0FBQkFnMEpTTndiQ3FhdUVDQkFnQUFCQWdRSXRDc2djVzgzdG5wR2dBQUJBZ1FJRUNEUWtJREV2YUZnNmdvQkFnUUlFQ0JBZ0VDN0FoTDNkbU9yWndRSUVDQkFnQUFCQWcwSnZLMmh2dWdLZ1VVSTNQdk9EeXlpbnpwSmdNRDBBcTljT3JkNjQ2MkwweC9ZRVFrUTZDUWdjZS9FWkNVQzh3bmNmT010cTFNbkhsN2RjOGZKMVYyM3ZHZDE4NDNIYnBpdk5ZNU1nRURyQW0rOGRlbnk4K2VmV1oyNWNIcjF3cCtlYTcyNytrZWdLZ0dKZTFYaDB0aWxDWHorUTE5YjNYLzhRY242MGdLdnZ3Um1GRWlEQTVIQVg3ajQ4dXBuTDN4UEFqOWpQQnlhd0xxQXhIMWR3ODhFQ2hHSWNwaEhIL2lXaEwyUWVHZ0dnU1VLckNmd1Q3LzR4T3JKczQ4dmtVR2ZDUlFsSUhFdktod2FRMkMxa3JRN0N3Z1FLRWtnRXZnWWZiL3RwdHRYMy8zVlYwdHFtcllRV0p5QXhIMXhJZGZoa2dVazdTVkhSOXNJTEZjZ0plOGhJSGxmN25tZzUvTUxTTnpuajRFV0VOZ1RpSnRRbGNjNEdRZ1FLRlVnSmUrdnZmbXFzcGxTZzZSZHpRdVl4NzM1RU90Z0xRS2ZlUDhYYW1tcWRoSWdzRkNCU040LytyN1BMclQzdWsxZ2ZnR0orL3d4MEFJQ1YyNUN2Y1hzTWM0REFnU3FFZmpZZlorcnBxMGFTcUFsQVlsN1M5SFVsMm9GakxaWEd6b05KN0E0QWFQdWl3dTVEaGNrSUhFdktCaWFzbHlCZDd6OTNhWitYRzc0OVp4QWxRTHhUYUdGQUlGcEJTVHUwM283R29IckJPSS9mdkZFVkFzQkFnUnFFb2duT2xzSUVKaFdRT0krcmJlakViaE80TTVqSjY1N3p4c0VDQkFvWFNEbWRiY1FJREN0Z01SOVdtOUhJMENBQUFFQ1RRaEVpWitGQUlGcEJTVHUwM283R29IckJJN2ZldmQxNzNtREFBRUNCQWdRSUxBcElISGZGUEU3QVFJRUNCQWdRSUFBZ1FJRkpPNEZCa1dUQ0JBZ1FJQUFBUUlFQ0d3S1NOdzNSZnhPZ0FBQkFnUUlFQ0JBb0VBQmlYdUJRZEVrQWdRSUVDQkFnQUFCQXBzQ0V2ZE5FYjhUSUVDQUFBRUNCQWdRS0ZCQTRsNWdVRFNKQUFFQ0JBZ1FJRUNBd0thQXhIMVR4TzhFQ0JBZ1FJQUFBUUlFQ2hTUXVCY1lGRTBpUUlBQUFRSUVDQkFnc0NrZ2NkOFU4VHNCQWdRSUVDQkFnQUNCQWdVazdnVUdSWk1JRUNCQWdBQUJBZ1FJYkFwSTNEZEYvRTZBQUFFQ0JBZ1FJRUNnUUFHSmU0RkIwU1FDQkFnUUlFQ0FBQUVDbXdJUzkwMFJ2eE1nUUlBQUFRSUVDQkFvVUVEaVhtQlFOSWtBQVFJRUNCQWdRSURBcG9ERWZWUEU3d1FJRUNCQWdBQUJBZ1FLRkpDNEZ4Z1VUU0pBZ0FBQkFnUUlFQ0N3S1NCeDN4VHhPd0VDQkFnUUlFQ0FBSUVDQlNUdUJRWkZrd2dRSUVDQUFBRUNCQWhzQ2tqY04wWDhUb0FBQVFJRUNCQWdRS0JBQVlsN2dVSFJKQUlFQ0JBZ1FJQUFBUUtiQWhMM1RSRy9FeUJBZ0FBQkFnUUlFQ2hRUU9KZVlGQTBpUUFCQWdRSUVDQkFnTUNtZ01SOVU4VHZCQWdRSUVDQUFBRUNCQW9Va0xnWEdCUk5Ja0NBQUFFQ0JBZ1FJTEFwSUhIZkZQRTdBUUlFQ0JBZ1FJQUFnUUlGSk80RkJrV1RDQkFnUUlBQUFRSUVDR3dLU053M1JmeE9nQUFCQWdRSUVDQkFvRUFCaVh1QlFkRWtBZ1FJRUNCQWdBQUJBcHNDRXZkTkViOFRJRUNBQUFFQ0JBZ1FLRkJBNGw1Z1VEU0pBQUVDQkFnUUlFQ0F3S2FBeEgxVHhPOEVKaFk0Ly9wTEV4L1I0UWdRSUVDQUFJRWFCU1R1TlVaTm13a1FJRUNBd013Q2YvbnJIMlp1Z2NNVFdKNkF4SDE1TWRmandnUmV1WFN1c0JacERnRUNCSTRXZU8zTlY0OWV5Um9FQ0F3cUlIRWZsTlBPQ09RTHZQSFd4ZnlOYkVHQUFJR1pCWlQ1elJ3QWgxK2tnTVI5a1dIWDZkSUVuai8vek9xTnR5NWRMcTFkMmtPQUFJR0RCRjc0MDNNSC9jbjdCQWlNSkNCeEh3bldiZ25rQ1B6a3Q5L09XZDI2QkFnUW1FMGdCaGxpc01GQ2dNRDBBaEwzNmMwZGtjQjFBbEV1WTlUOU9oWnZFQ0JRcU1DWkM2Y0xiWmxtRVdoYlFPTGVkbnoxcmlJQm8rNFZCVXRUQ1N4VUlFYmJMMXg4ZWFWTVpxRW5nRzdQTGlCeG56MEVHa0JnWHlCRzNSODcvVVcxN2s0SUFnU0tGdmptczQ4VzNUNk5JOUN5Z01TOTVlanFXM1VDTVlvbGVhOHViQnBNWUJFQ01kcis5SXRQWEJsY01CUFdJZ0t1azBVS1NOeUxESXRHTFZsQThyN2s2T3M3Z1RJRjBnMnBUNTU5dk13R2FoV0JoUWhJM0JjU2FOMnNTeUNTOTMvLzZUK3Z6djd4MTVmalA1aDF0VjVyQ1JCb1NTRFZ0YnNQcDZXbzZrdXRBaEwzV2lPbjNjMEx4TmZSWC9uNXAxZjdYMDFMM3BzUHVBNFNLRkFnSmUzeGI1RVNtUUlEcEVtTEU1QzRMeTdrT2x5YlFIdzFIYVB2UC9qTk40eSsxeFk4N1NWUXNVQksydDJNV25FUU5iMDVBWWw3Y3lIVm9SWUZZcVFyRXZoUGZ2OGY5eEo0SlRRdFJsbWZDSlFqRUVsN1BGdkNTSHM1TWRFU0FpSHdOZ3dFQ05RbEVBbDgvTy9tRzIvWlMrSnZ1K24yMVR2ZS91NjZPcUcxQkFnVUxSQ3pXNW1ydmVnUWFkeENCU1R1Q3cyOGJ0Y3ZrRWJoNisrSkhoQWdRSUFBQVFKZEJKVEtkRkd5RGdFQ0JBZ1FJRUNBQUlHWkJTVHVNd2ZBNFFrUUlFQ0FBQUVDQkFoMEVaQzRkMUd5RGdFQ0JBZ1FJRUNBQUlHWkJTVHVNd2ZBNFFrUUlFQ0FBQUVDQkFoMEVaQzRkMUd5RGdFQ0JBZ1FJRUNBQUlHWkJTVHVNd2ZBNFFrUUlFQ0FBQUVDQkFoMEVaQzRkMUd5RGdFQ0JBZ1FJRUNBQUlHWkJTVHVNd2ZBNFFrUUlFQ0FBQUVDQkFoMEVaQzRkMUd5RGdFQ0JBZ1FJRUNBQUlHWkJTVHVNd2ZBNFFrUUlFQ0FBQUVDQkFoMEVaQzRkMUd5RGdFQ0JBZ1FJRUNBQUlHWkJTVHVNd2ZBNFFrUUlFQ0FBQUVDQkFoMEVaQzRkMUd5RGdFQ0JBZ1FJRUNBQUlHWkJTVHVNd2ZBNFFrUUlFQ0FBQUVDQkFoMEVaQzRkMUd5RGdFQ0JBZ1FJRUNBQUlHWkJTVHVNd2ZBNFFrUUlFQ0FBQUVDQkFoMEVaQzRkMUd5RGdFQ0JBZ1FJRUNBQUlHWkJTVHVNd2ZBNFFrUUlFQ0FBQUVDQkFoMEVaQzRkMUd5RGdFQ0JBZ1FJRUNBQUlHWkJTVHVNd2ZBNFFrUUlFQ0FBQUVDQkFoMEVaQzRkMUd5RGdFQ0JBZ1FJRUNBQUlHWkJTVHVNd2ZBNFFrUUlFQ0FBQUVDQkFoMEVaQzRkMUd5RGdFQ0JBZ1FJRUNBQUlHWkJTVHVNd2ZBNFFrUUlFQ0FBQUVDQkFoMEVaQzRkMUd5RGdFQ0JBZ1FJRUNBQUlHWkJTVHVNd2ZBNFFrUUlFQ0FBQUVDQkFoMEVaQzRkMUd5RGdFQ0JBZ1FJRUNBQUlHWkJTVHVNd2ZBNFFrUUlFQ0FBQUVDQkFoMEVaQzRkMUd5RGdFQ0JBZ1FJRUNBQUlHWkJTVHVNd2ZBNFFrUUlFQ0FBQUVDQkFoMEVaQzRkMUd5VGhNQ045OTRTeFA5MEFrQ0JBZ1FJRUJnbVFJUzkyWEdmWEc5dnU5ZEg3emhqYmN1THE3Zk9reUFBQUVDQkFpMEl5QnhieWVXZW5LRXdMM3YvTUFSYS9nekFRSUVDTlFtNE4vMjJpS212YnNJU054MzBiTnRWUUxIYjcyN3F2WnFMQUVDQkFnY0xlRGY5cU9Ock5HT2dNUzluVmpxeVJFQzk5eHg4b2cxL0prQUFRSUVhaFB3YjN0dEVkUGVYUVFrN3J2bzJiWXFnYWh6ZDROcVZTSFRXQUlFQ0J3cUVQK214Ny90aDY3a2p3UWFFcEM0TnhSTVhUbGE0TlNKaDQ5ZXlSb0VDQkFnVUlXQWY5T3JDSk5HRGlnZ2NSOFEwNjdLRi9DVmF2a3gwa0lDQkFoMEZmQnZlbGNwNjdVaUlIRnZKWkw2MFVrZ3ZsSTFBMEVuS2lzUklFQ2dhSUg0dDF5WlRORWgwcmdSQkNUdUk2RGFaZGtDRDkzN1NOa04xRG9DQkFnUU9GTEF2K1ZIRWxtaFFRR0plNE5CMWFYREJXS0U1bVAzZmU3d2xmeVZBQUVDQklvVmlIL0RqYllYR3g0TkcxRkE0ajRpcmwyWEsvRFI5MzEyWllhWmN1T2paUVFJRURoSUlQN3Rqbi9ETFFTV0tDQnhYMkxVOWZsSzBuN3NoaStkZW93RUFRSUVDRlFtRVA5Mng3L2hsVFZiY3drTUlpQnhINFRSVG1vVWlLOVpQLytocjlYWWRHMG1RSURBSWdYaTMyd2xNb3NNdlU3L1RVRGk3bFJZdE1DSDMvc3A5ZTZMUGdOMG5nQ0JXZ1NpcmozK3phNmx2ZHBKWUF3Qkg0QXhWTzJ6T29FZi9PWWJsNTg4KzNoMTdkWmdBZ1FJTEVFZ2t2YlAvTk9YNVN4TENMWStIaXJnUTNBb2p6OHVTZUFYdi8vUjVlLys2cXRMNnJLK0VpQkFvSGlCS0k4eDBsNThtRFJ3SWdHSiswVFFEbE9Id0J0dlhicjg3ei85NTlVYmIxMnNvOEZhU1lBQWdVWUZZdmFZNzN6OGwyNUViVFMrdXRWUFFPTGV6ODFXRFF0RTh2NzBpMCtzbE00MEhHUmRJMENnYUlFb2pkbWZ0dGZzTVVVSFN1TW1GNUM0VDA3dWdMVUlSQUwvMk9rdnJsNzQwM08xTkZrN0NSQWdVTFhBdmUvOHdPclJCNzVsbEwzcUtHcjhtQUlTOXpGMTdic0pnVFFDLyt5NXA1VFFOQkZSblNCQW9DU0JLSWs1ZGVKaEkrd2xCVVZiaWhXUXVCY2JHZzByVWVEc0gzOTkrWGQvUHJNNi8vcExSdUpMREpBMkVTQlFoVUNNckIrLzllN1ZQWGVjTkM5N0ZSSFRTQUlFQ0JBZ1FJQUFBUUlFQ0JBZ1FJQUFBUUlFQ0JBZ1FJQUFBUUlFQ0JBZ1FJQUFBUUlFQ0JBZ1FJQUFBUUlFQ0JBZ1FJQUFBUUlFQ0JBZ1FJQUFBUUlFQ0JBZ1FJQUFBUUlFQ0JBZ1FJQUFBUUlFQ0JBZ1FJQUFBUUlFQ0JBZ1FJQUFBUUlFQ0JBZ1FJQUFBUUlFQ0JBZ1FJQUFBUUlFQ0JBZ1FJQUFBUUlFQ0JBZ1FJQUFBUUlFQ0JBZ1FJQUFBUUlFQ0JBZ1FJQUFBUUlFQ0JBZ1FJQUFBUUlFQ0JBZ1FJQUFBUUlFQ0JBZ1FJQUFBUUlFQ0JBZ1FJQUFBUUlFQ0JBZ1FJQUFBUUlFQ0JBZ1FJQUFBUUlFQ0JBZ1FJQUFBUUlFQ0JBZ1FJQUFBUUlFQ0JBZ1FJQUFBUUlFQ0JBZ1FJQUFBUUlFQ0JBZ1FJQUFBUUlFQ0JBZ1FJQUFBUUlFQ0JBZ1FJQUFBUUlFQ0JBZ1FJQUFBUUlFQ0JBZ1FJQUFBUUlFQ0JBZ1FJQUFBUUlFQ0JBZ1FJQUFBUUlFQ0JBZ1FJQUFBUUlFQ0JBZ1FJQUFBUUlFQ0JBZ1FJQUFBUUlFQ0JBZ1FJQUFBUUlFQ0JBZ1FJQUFBUUlFQ0JBZ1FJQUFBUUlFQ0JBZ1FJQUFBUUlFQ0JBZ1FJQUFBUUlFQ0JBZ1FJQUFBUUlFQ0JBZ1FJQUFBUUlFQ0JBZ1FJQUFBUUlFQ0JBZ1FJQUFBUUlFQ0JBZ1FJQUFBUUlFQ0JBZ1FJQUFBUUlFQ0JBZ1FJQUFBUUlFQ0JBZ1FJQUFBUUlFQ0JBZ1FJQUFBUUlFQ0JBZ1FJQUFBUUlFQ0JBZ1FJQUFBUUlFQ0JBZ1FJQUFBUUlFQ0JBZ1FJQUFBUUlFQ0JBZ1FJQUFBUUlFQ0JBZ1FJQUFBUUlFQ0JBZ1FJQUFBUUlFQ0JBZ1FJQUFBUUlFQ0JBZ1FJQUFBUUlFQ0JBZ1FJQUFBUUlFQ0JBZ1FJQUFBUUlFQ0JBZ1FJQUFBUUlFQ0JBZ1FJQUFBUUlFQ0JBZ1FJQUFBUUlFQ0JBZ1FJQUFBUUlFQ0JBZ1FJQUFBUUlFQ0JBZ1FJQUFBUUlFQ0JBZ1FJQUFBUUlFQ0JBZ1FJQUFBUUlFQ0JBZ1FJQUFBUUlFQ0JBZ1FJQUFBUUlFQ0JBZ1FJQUFBUUlFQ0JBZ1FJQUFBUUlFQ0JBZ1FJQUFBUUlFQ0JBZ1FJQUFBUUlFQ0JBZ1FJQUFBUUlFQ0JBZ1FJQUFBUUlFQ0JBZ1FJQUFBUUlFQ0JBZ1FJQUFBUUlFQ0JBZ1FJQUFBUUlFQ0JBZ1FJQUFBUUlFQ0JBZ1FJQUFBUUlFQ0JBZ1FJQUFBUUlFQ0JBZ1FJQUFBUUlFQ0JBZ1FJQUFBUUlFQ0JBZ1FJQUFBUUlFQ0JBZ1FJQUFBUUlFQ0JBZ1FJQUFBUUlFQ0JBZ1FJQUFBUUlFQ0JBZ1FJQUFBUUlFQ0JBZ1FJQUFBUUlFQ0JBZ1FJQUFBUUlFQ0JBZ1FJQUFBUUlFQ0JBZ1FJQUFBUUlFQ0JBZ1FJQUFBUUlFQ0JBZ1FJQUFBUUlFQ0JBZ1FJQUFBUUlFQ0JBZ1FJQUFBUUlFQ0JBZ1FJQUFBUUlFQ0JBZ1FJQUFBUUlFQ0JBZ1FJQUFBUUlFQ0JBZ1FJQUFBUUlFQ0JBZ1FJQUFBUUlFQ0JBZ1FJQUFBUUlFQ0JBZ1FJQUFBUUlFQ0JBZ1FJQUFBUUlFQ0JBZ1FJQUFBUUlFQ0JBZ1FJQUFnUVVKL1A5emRMN0ZwQk5PS2dBQUFBQkpSVTVFcmtKZ2dnPT0iIGhlaWdodD0iNzUwIiB3aWR0aD0iNzUwIi8+PGNsaXBQYXRoIGlkPSJjbGlwMSI+PHBhdGggY2xpcC1ydWxlPSJldmVub2RkIiBmaWxsLXJ1bGU9ImV2ZW5vZGQiIGQ9Ik0tMC4wOTI3NzM0LTAuMzc1MTMzIDUyOTI0My0wLjM3NTEzMyA1MjkyNDMgNTI5MjQzLTAuMDYyNSA1MjkyNDNaIi8+PC9jbGlwUGF0aD48L2RlZnM+PGcgdHJhbnNmb3JtPSJ0cmFuc2xhdGUoLTI1MiAtMjk3KSI+PGc+PHJlY3QgZmlsbC1vcGFjaXR5PSIxIiBmaWxsPSIjRjJGMkYyIiBzdHJva2Utb3BhY2l0eT0iMSIgc3Ryb2tlLW1pdGVybGltaXQ9IjEwIiBzdHJva2UtbGluZWpvaW49InJvdW5kIiBzdHJva2UtbGluZWNhcD0iYnV0dCIgc3Ryb2tlLXdpZHRoPSIyLjI5MTY3IiBzdHJva2U9IiM0MTQyNDQiIGhlaWdodD0iMTAzNSIgd2lkdGg9IjU5MiIgeT0iNDIzIiB4PSIxODUzIi8+PHBhdGggZmlsbC1ydWxlPSJldmVub2RkIiBmaWxsPSJub25lIiBzdHJva2Utb3BhY2l0eT0iMSIgc3Ryb2tlLW1pdGVybGltaXQ9IjEwIiBzdHJva2UtbGluZWpvaW49InJvdW5kIiBzdHJva2UtbGluZWNhcD0iYnV0dCIgc3Ryb2tlLXdpZHRoPSIxLjE0NTgzIiBzdHJva2U9IiM1NjkzMzQiIGQ9Ik0xNTc0LjY5IDIwMTUuNzQgMTU3NC42OSAyMjc2LjczIi8+PHBhdGggZmlsbC1ydWxlPSJldmVub2RkIiBmaWxsPSJub25lIiBzdHJva2Utb3BhY2l0eT0iMSIgc3Ryb2tlLW1pdGVybGltaXQ9IjEwIiBzdHJva2UtbGluZWpvaW49InJvdW5kIiBzdHJva2UtbGluZWNhcD0iYnV0dCIgc3Ryb2tlLXdpZHRoPSIxLjE0NTgzIiBzdHJva2U9IiM1NjkzMzQiIGQ9Ik0xNzU3LjM1IDE5NTEuMDMgMTc1Ny4zNSAyMjc2LjczIi8+PHBhdGggZmlsbC1ydWxlPSJldmVub2RkIiBmaWxsPSJub25lIiBzdHJva2Utb3BhY2l0eT0iMSIgc3Ryb2tlLW1pdGVybGltaXQ9IjEwIiBzdHJva2UtbGluZWpvaW49InJvdW5kIiBzdHJva2UtbGluZWNhcD0iYnV0dCIgc3Ryb2tlLXdpZHRoPSIxLjE0NTgzIiBzdHJva2U9IiM1NjkzMzQiIGQ9Ik0xOTI1LjY0IDIwMTUuNzQgMTkyNS42NCAyMjc2LjczIi8+PHBhdGggZmlsbC1ydWxlPSJldmVub2RkIiBmaWxsPSJub25lIiBzdHJva2Utb3BhY2l0eT0iMSIgc3Ryb2tlLW1pdGVybGltaXQ9IjEwIiBzdHJva2UtbGluZWpvaW49InJvdW5kIiBzdHJva2UtbGluZWNhcD0iYnV0dCIgc3Ryb2tlLXdpZHRoPSIxLjE0NTgzIiBzdHJva2U9IiM1NjkzMzQiIGQ9Ik0yNDA5LjIzIDIwMTUuNzQgMjQwOS4yMyAyMjc2LjczIi8+PHBhdGggZmlsbC1ydWxlPSJldmVub2RkIiBmaWxsPSJub25lIiBzdHJva2Utb3BhY2l0eT0iMSIgc3Ryb2tlLW1pdGVybGltaXQ9IjEwIiBzdHJva2UtbGluZWpvaW49InJvdW5kIiBzdHJva2UtbGluZWNhcD0iYnV0dCIgc3Ryb2tlLXdpZHRoPSIxLjE0NTgzIiBzdHJva2U9IiM1NjkzMzQiIGQ9Ik0yNzE0Ljc3IDIwMTUuNzQgMjcxNC43NyAyMjc2LjczIi8+PHBhdGggZmlsbC1ydWxlPSJldmVub2RkIiBmaWxsPSJub25lIiBzdHJva2Utb3BhY2l0eT0iMSIgc3Ryb2tlLW1pdGVybGltaXQ9IjEwIiBzdHJva2UtbGluZWpvaW49InJvdW5kIiBzdHJva2UtbGluZWNhcD0iYnV0dCIgc3Ryb2tlLXdpZHRoPSIxLjE0NTgzIiBzdHJva2U9IiM1NjkzMzQiIGQ9Ik0xMjg3Ljc1IDIwMTYuMzIgMzA1Ni4wNSAyMDE2LjMyIi8+PHBhdGggZmlsbC1ydWxlPSJldmVub2RkIiBmaWxsPSJub25lIiBzdHJva2Utb3BhY2l0eT0iMSIgc3Ryb2tlLW1pdGVybGltaXQ9IjEwIiBzdHJva2UtbGluZWpvaW49InJvdW5kIiBzdHJva2UtbGluZWNhcD0iYnV0dCIgc3Ryb2tlLXdpZHRoPSIxLjE0NTgzIiBzdHJva2U9IiM1NjkzMzQiIGQ9Ik0xNzU2Ljc4IDIwODEuMjggMzA1Ni4wNSAyMDgxLjI4Ii8+PHBhdGggZmlsbC1ydWxlPSJldmVub2RkIiBmaWxsPSJub25lIiBzdHJva2Utb3BhY2l0eT0iMSIgc3Ryb2tlLW1pdGVybGltaXQ9IjEwIiBzdHJva2UtbGluZWpvaW49InJvdW5kIiBzdHJva2UtbGluZWNhcD0iYnV0dCIgc3Ryb2tlLXdpZHRoPSIxLjE0NTgzIiBzdHJva2U9IiM1NjkzMzQiIGQ9Ik0xNzU2Ljc4IDIxNDYuMjQgMzA1Ni4wNSAyMTQ2LjI0Ii8+PHBhdGggZmlsbC1ydWxlPSJldmVub2RkIiBmaWxsPSJub25lIiBzdHJva2Utb3BhY2l0eT0iMSIgc3Ryb2tlLW1pdGVybGltaXQ9IjEwIiBzdHJva2UtbGluZWpvaW49InJvdW5kIiBzdHJva2UtbGluZWNhcD0iYnV0dCIgc3Ryb2tlLXdpZHRoPSIxLjE0NTgzIiBzdHJva2U9IiM1NjkzMzQiIGQ9Ik0xNzU2Ljc4IDIyMTEuMiAzMDU2LjA1IDIyMTEuMiIvPjxwYXRoIGZpbGwtcnVsZT0iZXZlbm9kZCIgZmlsbD0ibm9uZSIgc3Ryb2tlLW9wYWNpdHk9IjEiIHN0cm9rZS1taXRlcmxpbWl0PSIxMCIgc3Ryb2tlLWxpbmVqb2luPSJyb3VuZCIgc3Ryb2tlLWxpbmVjYXA9ImJ1dHQiIHN0cm9rZS13aWR0aD0iMS4xNDU4MyIgc3Ryb2tlPSIjNTY5MzM0IiBkPSJNMTI4OC4zMiAyMDE1Ljc0IDEyODguMzIgMjI3Ni43MyIvPjxwYXRoIGZpbGwtcnVsZT0iZXZlbm9kZCIgZmlsbD0ibm9uZSIgc3Ryb2tlLW9wYWNpdHk9IjEiIHN0cm9rZS1taXRlcmxpbWl0PSIxMCIgc3Ryb2tlLWxpbmVqb2luPSJyb3VuZCIgc3Ryb2tlLWxpbmVjYXA9ImJ1dHQiIHN0cm9rZS13aWR0aD0iMS4xNDU4MyIgc3Ryb2tlPSIjNTY5MzM0IiBkPSJNMzA1NS40OCAxOTUxLjAzIDMwNTUuNDggMjI3Ni43MyIvPjxwYXRoIGZpbGwtcnVsZT0iZXZlbm9kZCIgZmlsbD0ibm9uZSIgc3Ryb2tlLW9wYWNpdHk9IjEiIHN0cm9rZS1taXRlcmxpbWl0PSIxMCIgc3Ryb2tlLWxpbmVqb2luPSJyb3VuZCIgc3Ryb2tlLWxpbmVjYXA9ImJ1dHQiIHN0cm9rZS13aWR0aD0iMS4xNDU4MyIgc3Ryb2tlPSIjNTY5MzM0IiBkPSJNMTc1Ni43OCAxOTUxLjYgMzA1Ni4wNSAxOTUxLjYiLz48cGF0aCBmaWxsLXJ1bGU9ImV2ZW5vZGQiIGZpbGw9Im5vbmUiIHN0cm9rZS1vcGFjaXR5PSIxIiBzdHJva2UtbWl0ZXJsaW1pdD0iMTAiIHN0cm9rZS1saW5lam9pbj0icm91bmQiIHN0cm9rZS1saW5lY2FwPSJidXR0IiBzdHJva2Utd2lkdGg9IjEuMTQ1ODMiIHN0cm9rZT0iIzU2OTMzNCIgZD0iTTEyODcuNzUgMjI3Ni4xNiAzMDU2LjA1IDIyNzYuMTYiLz48dGV4dCB0cmFuc2Zvcm09Im1hdHJpeCgxIDAgMCAxIDIzNTUuMTQgMTk5NSkiIHRleHQtZGVjb3JhdGlvbj0ibm9uZSIgd3JpdGluZy1tb2RlPSJsci10YiIgZGlyZWN0aW9uPSJsdHIiIHRleHQtYW5jaG9yPSJzdGFydCIgZm9udC1zaXplPSIzMiIgZm9udC1zdHJldGNoPSJub3JtYWwiIGZvbnQtd2VpZ2h0PSIzMDAiIGZvbnQtdmFyaWFudD0ibm9ybWFsIiBmb250LXN0eWxlPSJub3JtYWwiIGZvbnQtZmFtaWx5PSJDaXNjb1NhbnNUVCBMaWdodCxDaXNjb1NhbnNUVCBMaWdodF9NU0ZvbnRTZXJ2aWNlLHNhbnMtc2VyaWYiIGZpbGwtb3BhY2l0eT0iMSIgZmlsbD0iIzU2OTMzNCI+QWdlbnRzPC90ZXh0Pjx0ZXh0IHRyYW5zZm9ybT0ibWF0cml4KDEgMCAwIDEgMjc4Ny4xNiAyMDYwKSIgdGV4dC1kZWNvcmF0aW9uPSJub25lIiB3cml0aW5nLW1vZGU9ImxyLXRiIiBkaXJlY3Rpb249Imx0ciIgdGV4dC1hbmNob3I9InN0YXJ0IiBmb250LXNpemU9IjMyIiBmb250LXN0cmV0Y2g9Im5vcm1hbCIgZm9udC13ZWlnaHQ9IjMwMCIgZm9udC12YXJpYW50PSJub3JtYWwiIGZvbnQtc3R5bGU9Im5vcm1hbCIgZm9udC1mYW1pbHk9IkNpc2NvU2Fuc1RUIExpZ2h0LENpc2NvU2Fuc1RUIExpZ2h0X01TRm9udFNlcnZpY2Usc2Fucy1zZXJpZiIgZmlsbC1vcGFjaXR5PSIxIiBmaWxsPSIjNTY5MzM0Ij5bVkNfMTEsIC4uLi4uLl08L3RleHQ+PHRleHQgdHJhbnNmb3JtPSJtYXRyaXgoMSAwIDAgMSAyNDc4LjY0IDIwNjApIiB0ZXh0LWRlY29yYXRpb249Im5vbmUiIHdyaXRpbmctbW9kZT0ibHItdGIiIGRpcmVjdGlvbj0ibHRyIiB0ZXh0LWFuY2hvcj0ic3RhcnQiIGZvbnQtc2l6ZT0iMzIiIGZvbnQtc3RyZXRjaD0ibm9ybWFsIiBmb250LXdlaWdodD0iMzAwIiBmb250LXZhcmlhbnQ9Im5vcm1hbCIgZm9udC1zdHlsZT0ibm9ybWFsIiBmb250LWZhbWlseT0iQ2lzY29TYW5zVFQgTGlnaHQsQ2lzY29TYW5zVFQgTGlnaHRfTVNGb250U2VydmljZSxzYW5zLXNlcmlmIiBmaWxsLW9wYWNpdHk9IjEiIGZpbGw9IiM1NjkzMzQiPlBhc3Nwb3J0XzE8L3RleHQ+PHRleHQgdHJhbnNmb3JtPSJtYXRyaXgoMSAwIDAgMSAyMDE3LjA0IDIwNjApIiB0ZXh0LWRlY29yYXRpb249Im5vbmUiIHdyaXRpbmctbW9kZT0ibHItdGIiIGRpcmVjdGlvbj0ibHRyIiB0ZXh0LWFuY2hvcj0ic3RhcnQiIGZvbnQtc2l6ZT0iMzIiIGZvbnQtc3RyZXRjaD0ibm9ybWFsIiBmb250LXdlaWdodD0iMzAwIiBmb250LXZhcmlhbnQ9Im5vcm1hbCIgZm9udC1zdHlsZT0ibm9ybWFsIiBmb250LWZhbWlseT0iQ2lzY29TYW5zVFQgTGlnaHQsQ2lzY29TYW5zVFQgTGlnaHRfTVNGb250U2VydmljZSxzYW5zLXNlcmlmIiBmaWxsLW9wYWNpdHk9IjEiIGZpbGw9IiM1NjkzMzQiPlJlc29sdmVyTWV0YWRhdGFfPC90ZXh0Pjx0ZXh0IHRyYW5zZm9ybT0ibWF0cml4KDEgMCAwIDEgMjI5OC4zNSAyMDYwKSIgdGV4dC1kZWNvcmF0aW9uPSJub25lIiB3cml0aW5nLW1vZGU9ImxyLXRiIiBkaXJlY3Rpb249Imx0ciIgdGV4dC1hbmNob3I9InN0YXJ0IiBmb250LXNpemU9IjMyIiBmb250LXN0cmV0Y2g9Im5vcm1hbCIgZm9udC13ZWlnaHQ9IjMwMCIgZm9udC12YXJpYW50PSJub3JtYWwiIGZvbnQtc3R5bGU9Im5vcm1hbCIgZm9udC1mYW1pbHk9IkNpc2NvU2Fuc1RUIExpZ2h0LENpc2NvU2Fuc1RUIExpZ2h0X01TRm9udFNlcnZpY2Usc2Fucy1zZXJpZiIgZmlsbC1vcGFjaXR5PSIxIiBmaWxsPSIjNTY5MzM0Ij4xPC90ZXh0Pjx0ZXh0IHRyYW5zZm9ybT0ibWF0cml4KDEgMCAwIDEgMTgwNy4xMiAyMDYwKSIgdGV4dC1kZWNvcmF0aW9uPSJub25lIiB3cml0aW5nLW1vZGU9ImxyLXRiIiBkaXJlY3Rpb249Imx0ciIgdGV4dC1hbmNob3I9InN0YXJ0IiBmb250LXNpemU9IjMyIiBmb250LXN0cmV0Y2g9Im5vcm1hbCIgZm9udC13ZWlnaHQ9IjMwMCIgZm9udC12YXJpYW50PSJub3JtYWwiIGZvbnQtc3R5bGU9Im5vcm1hbCIgZm9udC1mYW1pbHk9IkNpc2NvU2Fuc1RUIExpZ2h0LENpc2NvU2Fuc1RUIExpZ2h0X01TRm9udFNlcnZpY2Usc2Fucy1zZXJpZiIgZmlsbC1vcGFjaXR5PSIxIiBmaWxsPSIjNTY5MzM0Ij5JRF8xPC90ZXh0Pjx0ZXh0IHRyYW5zZm9ybT0ibWF0cml4KDEgMCAwIDEgMTYwNS4yOSAyMTU3KSIgdGV4dC1kZWNvcmF0aW9uPSJub25lIiB3cml0aW5nLW1vZGU9ImxyLXRiIiBkaXJlY3Rpb249Imx0ciIgdGV4dC1hbmNob3I9InN0YXJ0IiBmb250LXNpemU9IjMyIiBmb250LXN0cmV0Y2g9Im5vcm1hbCIgZm9udC13ZWlnaHQ9IjcwMCIgZm9udC12YXJpYW50PSJub3JtYWwiIGZvbnQtc3R5bGU9Im5vcm1hbCIgZm9udC1mYW1pbHk9IkNpc2NvU2Fuc1RULENpc2NvU2Fuc1RUX01TRm9udFNlcnZpY2Usc2Fucy1zZXJpZiIgZmlsbC1vcGFjaXR5PSIxIiBmaWxsPSIjNTY5MzM0Ij5QdWJLZXk8L3RleHQ+PHRleHQgdHJhbnNmb3JtPSJtYXRyaXgoMSAwIDAgMSAxMzM2Ljk3IDIxNTcpIiB0ZXh0LWRlY29yYXRpb249Im5vbmUiIHdyaXRpbmctbW9kZT0ibHItdGIiIGRpcmVjdGlvbj0ibHRyIiB0ZXh0LWFuY2hvcj0ic3RhcnQiIGZvbnQtc2l6ZT0iMzIiIGZvbnQtc3RyZXRjaD0ibm9ybWFsIiBmb250LXdlaWdodD0iNzAwIiBmb250LXZhcmlhbnQ9Im5vcm1hbCIgZm9udC1zdHlsZT0ibm9ybWFsIiBmb250LWZhbWlseT0iQ2lzY29TYW5zVFQsQ2lzY29TYW5zVFRfTVNGb250U2VydmljZSxzYW5zLXNlcmlmIiBmaWxsLW9wYWNpdHk9IjEiIGZpbGw9IiM1NjkzMzQiPm9yZzpzdWI8L3RleHQ+PHRleHQgdHJhbnNmb3JtPSJtYXRyaXgoMSAwIDAgMSAxNDU2LjE0IDIxNTcpIiB0ZXh0LWRlY29yYXRpb249Im5vbmUiIHdyaXRpbmctbW9kZT0ibHItdGIiIGRpcmVjdGlvbj0ibHRyIiB0ZXh0LWFuY2hvcj0ic3RhcnQiIGZvbnQtc2l6ZT0iMzIiIGZvbnQtc3RyZXRjaD0ibm9ybWFsIiBmb250LXdlaWdodD0iNzAwIiBmb250LXZhcmlhbnQ9Im5vcm1hbCIgZm9udC1zdHlsZT0ibm9ybWFsIiBmb250LWZhbWlseT0iQ2lzY29TYW5zVFQsQ2lzY29TYW5zVFRfTVNGb250U2VydmljZSxzYW5zLXNlcmlmIiBmaWxsLW9wYWNpdHk9IjEiIGZpbGw9IiM1NjkzMzQiPi08L3RleHQ+PHRleHQgdHJhbnNmb3JtPSJtYXRyaXgoMSAwIDAgMSAxNDczLjMzIDIxNTcpIiB0ZXh0LWRlY29yYXRpb249Im5vbmUiIHdyaXRpbmctbW9kZT0ibHItdGIiIGRpcmVjdGlvbj0ibHRyIiB0ZXh0LWFuY2hvcj0ic3RhcnQiIGZvbnQtc2l6ZT0iMzIiIGZvbnQtc3RyZXRjaD0ibm9ybWFsIiBmb250LXdlaWdodD0iNzAwIiBmb250LXZhcmlhbnQ9Im5vcm1hbCIgZm9udC1zdHlsZT0ibm9ybWFsIiBmb250LWZhbWlseT0iQ2lzY29TYW5zVFQsQ2lzY29TYW5zVFRfTVNGb250U2VydmljZSxzYW5zLXNlcmlmIiBmaWxsLW9wYWNpdHk9IjEiIGZpbGw9IiM1NjkzMzQiPm9yZzwvdGV4dD48dGV4dCB0cmFuc2Zvcm09Im1hdHJpeCgxIDAgMCAxIDI4NzEuMzggMjEyNSkiIHRleHQtZGVjb3JhdGlvbj0ibm9uZSIgd3JpdGluZy1tb2RlPSJsci10YiIgZGlyZWN0aW9uPSJsdHIiIHRleHQtYW5jaG9yPSJzdGFydCIgZm9udC1zaXplPSIzMiIgZm9udC1zdHJldGNoPSJub3JtYWwiIGZvbnQtd2VpZ2h0PSIzMDAiIGZvbnQtdmFyaWFudD0ibm9ybWFsIiBmb250LXN0eWxlPSJub3JtYWwiIGZvbnQtZmFtaWx5PSJDaXNjb1NhbnNUVCBMaWdodCxDaXNjb1NhbnNUVCBMaWdodF9NU0ZvbnRTZXJ2aWNlLHNhbnMtc2VyaWYiIGZpbGwtb3BhY2l0eT0iMSIgZmlsbD0iIzU2OTMzNCI+Li4uPC90ZXh0Pjx0ZXh0IHRyYW5zZm9ybT0ibWF0cml4KDEgMCAwIDEgMjU0OC4yNSAyMTI1KSIgdGV4dC1kZWNvcmF0aW9uPSJub25lIiB3cml0aW5nLW1vZGU9ImxyLXRiIiBkaXJlY3Rpb249Imx0ciIgdGV4dC1hbmNob3I9InN0YXJ0IiBmb250LXNpemU9IjMyIiBmb250LXN0cmV0Y2g9Im5vcm1hbCIgZm9udC13ZWlnaHQ9IjMwMCIgZm9udC12YXJpYW50PSJub3JtYWwiIGZvbnQtc3R5bGU9Im5vcm1hbCIgZm9udC1mYW1pbHk9IkNpc2NvU2Fuc1RUIExpZ2h0LENpc2NvU2Fuc1RUIExpZ2h0X01TRm9udFNlcnZpY2Usc2Fucy1zZXJpZiIgZmlsbC1vcGFjaXR5PSIxIiBmaWxsPSIjNTY5MzM0Ij4uLi48L3RleHQ+PHRleHQgdHJhbnNmb3JtPSJtYXRyaXgoMSAwIDAgMSAyMTUzLjY4IDIxMjUpIiB0ZXh0LWRlY29yYXRpb249Im5vbmUiIHdyaXRpbmctbW9kZT0ibHItdGIiIGRpcmVjdGlvbj0ibHRyIiB0ZXh0LWFuY2hvcj0ic3RhcnQiIGZvbnQtc2l6ZT0iMzIiIGZvbnQtc3RyZXRjaD0ibm9ybWFsIiBmb250LXdlaWdodD0iMzAwIiBmb250LXZhcmlhbnQ9Im5vcm1hbCIgZm9udC1zdHlsZT0ibm9ybWFsIiBmb250LWZhbWlseT0iQ2lzY29TYW5zVFQgTGlnaHQsQ2lzY29TYW5zVFQgTGlnaHRfTVNGb250U2VydmljZSxzYW5zLXNlcmlmIiBmaWxsLW9wYWNpdHk9IjEiIGZpbGw9IiM1NjkzMzQiPi4uLjwvdGV4dD48dGV4dCB0cmFuc2Zvcm09Im1hdHJpeCgxIDAgMCAxIDE4MjcuNzQgMjEyNSkiIHRleHQtZGVjb3JhdGlvbj0ibm9uZSIgd3JpdGluZy1tb2RlPSJsci10YiIgZGlyZWN0aW9uPSJsdHIiIHRleHQtYW5jaG9yPSJzdGFydCIgZm9udC1zaXplPSIzMiIgZm9udC1zdHJldGNoPSJub3JtYWwiIGZvbnQtd2VpZ2h0PSIzMDAiIGZvbnQtdmFyaWFudD0ibm9ybWFsIiBmb250LXN0eWxlPSJub3JtYWwiIGZvbnQtZmFtaWx5PSJDaXNjb1NhbnNUVCBMaWdodCxDaXNjb1NhbnNUVCBMaWdodF9NU0ZvbnRTZXJ2aWNlLHNhbnMtc2VyaWYiIGZpbGwtb3BhY2l0eT0iMSIgZmlsbD0iIzU2OTMzNCI+Li4uPC90ZXh0Pjx0ZXh0IHRyYW5zZm9ybT0ibWF0cml4KDEgMCAwIDEgMjg3MS4zOCAyMTg5KSIgdGV4dC1kZWNvcmF0aW9uPSJub25lIiB3cml0aW5nLW1vZGU9ImxyLXRiIiBkaXJlY3Rpb249Imx0ciIgdGV4dC1hbmNob3I9InN0YXJ0IiBmb250LXNpemU9IjMyIiBmb250LXN0cmV0Y2g9Im5vcm1hbCIgZm9udC13ZWlnaHQ9IjMwMCIgZm9udC12YXJpYW50PSJub3JtYWwiIGZvbnQtc3R5bGU9Im5vcm1hbCIgZm9udC1mYW1pbHk9IkNpc2NvU2Fuc1RUIExpZ2h0LENpc2NvU2Fuc1RUIExpZ2h0X01TRm9udFNlcnZpY2Usc2Fucy1zZXJpZiIgZmlsbC1vcGFjaXR5PSIxIiBmaWxsPSIjNTY5MzM0Ij4uLi48L3RleHQ+PHRleHQgdHJhbnNmb3JtPSJtYXRyaXgoMSAwIDAgMSAyNTQ4LjI1IDIxODkpIiB0ZXh0LWRlY29yYXRpb249Im5vbmUiIHdyaXRpbmctbW9kZT0ibHItdGIiIGRpcmVjdGlvbj0ibHRyIiB0ZXh0LWFuY2hvcj0ic3RhcnQiIGZvbnQtc2l6ZT0iMzIiIGZvbnQtc3RyZXRjaD0ibm9ybWFsIiBmb250LXdlaWdodD0iMzAwIiBmb250LXZhcmlhbnQ9Im5vcm1hbCIgZm9udC1zdHlsZT0ibm9ybWFsIiBmb250LWZhbWlseT0iQ2lzY29TYW5zVFQgTGlnaHQsQ2lzY29TYW5zVFQgTGlnaHRfTVNGb250U2VydmljZSxzYW5zLXNlcmlmIiBmaWxsLW9wYWNpdHk9IjEiIGZpbGw9IiM1NjkzMzQiPi4uLjwvdGV4dD48dGV4dCB0cmFuc2Zvcm09Im1hdHJpeCgxIDAgMCAxIDIxNTMuNjggMjE4OSkiIHRleHQtZGVjb3JhdGlvbj0ibm9uZSIgd3JpdGluZy1tb2RlPSJsci10YiIgZGlyZWN0aW9uPSJsdHIiIHRleHQtYW5jaG9yPSJzdGFydCIgZm9udC1zaXplPSIzMiIgZm9udC1zdHJldGNoPSJub3JtYWwiIGZvbnQtd2VpZ2h0PSIzMDAiIGZvbnQtdmFyaWFudD0ibm9ybWFsIiBmb250LXN0eWxlPSJub3JtYWwiIGZvbnQtZmFtaWx5PSJDaXNjb1NhbnNUVCBMaWdodCxDaXNjb1NhbnNUVCBMaWdodF9NU0ZvbnRTZXJ2aWNlLHNhbnMtc2VyaWYiIGZpbGwtb3BhY2l0eT0iMSIgZmlsbD0iIzU2OTMzNCI+Li4uPC90ZXh0Pjx0ZXh0IHRyYW5zZm9ybT0ibWF0cml4KDEgMCAwIDEgMTgyNy43NCAyMTg5KSIgdGV4dC1kZWNvcmF0aW9uPSJub25lIiB3cml0aW5nLW1vZGU9ImxyLXRiIiBkaXJlY3Rpb249Imx0ciIgdGV4dC1hbmNob3I9InN0YXJ0IiBmb250LXNpemU9IjMyIiBmb250LXN0cmV0Y2g9Im5vcm1hbCIgZm9udC13ZWlnaHQ9IjMwMCIgZm9udC12YXJpYW50PSJub3JtYWwiIGZvbnQtc3R5bGU9Im5vcm1hbCIgZm9udC1mYW1pbHk9IkNpc2NvU2Fuc1RUIExpZ2h0LENpc2NvU2Fuc1RUIExpZ2h0X01TRm9udFNlcnZpY2Usc2Fucy1zZXJpZiIgZmlsbC1vcGFjaXR5PSIxIiBmaWxsPSIjNTY5MzM0Ij4uLi48L3RleHQ+PHRleHQgdHJhbnNmb3JtPSJtYXRyaXgoMSAwIDAgMSAyNzg4LjAyIDIyNTQpIiB0ZXh0LWRlY29yYXRpb249Im5vbmUiIHdyaXRpbmctbW9kZT0ibHItdGIiIGRpcmVjdGlvbj0ibHRyIiB0ZXh0LWFuY2hvcj0ic3RhcnQiIGZvbnQtc2l6ZT0iMzIiIGZvbnQtc3RyZXRjaD0ibm9ybWFsIiBmb250LXdlaWdodD0iMzAwIiBmb250LXZhcmlhbnQ9Im5vcm1hbCIgZm9udC1zdHlsZT0ibm9ybWFsIiBmb250LWZhbWlseT0iQ2lzY29TYW5zVFQgTGlnaHQsQ2lzY29TYW5zVFQgTGlnaHRfTVNGb250U2VydmljZSxzYW5zLXNlcmlmIiBmaWxsLW9wYWNpdHk9IjEiIGZpbGw9IiM1NjkzMzQiPltWQ19uMSwgLi4uLi4uXTwvdGV4dD48dGV4dCB0cmFuc2Zvcm09Im1hdHJpeCgxIDAgMCAxIDI0NzkuNSAyMjU0KSIgdGV4dC1kZWNvcmF0aW9uPSJub25lIiB3cml0aW5nLW1vZGU9ImxyLXRiIiBkaXJlY3Rpb249Imx0ciIgdGV4dC1hbmNob3I9InN0YXJ0IiBmb250LXNpemU9IjMyIiBmb250LXN0cmV0Y2g9Im5vcm1hbCIgZm9udC13ZWlnaHQ9IjMwMCIgZm9udC12YXJpYW50PSJub3JtYWwiIGZvbnQtc3R5bGU9Im5vcm1hbCIgZm9udC1mYW1pbHk9IkNpc2NvU2Fuc1RUIExpZ2h0LENpc2NvU2Fuc1RUIExpZ2h0X01TRm9udFNlcnZpY2Usc2Fucy1zZXJpZiIgZmlsbC1vcGFjaXR5PSIxIiBmaWxsPSIjNTY5MzM0Ij5QYXNzcG9ydF9uPC90ZXh0Pjx0ZXh0IHRyYW5zZm9ybT0ibWF0cml4KDEgMCAwIDEgMjAxNy45IDIyNTQpIiB0ZXh0LWRlY29yYXRpb249Im5vbmUiIHdyaXRpbmctbW9kZT0ibHItdGIiIGRpcmVjdGlvbj0ibHRyIiB0ZXh0LWFuY2hvcj0ic3RhcnQiIGZvbnQtc2l6ZT0iMzIiIGZvbnQtc3RyZXRjaD0ibm9ybWFsIiBmb250LXdlaWdodD0iMzAwIiBmb250LXZhcmlhbnQ9Im5vcm1hbCIgZm9udC1zdHlsZT0ibm9ybWFsIiBmb250LWZhbWlseT0iQ2lzY29TYW5zVFQgTGlnaHQsQ2lzY29TYW5zVFQgTGlnaHRfTVNGb250U2VydmljZSxzYW5zLXNlcmlmIiBmaWxsLW9wYWNpdHk9IjEiIGZpbGw9IiM1NjkzMzQiPlJlc29sdmVyTWV0YWRhdGFfPC90ZXh0Pjx0ZXh0IHRyYW5zZm9ybT0ibWF0cml4KDEgMCAwIDEgMjI5OS4yIDIyNTQpIiB0ZXh0LWRlY29yYXRpb249Im5vbmUiIHdyaXRpbmctbW9kZT0ibHItdGIiIGRpcmVjdGlvbj0ibHRyIiB0ZXh0LWFuY2hvcj0ic3RhcnQiIGZvbnQtc2l6ZT0iMzIiIGZvbnQtc3RyZXRjaD0ibm9ybWFsIiBmb250LXdlaWdodD0iMzAwIiBmb250LXZhcmlhbnQ9Im5vcm1hbCIgZm9udC1zdHlsZT0ibm9ybWFsIiBmb250LWZhbWlseT0iQ2lzY29TYW5zVFQgTGlnaHQsQ2lzY29TYW5zVFQgTGlnaHRfTVNGb250U2VydmljZSxzYW5zLXNlcmlmIiBmaWxsLW9wYWNpdHk9IjEiIGZpbGw9IiM1NjkzMzQiPm48L3RleHQ+PHRleHQgdHJhbnNmb3JtPSJtYXRyaXgoMSAwIDAgMSAxODA3Ljk4IDIyNTQpIiB0ZXh0LWRlY29yYXRpb249Im5vbmUiIHdyaXRpbmctbW9kZT0ibHItdGIiIGRpcmVjdGlvbj0ibHRyIiB0ZXh0LWFuY2hvcj0ic3RhcnQiIGZvbnQtc2l6ZT0iMzIiIGZvbnQtc3RyZXRjaD0ibm9ybWFsIiBmb250LXdlaWdodD0iMzAwIiBmb250LXZhcmlhbnQ9Im5vcm1hbCIgZm9udC1zdHlsZT0ibm9ybWFsIiBmb250LWZhbWlseT0iQ2lzY29TYW5zVFQgTGlnaHQsQ2lzY29TYW5zVFQgTGlnaHRfTVNGb250U2VydmljZSxzYW5zLXNlcmlmIiBmaWxsLW9wYWNpdHk9IjEiIGZpbGw9IiM1NjkzMzQiPklEX248L3RleHQ+PHBhdGggZmlsbC1ydWxlPSJldmVub2RkIiBmaWxsPSJub25lIiBzdHJva2Utb3BhY2l0eT0iMSIgc3Ryb2tlLW1pdGVybGltaXQ9IjgiIHN0cm9rZS1saW5lam9pbj0ibWl0ZXIiIHN0cm9rZS1saW5lY2FwPSJidXR0IiBzdHJva2Utd2lkdGg9IjIuMjkxNjciIHN0cm9rZT0iIzQxNDI0NCIgZD0iTTM3MSA1NzUuMDAxQzM3MSA1NDAuNzU5IDM5OC43NTkgNTEzIDQzMy4wMDEgNTEzTDY4MC45OTkgNTEzQzcxNS4yNDEgNTEzIDc0MyA1NDAuNzU5IDc0MyA1NzUuMDAxTDc0MyA5MzcuOTk5Qzc0MyA5NzIuMjQxIDcxNS4yNDEgMTAwMCA2ODAuOTk5IDEwMDBMNDMzLjAwMSAxMDAwQzM5OC43NTkgMTAwMCAzNzEgOTcyLjI0MSAzNzEgOTM3Ljk5OVoiLz48dGV4dCB0cmFuc2Zvcm09Im1hdHJpeCgxIDAgMCAxIDUzMC45NTkgNTc3KSIgdGV4dC1kZWNvcmF0aW9uPSJub25lIiB3cml0aW5nLW1vZGU9ImxyLXRiIiBkaXJlY3Rpb249Imx0ciIgdGV4dC1hbmNob3I9InN0YXJ0IiBmb250LXNpemU9IjMyIiBmb250LXN0cmV0Y2g9Im5vcm1hbCIgZm9udC13ZWlnaHQ9IjcwMCIgZm9udC12YXJpYW50PSJub3JtYWwiIGZvbnQtc3R5bGU9Im5vcm1hbCIgZm9udC1mYW1pbHk9IkNpc2NvU2Fuc1RULENpc2NvU2Fuc1RUX01TRm9udFNlcnZpY2Usc2Fucy1zZXJpZiIgZmlsbC1vcGFjaXR5PSIxIiBmaWxsPSIjNDE0MjQ0Ij5vcmc8L3RleHQ+PHBhdGggZmlsbC1ydWxlPSJldmVub2RkIiBmaWxsPSJub25lIiBzdHJva2Utb3BhY2l0eT0iMSIgc3Ryb2tlLW1pdGVybGltaXQ9IjgiIHN0cm9rZS1saW5lam9pbj0ibWl0ZXIiIHN0cm9rZS1saW5lY2FwPSJidXR0IiBzdHJva2Utd2lkdGg9IjIuMjkxNjciIHN0cm9rZT0iIzQxNDI0NCIgZD0iTTQxMCA2MjkuMzM0QzQxMCA2MjMuNjI3IDQxNC42MjcgNjE5IDQyMC4zMzQgNjE5TDY5Mi42NjcgNjE5QzY5OC4zNzQgNjE5IDcwMyA2MjMuNjI3IDcwMyA2MjkuMzM0TDcwMyA2NzAuNjY2QzcwMyA2NzYuMzc0IDY5OC4zNzQgNjgxIDY5Mi42NjcgNjgxTDQyMC4zMzQgNjgxQzQxNC42MjcgNjgxIDQxMCA2NzYuMzc0IDQxMCA2NzAuNjY2WiIvPjx0ZXh0IHRyYW5zZm9ybT0ibWF0cml4KDEgMCAwIDEgNDYxLjg1NiA2NjEpIiB0ZXh0LWRlY29yYXRpb249Im5vbmUiIHdyaXRpbmctbW9kZT0ibHItdGIiIGRpcmVjdGlvbj0ibHRyIiB0ZXh0LWFuY2hvcj0ic3RhcnQiIGZvbnQtc2l6ZT0iMzIiIGZvbnQtc3RyZXRjaD0ibm9ybWFsIiBmb250LXdlaWdodD0iNzAwIiBmb250LXZhcmlhbnQ9Im5vcm1hbCIgZm9udC1zdHlsZT0ibm9ybWFsIiBmb250LWZhbWlseT0iQ2lzY29TYW5zVFQsQ2lzY29TYW5zVFRfTVNGb250U2VydmljZSxzYW5zLXNlcmlmIiBmaWxsLW9wYWNpdHk9IjEiIGZpbGw9IiM0MTQyNDQiPm9yZzpzdWI8L3RleHQ+PHRleHQgdHJhbnNmb3JtPSJtYXRyaXgoMSAwIDAgMSA1ODEuMDIzIDY2MSkiIHRleHQtZGVjb3JhdGlvbj0ibm9uZSIgd3JpdGluZy1tb2RlPSJsci10YiIgZGlyZWN0aW9uPSJsdHIiIHRleHQtYW5jaG9yPSJzdGFydCIgZm9udC1zaXplPSIzMiIgZm9udC1zdHJldGNoPSJub3JtYWwiIGZvbnQtd2VpZ2h0PSI3MDAiIGZvbnQtdmFyaWFudD0ibm9ybWFsIiBmb250LXN0eWxlPSJub3JtYWwiIGZvbnQtZmFtaWx5PSJDaXNjb1NhbnNUVCxDaXNjb1NhbnNUVF9NU0ZvbnRTZXJ2aWNlLHNhbnMtc2VyaWYiIGZpbGwtb3BhY2l0eT0iMSIgZmlsbD0iIzQxNDI0NCI+LTwvdGV4dD48dGV4dCB0cmFuc2Zvcm09Im1hdHJpeCgxIDAgMCAxIDU5OC4yMSA2NjEpIiB0ZXh0LWRlY29yYXRpb249Im5vbmUiIHdyaXRpbmctbW9kZT0ibHItdGIiIGRpcmVjdGlvbj0ibHRyIiB0ZXh0LWFuY2hvcj0ic3RhcnQiIGZvbnQtc2l6ZT0iMzIiIGZvbnQtc3RyZXRjaD0ibm9ybWFsIiBmb250LXdlaWdodD0iNzAwIiBmb250LXZhcmlhbnQ9Im5vcm1hbCIgZm9udC1zdHlsZT0ibm9ybWFsIiBmb250LWZhbWlseT0iQ2lzY29TYW5zVFQsQ2lzY29TYW5zVFRfTVNGb250U2VydmljZSxzYW5zLXNlcmlmIiBmaWxsLW9wYWNpdHk9IjEiIGZpbGw9IiM0MTQyNDQiPm9yZzwvdGV4dD48cGF0aCBmaWxsLXJ1bGU9ImV2ZW5vZGQiIGZpbGw9Im5vbmUiIHN0cm9rZS1vcGFjaXR5PSIxIiBzdHJva2UtbWl0ZXJsaW1pdD0iOCIgc3Ryb2tlLWxpbmVqb2luPSJtaXRlciIgc3Ryb2tlLWxpbmVjYXA9ImJ1dHQiIHN0cm9rZS13aWR0aD0iMi4yOTE2NyIgc3Ryb2tlPSIjNDE0MjQ0IiBkPSJNNDEwIDg5NS4zMzRDNDEwIDg4OS42MjcgNDE0LjYyNyA4ODUgNDIwLjMzNCA4ODVMNjkyLjY2NyA4ODVDNjk4LjM3NCA4ODUgNzAzIDg4OS42MjcgNzAzIDg5NS4zMzRMNzAzIDkzNi42NjdDNzAzIDk0Mi4zNzQgNjk4LjM3NCA5NDcgNjkyLjY2NyA5NDdMNDIwLjMzNCA5NDdDNDE0LjYyNyA5NDcgNDEwIDk0Mi4zNzQgNDEwIDkzNi42NjdaIi8+PHRleHQgdHJhbnNmb3JtPSJtYXRyaXgoMSAwIDAgMSA0NjEuODU2IDkyNikiIHRleHQtZGVjb3JhdGlvbj0ibm9uZSIgd3JpdGluZy1tb2RlPSJsci10YiIgZGlyZWN0aW9uPSJsdHIiIHRleHQtYW5jaG9yPSJzdGFydCIgZm9udC1zaXplPSIzMiIgZm9udC1zdHJldGNoPSJub3JtYWwiIGZvbnQtd2VpZ2h0PSI3MDAiIGZvbnQtdmFyaWFudD0ibm9ybWFsIiBmb250LXN0eWxlPSJub3JtYWwiIGZvbnQtZmFtaWx5PSJDaXNjb1NhbnNUVCxDaXNjb1NhbnNUVF9NU0ZvbnRTZXJ2aWNlLHNhbnMtc2VyaWYiIGZpbGwtb3BhY2l0eT0iMSIgZmlsbD0iIzQxNDI0NCI+b3JnOnN1YjwvdGV4dD48dGV4dCB0cmFuc2Zvcm09Im1hdHJpeCgxIDAgMCAxIDU4MS4wMjMgOTI2KSIgdGV4dC1kZWNvcmF0aW9uPSJub25lIiB3cml0aW5nLW1vZGU9ImxyLXRiIiBkaXJlY3Rpb249Imx0ciIgdGV4dC1hbmNob3I9InN0YXJ0IiBmb250LXNpemU9IjMyIiBmb250LXN0cmV0Y2g9Im5vcm1hbCIgZm9udC13ZWlnaHQ9IjcwMCIgZm9udC12YXJpYW50PSJub3JtYWwiIGZvbnQtc3R5bGU9Im5vcm1hbCIgZm9udC1mYW1pbHk9IkNpc2NvU2Fuc1RULENpc2NvU2Fuc1RUX01TRm9udFNlcnZpY2Usc2Fucy1zZXJpZiIgZmlsbC1vcGFjaXR5PSIxIiBmaWxsPSIjNDE0MjQ0Ij4tPC90ZXh0Pjx0ZXh0IHRyYW5zZm9ybT0ibWF0cml4KDEgMCAwIDEgNTk4LjIxIDkyNikiIHRleHQtZGVjb3JhdGlvbj0ibm9uZSIgd3JpdGluZy1tb2RlPSJsci10YiIgZGlyZWN0aW9uPSJsdHIiIHRleHQtYW5jaG9yPSJzdGFydCIgZm9udC1zaXplPSIzMiIgZm9udC1zdHJldGNoPSJub3JtYWwiIGZvbnQtd2VpZ2h0PSI3MDAiIGZvbnQtdmFyaWFudD0ibm9ybWFsIiBmb250LXN0eWxlPSJub3JtYWwiIGZvbnQtZmFtaWx5PSJDaXNjb1NhbnNUVCxDaXNjb1NhbnNUVF9NU0ZvbnRTZXJ2aWNlLHNhbnMtc2VyaWYiIGZpbGwtb3BhY2l0eT0iMSIgZmlsbD0iIzQxNDI0NCI+b3JnPC90ZXh0PjxwYXRoIHRyYW5zZm9ybT0ibWF0cml4KDEgMCAwIC0xIDU1MyA4NTcuMDk3KSIgZmlsbC1ydWxlPSJldmVub2RkIiBmaWxsPSJub25lIiBzdHJva2Utb3BhY2l0eT0iMSIgc3Ryb2tlLWRhc2hhcnJheT0iOS4xNjY2NyA2Ljg3NSIgc3Ryb2tlLW1pdGVybGltaXQ9IjEwIiBzdHJva2UtbGluZWpvaW49InJvdW5kIiBzdHJva2UtbGluZWNhcD0iYnV0dCIgc3Ryb2tlLXdpZHRoPSIyLjI5MTY3IiBzdHJva2U9IiM0MTQyNDQiIGQ9Ik0wIDAgMC4wMDAzNjA4OTIgMTQ5LjA5NyIvPjxwYXRoIGZpbGwtb3BhY2l0eT0iMSIgZmlsbC1ydWxlPSJub256ZXJvIiBmaWxsPSIjNDE0MjQ0IiBkPSJNNzAzIDY0OC44NTQgODg3Ljk1NyA2NDguODU1IDg4Ny45NTcgNjUxLjE0NiA3MDMgNjUxLjE0NlpNODgzLjM3NCA2NDAuODM0IDkxMC44NzQgNjUwIDg4My4zNzQgNjU5LjE2N1oiLz48dGV4dCB0cmFuc2Zvcm09Im1hdHJpeCgxIDAgMCAxIDc5Mi4xMSA1ODEpIiB0ZXh0LWRlY29yYXRpb249Im5vbmUiIHdyaXRpbmctbW9kZT0ibHItdGIiIGRpcmVjdGlvbj0ibHRyIiB0ZXh0LWFuY2hvcj0ic3RhcnQiIGZvbnQtc2l6ZT0iMzIiIGZvbnQtc3RyZXRjaD0ibm9ybWFsIiBmb250LXdlaWdodD0iMzAwIiBmb250LXZhcmlhbnQ9Im5vcm1hbCIgZm9udC1zdHlsZT0ibm9ybWFsIiBmb250LWZhbWlseT0iQ2lzY29TYW5zVFQgRXh0cmFMaWdodCxDaXNjb1NhbnNUVCBFeHRyYUxpZ2h0X01TRm9udFNlcnZpY2Usc2Fucy1zZXJpZiIgZmlsbC1vcGFjaXR5PSIxIiBmaWxsPSIjNDE0MjQ0Ij5jcmVhdGVzPC90ZXh0PjxwYXRoIGZpbGwtcnVsZT0iZXZlbm9kZCIgZmlsbD0ibm9uZSIgc3Ryb2tlLW9wYWNpdHk9IjEiIHN0cm9rZS1taXRlcmxpbWl0PSIxMCIgc3Ryb2tlLWxpbmVqb2luPSJyb3VuZCIgc3Ryb2tlLWxpbmVjYXA9ImJ1dHQiIHN0cm9rZS13aWR0aD0iMi4yOTE2NyIgc3Ryb2tlPSIjNDE0MjQ0IiBkPSJNOTE3IDY0OS41QzkxNyA2MDEuNzI3IDk5MS4zMjEgNTYzIDEwODMgNTYzIDExNzQuNjggNTYzIDEyNDkgNjAxLjcyNyAxMjQ5IDY0OS41IDEyNDkgNjk3LjI3MyAxMTc0LjY4IDczNiAxMDgzIDczNiA5OTEuMzIxIDczNiA5MTcgNjk3LjI3MyA5MTcgNjQ5LjVaIi8+PHRleHQgdHJhbnNmb3JtPSJtYXRyaXgoMSAwIDAgMSAxMDQwLjExIDYzNykiIHRleHQtZGVjb3JhdGlvbj0ibm9uZSIgd3JpdGluZy1tb2RlPSJsci10YiIgZGlyZWN0aW9uPSJsdHIiIHRleHQtYW5jaG9yPSJzdGFydCIgZm9udC1zaXplPSIzMiIgZm9udC1zdHJldGNoPSJub3JtYWwiIGZvbnQtd2VpZ2h0PSIzMDAiIGZvbnQtdmFyaWFudD0ibm9ybWFsIiBmb250LXN0eWxlPSJub3JtYWwiIGZvbnQtZmFtaWx5PSJDaXNjb1NhbnNUVCBFeHRyYUxpZ2h0LENpc2NvU2Fuc1RUIEV4dHJhTGlnaHRfTVNGb250U2VydmljZSxzYW5zLXNlcmlmIiBmaWxsLW9wYWNpdHk9IjEiIGZpbGw9IiM0MTQyNDQiPkFnZW50PC90ZXh0Pjx0ZXh0IHRyYW5zZm9ybT0ibWF0cml4KDEgMCAwIDEgMTAzMC42NiA2ODUpIiB0ZXh0LWRlY29yYXRpb249Im5vbmUiIHdyaXRpbmctbW9kZT0ibHItdGIiIGRpcmVjdGlvbj0ibHRyIiB0ZXh0LWFuY2hvcj0ic3RhcnQiIGZvbnQtc2l6ZT0iMzIiIGZvbnQtc3RyZXRjaD0ibm9ybWFsIiBmb250LXdlaWdodD0iMzAwIiBmb250LXZhcmlhbnQ9Im5vcm1hbCIgZm9udC1zdHlsZT0ibm9ybWFsIiBmb250LWZhbWlseT0iQ2lzY29TYW5zVFQgRXh0cmFMaWdodCxDaXNjb1NhbnNUVCBFeHRyYUxpZ2h0X01TRm9udFNlcnZpY2Usc2Fucy1zZXJpZiIgZmlsbC1vcGFjaXR5PSIxIiBmaWxsPSIjNDE0MjQ0Ij5zdWJqZWN0PC90ZXh0PjxyZWN0IGZpbGwtb3BhY2l0eT0iMSIgZmlsbD0iI0RCRTdGOSIgc3Ryb2tlLW9wYWNpdHk9IjEiIHN0cm9rZS1taXRlcmxpbWl0PSIxMCIgc3Ryb2tlLWxpbmVqb2luPSJyb3VuZCIgc3Ryb2tlLWxpbmVjYXA9ImJ1dHQiIHN0cm9rZS13aWR0aD0iMi4yOTE2NyIgc3Ryb2tlPSIjNDE0MjQ0IiBoZWlnaHQ9IjcwMSIgd2lkdGg9IjUxNiIgeT0iNDYzIiB4PSIxODkxIi8+PHBhdGggdHJhbnNmb3JtPSJtYXRyaXgoMSAwIDAgLTEgMTI0OSA2NDcpIiBmaWxsLW9wYWNpdHk9IjEiIGZpbGwtcnVsZT0ibm9uemVybyIgZmlsbD0iIzQxNDI0NCIgZD0iTTIuOTM4OWUtMDYtMS4xNDU4MyAxMTcuNzktMS4xNDU1MyAxMTcuNzkgMS4xNDYxNC0yLjkzODllLTA2IDEuMTQ1ODNaTTExMy4yMDctOS4xNjYzOCAxNDAuNzA3IDAuMDAwMzYwODkyIDExMy4yMDcgOS4xNjY5NloiLz48dGV4dCB0cmFuc2Zvcm09Im1hdHJpeCgxIDAgMCAxIDEyNzUuNTIgNTgyKSIgdGV4dC1kZWNvcmF0aW9uPSJub25lIiB3cml0aW5nLW1vZGU9ImxyLXRiIiBkaXJlY3Rpb249Imx0ciIgdGV4dC1hbmNob3I9InN0YXJ0IiBmb250LXNpemU9IjMyIiBmb250LXN0cmV0Y2g9Im5vcm1hbCIgZm9udC13ZWlnaHQ9IjMwMCIgZm9udC12YXJpYW50PSJub3JtYWwiIGZvbnQtc3R5bGU9Im5vcm1hbCIgZm9udC1mYW1pbHk9IkNpc2NvU2Fuc1RUIEV4dHJhTGlnaHQsQ2lzY29TYW5zVFQgRXh0cmFMaWdodF9NU0ZvbnRTZXJ2aWNlLHNhbnMtc2VyaWYiIGZpbGwtb3BhY2l0eT0iMSIgZmlsbD0iIzQxNDI0NCI+dXNlczwvdGV4dD48cGF0aCBmaWxsLXJ1bGU9ImV2ZW5vZGQiIGZpbGw9Im5vbmUiIHN0cm9rZS1vcGFjaXR5PSIxIiBzdHJva2UtbWl0ZXJsaW1pdD0iOCIgc3Ryb2tlLWxpbmVqb2luPSJtaXRlciIgc3Ryb2tlLWxpbmVjYXA9ImJ1dHQiIHN0cm9rZS13aWR0aD0iMi4yOTE2NyIgc3Ryb2tlPSIjNDE0MjQ0IiBkPSJNMTM5NyA1ODQuMzM0QzEzOTcgNTY3LjAyOSAxNDExLjAzIDU1MyAxNDI4LjMzIDU1M0wxNjA0LjY3IDU1M0MxNjIxLjk3IDU1MyAxNjM2IDU2Ny4wMjkgMTYzNiA1ODQuMzM0TDE2MzYgNzA5LjY2NkMxNjM2IDcyNi45NzEgMTYyMS45NyA3NDEgMTYwNC42NyA3NDFMMTQyOC4zMyA3NDFDMTQxMS4wMyA3NDEgMTM5NyA3MjYuOTcxIDEzOTcgNzA5LjY2NloiLz48dGV4dCB0cmFuc2Zvcm09Im1hdHJpeCgxIDAgMCAxIDE0NTIuMyA2MzcpIiB0ZXh0LWRlY29yYXRpb249Im5vbmUiIHdyaXRpbmctbW9kZT0ibHItdGIiIGRpcmVjdGlvbj0ibHRyIiB0ZXh0LWFuY2hvcj0ic3RhcnQiIGZvbnQtc2l6ZT0iMzIiIGZvbnQtc3RyZXRjaD0ibm9ybWFsIiBmb250LXdlaWdodD0iNzAwIiBmb250LXZhcmlhbnQ9Im5vcm1hbCIgZm9udC1zdHlsZT0ibm9ybWFsIiBmb250LWZhbWlseT0iQ2lzY29TYW5zVFQsQ2lzY29TYW5zVFRfTVNGb250U2VydmljZSxzYW5zLXNlcmlmIiBmaWxsLW9wYWNpdHk9IjEiIGZpbGw9IiMwMDAwMDAiPlNjaGVtYSA8L3RleHQ+PHRleHQgdHJhbnNmb3JtPSJtYXRyaXgoMSAwIDAgMSAxNDIzLjY1IDY4MykiIHRleHQtZGVjb3JhdGlvbj0ibm9uZSIgd3JpdGluZy1tb2RlPSJsci10YiIgZGlyZWN0aW9uPSJsdHIiIHRleHQtYW5jaG9yPSJzdGFydCIgZm9udC1zaXplPSIzMiIgZm9udC1zdHJldGNoPSJub3JtYWwiIGZvbnQtd2VpZ2h0PSI0MDAiIGZvbnQtdmFyaWFudD0ibm9ybWFsIiBmb250LXN0eWxlPSJub3JtYWwiIGZvbnQtZmFtaWx5PSJDaXNjb1NhbnNUVCxDaXNjb1NhbnNUVF9NU0ZvbnRTZXJ2aWNlLHNhbnMtc2VyaWYiIGZpbGwtb3BhY2l0eT0iMSIgZmlsbD0iIzAwMDAwMCI+KGUuZy4sIE9BU0YpPC90ZXh0PjxwYXRoIGZpbGwtb3BhY2l0eT0iMSIgZmlsbC1ydWxlPSJldmVub2RkIiBmaWxsPSIjRkZGRkZGIiBzdHJva2Utb3BhY2l0eT0iMSIgc3Ryb2tlLW1pdGVybGltaXQ9IjgiIHN0cm9rZS1saW5lam9pbj0ibWl0ZXIiIHN0cm9rZS1saW5lY2FwPSJidXR0IiBzdHJva2Utd2lkdGg9IjIuMjkxNjciIHN0cm9rZT0iIzQxNDI0NCIgZD0iTTE5NjMgNjAzLjY2OEMxOTYzIDU3NS42ODUgMTk4NS42OCA1NTMgMjAxMy42NyA1NTNMMjI4NC4zMyA1NTNDMjMxMi4zMiA1NTMgMjMzNSA1NzUuNjg1IDIzMzUgNjAzLjY2OEwyMzM1IDgwNi4zMzJDMjMzNSA4MzQuMzE1IDIzMTIuMzIgODU3IDIyODQuMzMgODU3TDIwMTMuNjcgODU3QzE5ODUuNjggODU3IDE5NjMgODM0LjMxNSAxOTYzIDgwNi4zMzJaIi8+PHRleHQgdHJhbnNmb3JtPSJtYXRyaXgoMSAwIDAgMSAyMDc2Ljc4IDYxOSkiIHRleHQtZGVjb3JhdGlvbj0ibm9uZSIgd3JpdGluZy1tb2RlPSJsci10YiIgZGlyZWN0aW9uPSJsdHIiIHRleHQtYW5jaG9yPSJzdGFydCIgZm9udC1zaXplPSIzMiIgZm9udC1zdHJldGNoPSJub3JtYWwiIGZvbnQtd2VpZ2h0PSI3MDAiIGZvbnQtdmFyaWFudD0ibm9ybWFsIiBmb250LXN0eWxlPSJub3JtYWwiIGZvbnQtZmFtaWx5PSJDaXNjb1NhbnNUVCxDaXNjb1NhbnNUVF9NU0ZvbnRTZXJ2aWNlLHNhbnMtc2VyaWYiIGZpbGwtb3BhY2l0eT0iMSIgZmlsbD0iIzAwMDAwMCI+U3RhbmRhcmQgPC90ZXh0Pjx0ZXh0IHRyYW5zZm9ybT0ibWF0cml4KDEgMCAwIDEgMjAxMi4zNCA2NjkpIiB0ZXh0LWRlY29yYXRpb249Im5vbmUiIHdyaXRpbmctbW9kZT0ibHItdGIiIGRpcmVjdGlvbj0ibHRyIiB0ZXh0LWFuY2hvcj0ic3RhcnQiIGZvbnQtc2l6ZT0iMzIiIGZvbnQtc3RyZXRjaD0ibm9ybWFsIiBmb250LXdlaWdodD0iNzAwIiBmb250LXZhcmlhbnQ9Im5vcm1hbCIgZm9udC1zdHlsZT0ibm9ybWFsIiBmb250LWZhbWlseT0iQ2lzY29TYW5zVFQsQ2lzY29TYW5zVFRfTVNGb250U2VydmljZSxzYW5zLXNlcmlmIiBmaWxsLW9wYWNpdHk9IjEiIGZpbGw9IiMwMDAwMDAiPnJlcHJlc2VudGF0aW9uIG9mIDwvdGV4dD48dGV4dCB0cmFuc2Zvcm09Im1hdHJpeCgxIDAgMCAxIDIwMzkuMjYgNzIwKSIgdGV4dC1kZWNvcmF0aW9uPSJub25lIiB3cml0aW5nLW1vZGU9ImxyLXRiIiBkaXJlY3Rpb249Imx0ciIgdGV4dC1hbmNob3I9InN0YXJ0IiBmb250LXNpemU9IjMyIiBmb250LXN0cmV0Y2g9Im5vcm1hbCIgZm9udC13ZWlnaHQ9IjcwMCIgZm9udC12YXJpYW50PSJub3JtYWwiIGZvbnQtc3R5bGU9Im5vcm1hbCIgZm9udC1mYW1pbHk9IkNpc2NvU2Fuc1RULENpc2NvU2Fuc1RUX01TRm9udFNlcnZpY2Usc2Fucy1zZXJpZiIgZmlsbC1vcGFjaXR5PSIxIiBmaWxsPSIjMDAwMDAwIj5BZ2VudCBzdWJqZWN0IDwvdGV4dD48dGV4dCB0cmFuc2Zvcm09Im1hdHJpeCgxIDAgMCAxIDIwNDYuOTkgNzcwKSIgdGV4dC1kZWNvcmF0aW9uPSJub25lIiB3cml0aW5nLW1vZGU9ImxyLXRiIiBkaXJlY3Rpb249Imx0ciIgdGV4dC1hbmNob3I9InN0YXJ0IiBmb250LXNpemU9IjMyIiBmb250LXN0cmV0Y2g9Im5vcm1hbCIgZm9udC13ZWlnaHQ9IjMwMCIgZm9udC12YXJpYW50PSJub3JtYWwiIGZvbnQtc3R5bGU9Im5vcm1hbCIgZm9udC1mYW1pbHk9IkNpc2NvU2Fuc1RUIEV4dHJhTGlnaHQsQ2lzY29TYW5zVFQgRXh0cmFMaWdodF9NU0ZvbnRTZXJ2aWNlLHNhbnMtc2VyaWYiIGZpbGwtb3BhY2l0eT0iMSIgZmlsbD0iIzAwMDAwMCI+KGUuZy4sIGluIEpTT04gPC90ZXh0Pjx0ZXh0IHRyYW5zZm9ybT0ibWF0cml4KDEgMCAwIDEgMjA5Ni41NiA4MjApIiB0ZXh0LWRlY29yYXRpb249Im5vbmUiIHdyaXRpbmctbW9kZT0ibHItdGIiIGRpcmVjdGlvbj0ibHRyIiB0ZXh0LWFuY2hvcj0ic3RhcnQiIGZvbnQtc2l6ZT0iMzIiIGZvbnQtc3RyZXRjaD0ibm9ybWFsIiBmb250LXdlaWdodD0iMzAwIiBmb250LXZhcmlhbnQ9Im5vcm1hbCIgZm9udC1zdHlsZT0ibm9ybWFsIiBmb250LWZhbWlseT0iQ2lzY29TYW5zVFQgRXh0cmFMaWdodCxDaXNjb1NhbnNUVCBFeHRyYUxpZ2h0X01TRm9udFNlcnZpY2Usc2Fucy1zZXJpZiIgZmlsbC1vcGFjaXR5PSIxIiBmaWxsPSIjMDAwMDAwIj5mb3JtYXQpPC90ZXh0PjxwYXRoIHRyYW5zZm9ybT0ibWF0cml4KDEgMCAwIC0xIDE2MzYgNjQ1KSIgZmlsbC1vcGFjaXR5PSIxIiBmaWxsLXJ1bGU9Im5vbnplcm8iIGZpbGw9IiM0MTQyNDQiIGQ9Ik0xLjI3MzE1ZS0wNi0xLjE0NTgzIDMwMS44ODctMS4xNDU1IDMwMS44ODcgMS4xNDYxNy0xLjI3MzE1ZS0wNiAxLjE0NTgzWk0yOTcuMzAzLTkuMTY2MzQgMzI0LjgwMyAwLjAwMDM2MDg5MiAyOTcuMzAzIDkuMTY3WiIvPjx0ZXh0IHRyYW5zZm9ybT0ibWF0cml4KDEgMCAwIDEgMTY3MS42MSA1ODEpIiB0ZXh0LWRlY29yYXRpb249Im5vbmUiIHdyaXRpbmctbW9kZT0ibHItdGIiIGRpcmVjdGlvbj0ibHRyIiB0ZXh0LWFuY2hvcj0ic3RhcnQiIGZvbnQtc2l6ZT0iMzIiIGZvbnQtc3RyZXRjaD0ibm9ybWFsIiBmb250LXdlaWdodD0iMzAwIiBmb250LXZhcmlhbnQ9Im5vcm1hbCIgZm9udC1zdHlsZT0ibm9ybWFsIiBmb250LWZhbWlseT0iQ2lzY29TYW5zVFQgRXh0cmFMaWdodCxDaXNjb1NhbnNUVCBFeHRyYUxpZ2h0X01TRm9udFNlcnZpY2Usc2Fucy1zZXJpZiIgZmlsbC1vcGFjaXR5PSIxIiBmaWxsPSIjNDE0MjQ0Ij50byBjcmVhdGU8L3RleHQ+PHBhdGggZmlsbC1vcGFjaXR5PSIxIiBmaWxsLXJ1bGU9ImV2ZW5vZGQiIGZpbGw9IiNGRkZGRkYiIHN0cm9rZS1vcGFjaXR5PSIxIiBzdHJva2UtbWl0ZXJsaW1pdD0iOCIgc3Ryb2tlLWxpbmVqb2luPSJtaXRlciIgc3Ryb2tlLWxpbmVjYXA9ImJ1dHQiIHN0cm9rZS13aWR0aD0iMi4yOTE2NyIgc3Ryb2tlPSIjNDE0MjQ0IiBkPSJNMjAwMCAxMDI2LjVDMjAwMCAxMDE3LjM5IDIwMDcuMzkgMTAxMCAyMDE2LjUgMTAxMEwyMjc2LjUgMTAxMEMyMjg1LjYxIDEwMTAgMjI5MyAxMDE3LjM5IDIyOTMgMTAyNi41TDIyOTMgMTA5Mi41QzIyOTMgMTEwMS42MSAyMjg1LjYxIDExMDkgMjI3Ni41IDExMDlMMjAxNi41IDExMDlDMjAwNy4zOSAxMTA5IDIwMDAgMTEwMS42MSAyMDAwIDEwOTIuNVoiLz48dGV4dCB0cmFuc2Zvcm09Im1hdHJpeCgxIDAgMCAxIDIwOTYgMTA3MCkiIHRleHQtZGVjb3JhdGlvbj0ibm9uZSIgd3JpdGluZy1tb2RlPSJsci10YiIgZGlyZWN0aW9uPSJsdHIiIHRleHQtYW5jaG9yPSJzdGFydCIgZm9udC1zaXplPSIzMiIgZm9udC1zdHJldGNoPSJub3JtYWwiIGZvbnQtd2VpZ2h0PSI3MDAiIGZvbnQtdmFyaWFudD0ibm9ybWFsIiBmb250LXN0eWxlPSJub3JtYWwiIGZvbnQtZmFtaWx5PSJDaXNjb1NhbnNUVCxDaXNjb1NhbnNUVF9NU0ZvbnRTZXJ2aWNlLHNhbnMtc2VyaWYiIGZpbGwtb3BhY2l0eT0iMSIgZmlsbD0iIzQxNDI0NCI+RGlnZXN0PC90ZXh0Pjx0ZXh0IHRyYW5zZm9ybT0ibWF0cml4KDEgMCAwIDEgMjE4OS43NiA5NDApIiB0ZXh0LWRlY29yYXRpb249Im5vbmUiIHdyaXRpbmctbW9kZT0ibHItdGIiIGRpcmVjdGlvbj0ibHRyIiB0ZXh0LWFuY2hvcj0ic3RhcnQiIGZvbnQtc2l6ZT0iMzIiIGZvbnQtc3RyZXRjaD0ibm9ybWFsIiBmb250LXdlaWdodD0iMzAwIiBmb250LXZhcmlhbnQ9Im5vcm1hbCIgZm9udC1zdHlsZT0ibm9ybWFsIiBmb250LWZhbWlseT0iQ2lzY29TYW5zVFQgRXh0cmFMaWdodCxDaXNjb1NhbnNUVCBFeHRyYUxpZ2h0X01TRm9udFNlcnZpY2Usc2Fucy1zZXJpZiIgZmlsbC1vcGFjaXR5PSIxIiBmaWxsPSIjNDE0MjQ0Ij5pcyBoYXNoZWQ8L3RleHQ+PHBhdGggZmlsbC1vcGFjaXR5PSIxIiBmaWxsLXJ1bGU9Im5vbnplcm8iIGZpbGw9IiM0MTQyNDQiIGQ9Ik0yMTUwLjE1IDg1NyAyMTUwLjE1IDk3Ny4yMTUgMjE0Ny44NSA5NzcuMjE1IDIxNDcuODUgODU3Wk0yMTU4LjE3IDk3Mi42MzIgMjE0OSAxMDAwLjEzIDIxMzkuODMgOTcyLjYzMloiLz48cGF0aCBmaWxsLXJ1bGU9ImV2ZW5vZGQiIGZpbGw9Im5vbmUiIHN0cm9rZS1vcGFjaXR5PSIxIiBzdHJva2UtZGFzaGFycmF5PSI5LjE2NjY3IDYuODc1IiBzdHJva2UtbWl0ZXJsaW1pdD0iMTAiIHN0cm9rZS1saW5lam9pbj0icm91bmQiIHN0cm9rZS1saW5lY2FwPSJidXR0IiBzdHJva2Utd2lkdGg9IjIuMjkxNjciIHN0cm9rZT0iIzU2OTMzNCIgZD0iTTIwNjEuMjUgMTY5My41NiAxODUzIDE0NjIiLz48cGF0aCB0cmFuc2Zvcm09Im1hdHJpeCgxIDAgMCAtMSAyMjM3IDE2OTIuNTYpIiBmaWxsLXJ1bGU9ImV2ZW5vZGQiIGZpbGw9Im5vbmUiIHN0cm9rZS1vcGFjaXR5PSIxIiBzdHJva2UtZGFzaGFycmF5PSI5LjE2NjY3IDYuODc1IiBzdHJva2UtbWl0ZXJsaW1pdD0iMTAiIHN0cm9rZS1saW5lam9pbj0icm91bmQiIHN0cm9rZS1saW5lY2FwPSJidXR0IiBzdHJva2Utd2lkdGg9IjIuMjkxNjciIHN0cm9rZT0iIzU2OTMzNCIgZD0iTTAgMCAyMDguMjQ5IDIzMS41NjQiLz48ZyB0cmFuc2Zvcm09Im1hdHJpeCgwLjAwMDM2MDg5MiAwIDAgMC4wMDAzNjA4OTIgMjA2MCAxNjY2KSI+PGcgY2xpcC1wYXRoPSJ1cmwoI2NsaXAxKSI+PHVzZSB0cmFuc2Zvcm09Im1hdHJpeCg3MDUuNjU3IDAgMCA3MDUuNjU3IC0wLjA5Mjc3MzQgLTAuMzc1MTMzKSIgb3BhY2l0eT0iMSIgeGxpbms6aHJlZj0iI2ltZzAiIGhlaWdodD0iMTAwJSIgd2lkdGg9IjEwMCUiLz48L2c+PC9nPjx0ZXh0IHRyYW5zZm9ybT0ibWF0cml4KDEgMCAwIDEgMjA4MC42OCAxNTYxKSIgdGV4dC1kZWNvcmF0aW9uPSJub25lIiB3cml0aW5nLW1vZGU9ImxyLXRiIiBkaXJlY3Rpb249Imx0ciIgdGV4dC1hbmNob3I9InN0YXJ0IiBmb250LXNpemU9IjMyIiBmb250LXN0cmV0Y2g9Im5vcm1hbCIgZm9udC13ZWlnaHQ9IjcwMCIgZm9udC12YXJpYW50PSJub3JtYWwiIGZvbnQtc3R5bGU9Im5vcm1hbCIgZm9udC1mYW1pbHk9IkNpc2NvU2Fuc1RULENpc2NvU2Fuc1RUX01TRm9udFNlcnZpY2Usc2Fucy1zZXJpZiIgZmlsbC1vcGFjaXR5PSIxIiBmaWxsPSIjNTY5MzM0Ij5WZXJpZmlhYmxlIDwvdGV4dD48dGV4dCB0cmFuc2Zvcm09Im1hdHJpeCgxIDAgMCAxIDIxMDguNzYgMTYwMCkiIHRleHQtZGVjb3JhdGlvbj0ibm9uZSIgd3JpdGluZy1tb2RlPSJsci10YiIgZGlyZWN0aW9uPSJsdHIiIHRleHQtYW5jaG9yPSJzdGFydCIgZm9udC1zaXplPSIzMiIgZm9udC1zdHJldGNoPSJub3JtYWwiIGZvbnQtd2VpZ2h0PSI3MDAiIGZvbnQtdmFyaWFudD0ibm9ybWFsIiBmb250LXN0eWxlPSJub3JtYWwiIGZvbnQtZmFtaWx5PSJDaXNjb1NhbnNUVCxDaXNjb1NhbnNUVF9NU0ZvbnRTZXJ2aWNlLHNhbnMtc2VyaWYiIGZpbGwtb3BhY2l0eT0iMSIgZmlsbD0iIzU2OTMzNCI+QWdlbnQgPC90ZXh0Pjx0ZXh0IHRyYW5zZm9ybT0ibWF0cml4KDEgMCAwIDEgMjA4NS4yNyAxNjM4KSIgdGV4dC1kZWNvcmF0aW9uPSJub25lIiB3cml0aW5nLW1vZGU9ImxyLXRiIiBkaXJlY3Rpb249Imx0ciIgdGV4dC1hbmNob3I9InN0YXJ0IiBmb250LXNpemU9IjMyIiBmb250LXN0cmV0Y2g9Im5vcm1hbCIgZm9udC13ZWlnaHQ9IjcwMCIgZm9udC12YXJpYW50PSJub3JtYWwiIGZvbnQtc3R5bGU9Im5vcm1hbCIgZm9udC1mYW1pbHk9IkNpc2NvU2Fuc1RULENpc2NvU2Fuc1RUX01TRm9udFNlcnZpY2Usc2Fucy1zZXJpZiIgZmlsbC1vcGFjaXR5PSIxIiBmaWxsPSIjNTY5MzM0Ij5QYXNzcG9ydDwvdGV4dD48cGF0aCBmaWxsLXJ1bGU9ImV2ZW5vZGQiIGZpbGw9Im5vbmUiIHN0cm9rZS1vcGFjaXR5PSIxIiBzdHJva2UtbWl0ZXJsaW1pdD0iOCIgc3Ryb2tlLWxpbmVqb2luPSJtaXRlciIgc3Ryb2tlLWxpbmVjYXA9ImJ1dHQiIHN0cm9rZS13aWR0aD0iMi4yOTE2NyIgc3Ryb2tlPSIjNDE0MjQ0IiBkPSJNOTk3IDg3NkM5OTcgODY1LjUwNyAxMDA1LjUxIDg1NyAxMDE2IDg1N0wxMTQ4IDg1N0MxMTU4LjQ5IDg1NyAxMTY3IDg2NS41MDcgMTE2NyA4NzZMMTE2NyA5NTJDMTE2NyA5NjIuNDkzIDExNTguNDkgOTcxIDExNDggOTcxTDEwMTYgOTcxQzEwMDUuNTEgOTcxIDk5NyA5NjIuNDkzIDk5NyA5NTJaIi8+PHRleHQgdHJhbnNmb3JtPSJtYXRyaXgoMSAwIDAgMSAxMDMzLjAxIDkyNykiIHRleHQtZGVjb3JhdGlvbj0ibm9uZSIgd3JpdGluZy1tb2RlPSJsci10YiIgZGlyZWN0aW9uPSJsdHIiIHRleHQtYW5jaG9yPSJzdGFydCIgZm9udC1zaXplPSIzMiIgZm9udC1zdHJldGNoPSJub3JtYWwiIGZvbnQtd2VpZ2h0PSI3MDAiIGZvbnQtdmFyaWFudD0ibm9ybWFsIiBmb250LXN0eWxlPSJub3JtYWwiIGZvbnQtZmFtaWx5PSJDaXNjb1NhbnNUVCxDaXNjb1NhbnNUVF9NU0ZvbnRTZXJ2aWNlLHNhbnMtc2VyaWYiIGZpbGwtb3BhY2l0eT0iMSIgZmlsbD0iIzAwMDAwMCI+V2FsbGV0PC90ZXh0PjxwYXRoIGZpbGwtb3BhY2l0eT0iMSIgZmlsbC1ydWxlPSJub256ZXJvIiBmaWxsPSIjNDE0MjQ0IiBkPSJNNzAzLjc2NSA2NDkuMTQ3IDk4MC43NTYgODk3Ljc1OCA5NzkuMjI1IDg5OS40NjMgNzAyLjIzNSA2NTAuODUzWk05ODIuNzAyIDg4OC43MjcgOTk3LjA0NSA5MTMuOTE4IDk3MC40NTYgOTAyLjM3MVoiLz48dGV4dCB0cmFuc2Zvcm09Im1hdHJpeCgxIDAgMCAxIDkyMi44MTYgODE5KSIgdGV4dC1kZWNvcmF0aW9uPSJub25lIiB3cml0aW5nLW1vZGU9ImxyLXRiIiBkaXJlY3Rpb249Imx0ciIgdGV4dC1hbmNob3I9InN0YXJ0IiBmb250LXNpemU9IjMyIiBmb250LXN0cmV0Y2g9Im5vcm1hbCIgZm9udC13ZWlnaHQ9IjMwMCIgZm9udC12YXJpYW50PSJub3JtYWwiIGZvbnQtc3R5bGU9Im5vcm1hbCIgZm9udC1mYW1pbHk9IkNpc2NvU2Fuc1RUIEV4dHJhTGlnaHQsQ2lzY29TYW5zVFQgRXh0cmFMaWdodF9NU0ZvbnRTZXJ2aWNlLHNhbnMtc2VyaWYiIGZpbGwtb3BhY2l0eT0iMSIgZmlsbD0iIzQxNDI0NCI+dXNlczwvdGV4dD48cmVjdCBmaWxsPSJub25lIiBzdHJva2Utb3BhY2l0eT0iMSIgc3Ryb2tlLWRhc2hhcnJheT0iOS4xNjY2NyA2Ljg3NSIgc3Ryb2tlLW1pdGVybGltaXQ9IjEwIiBzdHJva2UtbGluZWpvaW49InJvdW5kIiBzdHJva2UtbGluZWNhcD0iYnV0dCIgc3Ryb2tlLXdpZHRoPSIyLjI5MTY3IiBzdHJva2U9IiM0MTQyNDQiIGhlaWdodD0iMTQ0IiB3aWR0aD0iMTg1IiB5PSIxMTA0IiB4PSI5OTEiLz48dGV4dCB0cmFuc2Zvcm09Im1hdHJpeCgxIDAgMCAxIDEwMTIuNiAxMTY4KSIgdGV4dC1kZWNvcmF0aW9uPSJub25lIiB3cml0aW5nLW1vZGU9ImxyLXRiIiBkaXJlY3Rpb249Imx0ciIgdGV4dC1hbmNob3I9InN0YXJ0IiBmb250LXNpemU9IjMyIiBmb250LXN0cmV0Y2g9Im5vcm1hbCIgZm9udC13ZWlnaHQ9IjMwMCIgZm9udC12YXJpYW50PSJub3JtYWwiIGZvbnQtc3R5bGU9Im5vcm1hbCIgZm9udC1mYW1pbHk9IkNpc2NvU2Fuc1RUIEV4dHJhTGlnaHQsQ2lzY29TYW5zVFQgRXh0cmFMaWdodF9NU0ZvbnRTZXJ2aWNlLHNhbnMtc2VyaWYiIGZpbGwtb3BhY2l0eT0iMSIgZmlsbD0iIzQxNDI0NCI+KDwvdGV4dD48dGV4dCB0cmFuc2Zvcm09Im1hdHJpeCgxIDAgMCAxIDEwMjMuNDkgMTE2OCkiIHRleHQtZGVjb3JhdGlvbj0ibm9uZSIgd3JpdGluZy1tb2RlPSJsci10YiIgZGlyZWN0aW9uPSJsdHIiIHRleHQtYW5jaG9yPSJzdGFydCIgZm9udC1zaXplPSIzMiIgZm9udC1zdHJldGNoPSJub3JtYWwiIGZvbnQtd2VpZ2h0PSI3MDAiIGZvbnQtdmFyaWFudD0ibm9ybWFsIiBmb250LXN0eWxlPSJub3JtYWwiIGZvbnQtZmFtaWx5PSJDaXNjb1NhbnNUVCxDaXNjb1NhbnNUVF9NU0ZvbnRTZXJ2aWNlLHNhbnMtc2VyaWYiIGZpbGwtb3BhY2l0eT0iMSIgZmlsbD0iIzQxNDI0NCI+UHViS2V5PC90ZXh0Pjx0ZXh0IHRyYW5zZm9ybT0ibWF0cml4KDEgMCAwIDEgMTE0NC45NCAxMTY4KSIgdGV4dC1kZWNvcmF0aW9uPSJub25lIiB3cml0aW5nLW1vZGU9ImxyLXRiIiBkaXJlY3Rpb249Imx0ciIgdGV4dC1hbmNob3I9InN0YXJ0IiBmb250LXNpemU9IjMyIiBmb250LXN0cmV0Y2g9Im5vcm1hbCIgZm9udC13ZWlnaHQ9IjMwMCIgZm9udC12YXJpYW50PSJub3JtYWwiIGZvbnQtc3R5bGU9Im5vcm1hbCIgZm9udC1mYW1pbHk9IkNpc2NvU2Fuc1RUIEV4dHJhTGlnaHQsQ2lzY29TYW5zVFQgRXh0cmFMaWdodF9NU0ZvbnRTZXJ2aWNlLHNhbnMtc2VyaWYiIGZpbGwtb3BhY2l0eT0iMSIgZmlsbD0iIzQxNDI0NCI+LCA8L3RleHQ+PHRleHQgdHJhbnNmb3JtPSJtYXRyaXgoMSAwIDAgMSAxMDIxLjQ5IDEyMDcpIiB0ZXh0LWRlY29yYXRpb249Im5vbmUiIHdyaXRpbmctbW9kZT0ibHItdGIiIGRpcmVjdGlvbj0ibHRyIiB0ZXh0LWFuY2hvcj0ic3RhcnQiIGZvbnQtc2l6ZT0iMzIiIGZvbnQtc3RyZXRjaD0ibm9ybWFsIiBmb250LXdlaWdodD0iNzAwIiBmb250LXZhcmlhbnQ9Im5vcm1hbCIgZm9udC1zdHlsZT0ibm9ybWFsIiBmb250LWZhbWlseT0iQ2lzY29TYW5zVFQsQ2lzY29TYW5zVFRfTVNGb250U2VydmljZSxzYW5zLXNlcmlmIiBmaWxsLW9wYWNpdHk9IjEiIGZpbGw9IiM0MTQyNDQiPlBydktleTwvdGV4dD48dGV4dCB0cmFuc2Zvcm09Im1hdHJpeCgxIDAgMCAxIDExMzQuMzYgMTIwNykiIHRleHQtZGVjb3JhdGlvbj0ibm9uZSIgd3JpdGluZy1tb2RlPSJsci10YiIgZGlyZWN0aW9uPSJsdHIiIHRleHQtYW5jaG9yPSJzdGFydCIgZm9udC1zaXplPSIzMiIgZm9udC1zdHJldGNoPSJub3JtYWwiIGZvbnQtd2VpZ2h0PSIzMDAiIGZvbnQtdmFyaWFudD0ibm9ybWFsIiBmb250LXN0eWxlPSJub3JtYWwiIGZvbnQtZmFtaWx5PSJDaXNjb1NhbnNUVCBFeHRyYUxpZ2h0LENpc2NvU2Fuc1RUIEV4dHJhTGlnaHRfTVNGb250U2VydmljZSxzYW5zLXNlcmlmIiBmaWxsLW9wYWNpdHk9IjEiIGZpbGw9IiM0MTQyNDQiPik8L3RleHQ+PHBhdGggZmlsbC1vcGFjaXR5PSIxIiBmaWxsLXJ1bGU9Im5vbnplcm8iIGZpbGw9IiM0MTQyNDQiIGQ9Ik03MDQuMDA2IDY0OS40NTEgOTgwLjUwNSAxMTU1LjgxIDk3OC40OTMgMTE1Ni45IDcwMS45OTQgNjUwLjU0OVpNOTg1LjM0OCAxMTQ3Ljk0IDk5MC40ODIgMTE3Ni40NyA5NjkuMjU3IDExNTYuNzNaIi8+PHRleHQgdHJhbnNmb3JtPSJtYXRyaXgoMSAwIDAgMSA4NTEuNzQ4IDExNzApIiB0ZXh0LWRlY29yYXRpb249Im5vbmUiIHdyaXRpbmctbW9kZT0ibHItdGIiIGRpcmVjdGlvbj0ibHRyIiB0ZXh0LWFuY2hvcj0ic3RhcnQiIGZvbnQtc2l6ZT0iMzIiIGZvbnQtc3RyZXRjaD0ibm9ybWFsIiBmb250LXdlaWdodD0iMzAwIiBmb250LXZhcmlhbnQ9Im5vcm1hbCIgZm9udC1zdHlsZT0ibm9ybWFsIiBmb250LWZhbWlseT0iQ2lzY29TYW5zVFQgRXh0cmFMaWdodCxDaXNjb1NhbnNUVCBFeHRyYUxpZ2h0X01TRm9udFNlcnZpY2Usc2Fucy1zZXJpZiIgZmlsbC1vcGFjaXR5PSIxIiBmaWxsPSIjNDE0MjQ0Ij5jcmVhdGVzPC90ZXh0PjxwYXRoIGZpbGwtb3BhY2l0eT0iMSIgZmlsbC1ydWxlPSJub256ZXJvIiBmaWxsPSIjNDE0MjQ0IiBkPSJNMTA4MS45MyAxMTA0LjU3IDEwODEuMDQgOTkzLjkyNSAxMDgzLjMzIDk5My45MDcgMTA4NC4yMiAxMTA0LjU1Wk0xMDczLjA1IDk5OC41NzMgMTA4MiA5NzEgMTA5MS4zOSA5OTguNDI2WiIvPjx0ZXh0IHRyYW5zZm9ybT0ibWF0cml4KDEgMCAwIDEgMTEyNy45NCAxMDIzKSIgdGV4dC1kZWNvcmF0aW9uPSJub25lIiB3cml0aW5nLW1vZGU9ImxyLXRiIiBkaXJlY3Rpb249Imx0ciIgdGV4dC1hbmNob3I9InN0YXJ0IiBmb250LXNpemU9IjMyIiBmb250LXN0cmV0Y2g9Im5vcm1hbCIgZm9udC13ZWlnaHQ9IjMwMCIgZm9udC12YXJpYW50PSJub3JtYWwiIGZvbnQtc3R5bGU9Im5vcm1hbCIgZm9udC1mYW1pbHk9IkNpc2NvU2Fuc1RUIEV4dHJhTGlnaHQsQ2lzY29TYW5zVFQgRXh0cmFMaWdodF9NU0ZvbnRTZXJ2aWNlLHNhbnMtc2VyaWYiIGZpbGwtb3BhY2l0eT0iMSIgZmlsbD0iIzQxNDI0NCI+c3RvcmVzPC90ZXh0Pjx0ZXh0IHRyYW5zZm9ybT0ibWF0cml4KDEgMCAwIDEgMTExNi4yMSAxMDYyKSIgdGV4dC1kZWNvcmF0aW9uPSJub25lIiB3cml0aW5nLW1vZGU9ImxyLXRiIiBkaXJlY3Rpb249Imx0ciIgdGV4dC1hbmNob3I9InN0YXJ0IiBmb250LXNpemU9IjMyIiBmb250LXN0cmV0Y2g9Im5vcm1hbCIgZm9udC13ZWlnaHQ9IjcwMCIgZm9udC12YXJpYW50PSJub3JtYWwiIGZvbnQtc3R5bGU9Im5vcm1hbCIgZm9udC1mYW1pbHk9IkNpc2NvU2Fuc1RULENpc2NvU2Fuc1RUX01TRm9udFNlcnZpY2Usc2Fucy1zZXJpZiIgZmlsbC1vcGFjaXR5PSIxIiBmaWxsPSIjNDE0MjQ0Ij5QcnZLZXk8L3RleHQ+PHBhdGggZmlsbC1vcGFjaXR5PSIxIiBmaWxsLXJ1bGU9Im5vbnplcm8iIGZpbGw9IiM1NjkzMzQiIGQ9Ik0xMDg0LjE1IDEyNDggMTA4NC4xNSAxNjI5LjQ0IDEwODEuODUgMTYyOS40NCAxMDgxLjg1IDEyNDhaTTEwOTIuMTcgMTYyNC44NSAxMDgzIDE2NTIuMzUgMTA3My44MyAxNjI0Ljg1WiIvPjx0ZXh0IHRyYW5zZm9ybT0ibWF0cml4KDEgMCAwIDEgMTEyNy45MiAxMzM4KSIgdGV4dC1kZWNvcmF0aW9uPSJub25lIiB3cml0aW5nLW1vZGU9ImxyLXRiIiBkaXJlY3Rpb249Imx0ciIgdGV4dC1hbmNob3I9InN0YXJ0IiBmb250LXNpemU9IjMyIiBmb250LXN0cmV0Y2g9Im5vcm1hbCIgZm9udC13ZWlnaHQ9IjMwMCIgZm9udC12YXJpYW50PSJub3JtYWwiIGZvbnQtc3R5bGU9Im5vcm1hbCIgZm9udC1mYW1pbHk9IkNpc2NvU2Fuc1RUIEV4dHJhTGlnaHQsQ2lzY29TYW5zVFQgRXh0cmFMaWdodF9NU0ZvbnRTZXJ2aWNlLHNhbnMtc2VyaWYiIGZpbGwtb3BhY2l0eT0iMSIgZmlsbD0iIzU2OTMzNCI+c3RvcmVzPC90ZXh0Pjx0ZXh0IHRyYW5zZm9ybT0ibWF0cml4KDEgMCAwIDEgMTExMS44OCAxMzc3KSIgdGV4dC1kZWNvcmF0aW9uPSJub25lIiB3cml0aW5nLW1vZGU9ImxyLXRiIiBkaXJlY3Rpb249Imx0ciIgdGV4dC1hbmNob3I9InN0YXJ0IiBmb250LXNpemU9IjMyIiBmb250LXN0cmV0Y2g9Im5vcm1hbCIgZm9udC13ZWlnaHQ9IjcwMCIgZm9udC12YXJpYW50PSJub3JtYWwiIGZvbnQtc3R5bGU9Im5vcm1hbCIgZm9udC1mYW1pbHk9IkNpc2NvU2Fuc1RULENpc2NvU2Fuc1RUX01TRm9udFNlcnZpY2Usc2Fucy1zZXJpZiIgZmlsbC1vcGFjaXR5PSIxIiBmaWxsPSIjNTY5MzM0Ij5QdWJLZXk8L3RleHQ+PHJlY3QgZmlsbC1vcGFjaXR5PSIxIiBmaWxsPSIjNTY5MzM0IiBzdHJva2Utb3BhY2l0eT0iMSIgc3Ryb2tlLW1pdGVybGltaXQ9IjEwIiBzdHJva2UtbGluZWpvaW49InJvdW5kIiBzdHJva2UtbGluZWNhcD0iYnV0dCIgc3Ryb2tlLXdpZHRoPSIyLjI5MTY3IiBzdHJva2U9IiM0MTQyNDQiIGhlaWdodD0iMTQ4IiB3aWR0aD0iMjg5IiB5PSIxNjcwIiB4PSI5MjMiLz48dGV4dCB0cmFuc2Zvcm09Im1hdHJpeCgxIDAgMCAxIDEwMzEuMTYgMTczNSkiIHRleHQtZGVjb3JhdGlvbj0ibm9uZSIgd3JpdGluZy1tb2RlPSJsci10YiIgZGlyZWN0aW9uPSJsdHIiIHRleHQtYW5jaG9yPSJzdGFydCIgZm9udC1zaXplPSIzMiIgZm9udC1zdHJldGNoPSJub3JtYWwiIGZvbnQtd2VpZ2h0PSIzMDAiIGZvbnQtdmFyaWFudD0ibm9ybWFsIiBmb250LXN0eWxlPSJub3JtYWwiIGZvbnQtZmFtaWx5PSJDaXNjb1NhbnNUVCBFeHRyYUxpZ2h0LENpc2NvU2Fuc1RUIEV4dHJhTGlnaHRfTVNGb250U2VydmljZSxzYW5zLXNlcmlmIiBmaWxsLW9wYWNpdHk9IjEiIGZpbGw9IiNGRkZGRkYiPlRydXN0IDwvdGV4dD48dGV4dCB0cmFuc2Zvcm09Im1hdHJpeCgxIDAgMCAxIDEwMDcuOTYgMTc3NCkiIHRleHQtZGVjb3JhdGlvbj0ibm9uZSIgd3JpdGluZy1tb2RlPSJsci10YiIgZGlyZWN0aW9uPSJsdHIiIHRleHQtYW5jaG9yPSJzdGFydCIgZm9udC1zaXplPSIzMiIgZm9udC1zdHJldGNoPSJub3JtYWwiIGZvbnQtd2VpZ2h0PSIzMDAiIGZvbnQtdmFyaWFudD0ibm9ybWFsIiBmb250LXN0eWxlPSJub3JtYWwiIGZvbnQtZmFtaWx5PSJDaXNjb1NhbnNUVCBFeHRyYUxpZ2h0LENpc2NvU2Fuc1RUIEV4dHJhTGlnaHRfTVNGb250U2VydmljZSxzYW5zLXNlcmlmIiBmaWxsLW9wYWNpdHk9IjEiIGZpbGw9IiNGRkZGRkYiPkFuY2hvcnM8L3RleHQ+PHJlY3QgZmlsbC1vcGFjaXR5PSIxIiBmaWxsPSIjNTY5MzM0IiBzdHJva2Utb3BhY2l0eT0iMSIgc3Ryb2tlLW1pdGVybGltaXQ9IjEwIiBzdHJva2UtbGluZWpvaW49InJvdW5kIiBzdHJva2UtbGluZWNhcD0iYnV0dCIgc3Ryb2tlLXdpZHRoPSIyLjI5MTY3IiBzdHJva2U9IiM0MTQyNDQiIGhlaWdodD0iMTQ3IiB3aWR0aD0iMjg5IiB5PSIxNjg4IiB4PSI5NTUiLz48dGV4dCB0cmFuc2Zvcm09Im1hdHJpeCgxIDAgMCAxIDEwNjMuMjMgMTc1MykiIHRleHQtZGVjb3JhdGlvbj0ibm9uZSIgd3JpdGluZy1tb2RlPSJsci10YiIgZGlyZWN0aW9uPSJsdHIiIHRleHQtYW5jaG9yPSJzdGFydCIgZm9udC1zaXplPSIzMiIgZm9udC1zdHJldGNoPSJub3JtYWwiIGZvbnQtd2VpZ2h0PSIzMDAiIGZvbnQtdmFyaWFudD0ibm9ybWFsIiBmb250LXN0eWxlPSJub3JtYWwiIGZvbnQtZmFtaWx5PSJDaXNjb1NhbnNUVCBFeHRyYUxpZ2h0LENpc2NvU2Fuc1RUIEV4dHJhTGlnaHRfTVNGb250U2VydmljZSxzYW5zLXNlcmlmIiBmaWxsLW9wYWNpdHk9IjEiIGZpbGw9IiNGRkZGRkYiPlRydXN0IDwvdGV4dD48dGV4dCB0cmFuc2Zvcm09Im1hdHJpeCgxIDAgMCAxIDEwNDAuMDQgMTc5MikiIHRleHQtZGVjb3JhdGlvbj0ibm9uZSIgd3JpdGluZy1tb2RlPSJsci10YiIgZGlyZWN0aW9uPSJsdHIiIHRleHQtYW5jaG9yPSJzdGFydCIgZm9udC1zaXplPSIzMiIgZm9udC1zdHJldGNoPSJub3JtYWwiIGZvbnQtd2VpZ2h0PSIzMDAiIGZvbnQtdmFyaWFudD0ibm9ybWFsIiBmb250LXN0eWxlPSJub3JtYWwiIGZvbnQtZmFtaWx5PSJDaXNjb1NhbnNUVCBFeHRyYUxpZ2h0LENpc2NvU2Fuc1RUIEV4dHJhTGlnaHRfTVNGb250U2VydmljZSxzYW5zLXNlcmlmIiBmaWxsLW9wYWNpdHk9IjEiIGZpbGw9IiNGRkZGRkYiPkFuY2hvcnM8L3RleHQ+PHJlY3QgZmlsbC1vcGFjaXR5PSIxIiBmaWxsPSIjNTY5MzM0IiBzdHJva2Utb3BhY2l0eT0iMSIgc3Ryb2tlLW1pdGVybGltaXQ9IjEwIiBzdHJva2UtbGluZWpvaW49InJvdW5kIiBzdHJva2UtbGluZWNhcD0iYnV0dCIgc3Ryb2tlLXdpZHRoPSIyLjI5MTY3IiBzdHJva2U9IiM0MTQyNDQiIGhlaWdodD0iMTQ3IiB3aWR0aD0iMjg5IiB5PSIxNzEwIiB4PSI5OTMiLz48dGV4dCB0cmFuc2Zvcm09Im1hdHJpeCgxIDAgMCAxIDEwMjcuMDQgMTc3MykiIHRleHQtZGVjb3JhdGlvbj0ibm9uZSIgd3JpdGluZy1tb2RlPSJsci10YiIgZGlyZWN0aW9uPSJsdHIiIHRleHQtYW5jaG9yPSJzdGFydCIgZm9udC1zaXplPSIzMiIgZm9udC1zdHJldGNoPSJub3JtYWwiIGZvbnQtd2VpZ2h0PSI1MDAiIGZvbnQtdmFyaWFudD0ibm9ybWFsIiBmb250LXN0eWxlPSJub3JtYWwiIGZvbnQtZmFtaWx5PSJDaXNjb1NhbnNUVCBNZWRpdW0sQ2lzY29TYW5zVFQgTWVkaXVtX01TRm9udFNlcnZpY2Usc2Fucy1zZXJpZiIgZmlsbC1vcGFjaXR5PSIxIiBmaWxsPSIjRkZGRkZGIj5JZGVudGl0eSBOb2RlcyA8L3RleHQ+PHRleHQgdHJhbnNmb3JtPSJtYXRyaXgoMSAwIDAgMSAxMTAyLjM2IDE4MTIpIiB0ZXh0LWRlY29yYXRpb249Im5vbmUiIHdyaXRpbmctbW9kZT0ibHItdGIiIGRpcmVjdGlvbj0ibHRyIiB0ZXh0LWFuY2hvcj0ic3RhcnQiIGZvbnQtc2l6ZT0iMzIiIGZvbnQtc3RyZXRjaD0ibm9ybWFsIiBmb250LXdlaWdodD0iNTAwIiBmb250LXZhcmlhbnQ9Im5vcm1hbCIgZm9udC1zdHlsZT0ibm9ybWFsIiBmb250LWZhbWlseT0iQ2lzY29TYW5zVFQgTWVkaXVtLENpc2NvU2Fuc1RUIE1lZGl1bV9NU0ZvbnRTZXJ2aWNlLHNhbnMtc2VyaWYiIGZpbGwtb3BhY2l0eT0iMSIgZmlsbD0iI0ZGRkZGRiI+KElOcyk8L3RleHQ+PHBhdGggZmlsbC1vcGFjaXR5PSIxIiBmaWxsLXJ1bGU9Im5vbnplcm8iIGZpbGw9IiM1NjkzMzQiIGQ9Ik03MDQuMTEyIDY0OS43MjYgOTQ1LjY1MiAxNjMwLjE4IDk0My40MjcgMTYzMC43MiA3MDEuODg3IDY1MC4yNzRaTTk1Mi4zNDUgMTYyMy44MSA5NTAuMDIzIDE2NTIuNzEgOTM0LjU0NCAxNjI4LjJaIi8+PHRleHQgdHJhbnNmb3JtPSJtYXRyaXgoMSAwIDAgMSA2NjcuNzM2IDExMjIpIiB0ZXh0LWRlY29yYXRpb249Im5vbmUiIHdyaXRpbmctbW9kZT0ibHItdGIiIGRpcmVjdGlvbj0ibHRyIiB0ZXh0LWFuY2hvcj0ic3RhcnQiIGZvbnQtc2l6ZT0iMzIiIGZvbnQtc3RyZXRjaD0ibm9ybWFsIiBmb250LXdlaWdodD0iMzAwIiBmb250LXZhcmlhbnQ9Im5vcm1hbCIgZm9udC1zdHlsZT0ibm9ybWFsIiBmb250LWZhbWlseT0iQ2lzY29TYW5zVFQgRXh0cmFMaWdodCxDaXNjb1NhbnNUVCBFeHRyYUxpZ2h0X01TRm9udFNlcnZpY2Usc2Fucy1zZXJpZiIgZmlsbC1vcGFjaXR5PSIxIiBmaWxsPSIjNTY5MzM0Ij5yZWdpc3RlcnM8L3RleHQ+PHBhdGggdHJhbnNmb3JtPSJtYXRyaXgoLTEgMCAwIDEgMTc0MS45OSAxNzcxKSIgZmlsbC1vcGFjaXR5PSIxIiBmaWxsLXJ1bGU9Im5vbnplcm8iIGZpbGw9IiM1NjkzMzQiIGQ9Ik05LjMxMzg4ZS0wNy0xLjE0NTgzIDQyMS4wNjktMS4xNDU0OSA0MjEuMDY5IDEuMTQ2MTgtOS4zMTM4OGUtMDcgMS4xNDU4M1pNNDE2LjQ4NS05LjE2NjMzIDQ0My45ODUgMC4wMDAzNjA4OTIgNDE2LjQ4NSA5LjE2N1oiLz48dGV4dCB0cmFuc2Zvcm09Im1hdHJpeCgxIDAgMCAxIDE0NDkuMTYgMTgxNCkiIHRleHQtZGVjb3JhdGlvbj0ibm9uZSIgd3JpdGluZy1tb2RlPSJsci10YiIgZGlyZWN0aW9uPSJsdHIiIHRleHQtYW5jaG9yPSJzdGFydCIgZm9udC1zaXplPSIzMiIgZm9udC1zdHJldGNoPSJub3JtYWwiIGZvbnQtd2VpZ2h0PSIzMDAiIGZvbnQtdmFyaWFudD0ibm9ybWFsIiBmb250LXN0eWxlPSJub3JtYWwiIGZvbnQtZmFtaWx5PSJDaXNjb1NhbnNUVCBFeHRyYUxpZ2h0LENpc2NvU2Fuc1RUIEV4dHJhTGlnaHRfTVNGb250U2VydmljZSxzYW5zLXNlcmlmIiBmaWxsLW9wYWNpdHk9IjEiIGZpbGw9IiM1NjkzMzQiPmlzIHN0b3JlZDwvdGV4dD48cGF0aCBmaWxsLW9wYWNpdHk9IjEiIGZpbGwtcnVsZT0ibm9uemVybyIgZmlsbD0iIzU2OTMzNCIgZD0iTTkxNi4xOSAxNzkxLjEzIDkxMy44OSAxNzkxLjUyIDkxNC4yMDggMTc5MS40MSA5MTEuOTI2IDE3OTIuNTQgOTEyLjE0IDE3OTIuNCA5MDkuODk0IDE3OTQuMjIgOTEwLjAyOSAxNzk0LjA5IDkwNy44MzcgMTc5Ni41NSA5MDUuODAzIDE3OTkuNDkgOTAzLjgzIDE4MDIuOTkgOTAxLjk0OCAxODA3IDkwMC4xOCAxODExLjQ2IDg5OC41NDkgMTgxNi4zMiA4OTcuMDc2IDE4MjEuNTQgODk0LjY3MSAxODMyLjg0IDg5My4xMjggMTg0NC45MSA4OTIuNTg1IDE4NTcuMzcgODkyLjk1MiAxODYzLjU2IDg5NC4wMTIgMTg2OS42OCA4OTUuNzE5IDE4NzUuNzIgODk4LjAyOSAxODgxLjYyIDkwMC44OTUgMTg4Ny4zNCA5MDQuMjc0IDE4OTIuODEgOTA4LjExNyAxODk4IDkxMi4zNzkgMTkwMi44NSA5MTcuMDEgMTkwNy4zIDkyMS45NjUgMTkxMS4zMiA5MjcuMTk0IDE5MTQuODYgOTMyLjY0OSAxOTE3Ljg1IDkzOC4yODIgMTkyMC4yNiA5NDQuMDQzIDE5MjIuMDMgOTQ5Ljg4NSAxOTIzLjEzIDk1NS43NjIgMTkyMy41IDk2MS42NDIgMTkyMy4xNyA5NjcuNDkzIDE5MjIuMjMgOTczLjI1OCAxOTIwLjczIDk3OC44OTEgMTkxOC42OSA5ODQuMzQzIDE5MTYuMTYgOTg5LjU2NyAxOTEzLjE4IDk5NC41MTUgMTkwOS43OSA5OTkuMTM3IDE5MDYuMDMgMTAwMy4zOSAxOTAxLjk1IDEwMDcuMjIgMTg5Ny41OSAxMDA3LjA3IDE4OTcuODEgMTAxMS42NyAxODg5LjE1IDEwMTMuNjkgMTg5MC4yMyAxMDA5LjA5IDE4OTguODhDMTAwOS4wNSAxODk4Ljk2IDEwMDkgMTg5OS4wMyAxMDA4Ljk0IDE4OTkuMUwxMDA0Ljk3IDE5MDMuNjEgMTAwMC41OCAxOTA3LjgxIDk5NS44MDkgMTkxMS42OCA5OTAuNzAxIDE5MTUuMTcgOTg1LjMwNiAxOTE4LjI0IDk3OS42NjkgMTkyMC44NSA5NzMuODM1IDE5MjIuOTUgOTY3Ljg1MiAxOTI0LjUgOTYxLjc2NiAxOTI1LjQ2IDk1NS42MTUgMTkyNS43OCA5NDkuNDYxIDE5MjUuMzggOTQzLjM2NiAxOTI0LjIyIDkzNy4zNzkgMTkyMi4zNiA5MzEuNTQ1IDE5MTkuODYgOTI1LjkxIDE5MTYuNzUgOTIwLjUyIDE5MTMuMSA5MTUuNDIgMTkwOC45NSA5MTAuNjU2IDE5MDQuMzYgOTA2LjI3NSAxODk5LjM2IDkwMi4zMjMgMTg5NC4wMSA4OTguODQ2IDE4ODguMzYgODk1Ljg5NCAxODgyLjQ2IDg5My41MTMgMTg3Ni4zNCA4OTEuNzU0IDE4NzAuMDcgODkwLjY2NCAxODYzLjY5IDg5MC4yOTUgMTg1Ny4yNyA4OTAuODU1IDE4NDQuNjIgODkyLjQzIDE4MzIuMzYgODk0Ljg3IDE4MjAuOTIgODk2LjM3NyAxODE1LjYgODk4LjA1IDE4MTAuNjEgODk5Ljg3NCAxODA2LjAyIDkwMS44MzUgMTgwMS44NiA5MDMuOTIxIDE3OTguMTggOTA2LjEyNyAxNzk1LjAyIDkwOC4zMTggMTc5Mi41N0M5MDguMzYgMTc5Mi41MiA5MDguNDA1IDE3OTIuNDggOTA4LjQ1MyAxNzkyLjQ0TDkxMC42OTggMTc5MC42MkM5MTAuNzY0IDE3OTAuNTcgOTEwLjgzNiAxNzkwLjUyIDkxMC45MTIgMTc5MC40OEw5MTMuMTk0IDE3ODkuMzZDOTEzLjI5NCAxNzg5LjMxIDkxMy40MDEgMTc4OS4yNyA5MTMuNTExIDE3ODkuMjZMOTE1LjgxIDE3ODguODdaTTEwMDIuNTMgMTg5MS4xNCAxMDE5Ljk0IDE4NjcuOTUgMTAxOS45MiAxODk2Ljk0WiIvPjx0ZXh0IHRyYW5zZm9ybT0ibWF0cml4KDEgMCAwIDEgNzA4LjU5NCAxOTM5KSIgdGV4dC1kZWNvcmF0aW9uPSJub25lIiB3cml0aW5nLW1vZGU9ImxyLXRiIiBkaXJlY3Rpb249Imx0ciIgdGV4dC1hbmNob3I9InN0YXJ0IiBmb250LXNpemU9IjMyIiBmb250LXN0cmV0Y2g9Im5vcm1hbCIgZm9udC13ZWlnaHQ9IjMwMCIgZm9udC12YXJpYW50PSJub3JtYWwiIGZvbnQtc3R5bGU9Im5vcm1hbCIgZm9udC1mYW1pbHk9IkNpc2NvU2Fuc1RUIEV4dHJhTGlnaHQsQ2lzY29TYW5zVFQgRXh0cmFMaWdodF9NU0ZvbnRTZXJ2aWNlLHNhbnMtc2VyaWYiIGZpbGwtb3BhY2l0eT0iMSIgZmlsbD0iIzU2OTMzNCI+YmluZHMgdG88L3RleHQ+PHRleHQgdHJhbnNmb3JtPSJtYXRyaXgoMSAwIDAgMSA1OTAuNTczIDE5NzgpIiB0ZXh0LWRlY29yYXRpb249Im5vbmUiIHdyaXRpbmctbW9kZT0ibHItdGIiIGRpcmVjdGlvbj0ibHRyIiB0ZXh0LWFuY2hvcj0ic3RhcnQiIGZvbnQtc2l6ZT0iMzIiIGZvbnQtc3RyZXRjaD0ibm9ybWFsIiBmb250LXdlaWdodD0iMzAwIiBmb250LXZhcmlhbnQ9Im5vcm1hbCIgZm9udC1zdHlsZT0ibm9ybWFsIiBmb250LWZhbWlseT0iQ2lzY29TYW5zVFQgRXh0cmFMaWdodCxDaXNjb1NhbnNUVCBFeHRyYUxpZ2h0X01TRm9udFNlcnZpY2Usc2Fucy1zZXJpZiIgZmlsbC1vcGFjaXR5PSIxIiBmaWxsPSIjNTY5MzM0Ij4oPC90ZXh0Pjx0ZXh0IHRyYW5zZm9ybT0ibWF0cml4KDEgMCAwIDEgNjAxLjQ1OSAxOTc4KSIgdGV4dC1kZWNvcmF0aW9uPSJub25lIiB3cml0aW5nLW1vZGU9ImxyLXRiIiBkaXJlY3Rpb249Imx0ciIgdGV4dC1hbmNob3I9InN0YXJ0IiBmb250LXNpemU9IjMyIiBmb250LXN0cmV0Y2g9Im5vcm1hbCIgZm9udC13ZWlnaHQ9IjcwMCIgZm9udC12YXJpYW50PSJub3JtYWwiIGZvbnQtc3R5bGU9Im5vcm1hbCIgZm9udC1mYW1pbHk9IkNpc2NvU2Fuc1RULENpc2NvU2Fuc1RUX01TRm9udFNlcnZpY2Usc2Fucy1zZXJpZiIgZmlsbC1vcGFjaXR5PSIxIiBmaWxsPSIjNTY5MzM0Ij5vcmc6c3ViPC90ZXh0Pjx0ZXh0IHRyYW5zZm9ybT0ibWF0cml4KDEgMCAwIDEgNzIwLjYyNSAxOTc4KSIgdGV4dC1kZWNvcmF0aW9uPSJub25lIiB3cml0aW5nLW1vZGU9ImxyLXRiIiBkaXJlY3Rpb249Imx0ciIgdGV4dC1hbmNob3I9InN0YXJ0IiBmb250LXNpemU9IjMyIiBmb250LXN0cmV0Y2g9Im5vcm1hbCIgZm9udC13ZWlnaHQ9IjcwMCIgZm9udC12YXJpYW50PSJub3JtYWwiIGZvbnQtc3R5bGU9Im5vcm1hbCIgZm9udC1mYW1pbHk9IkNpc2NvU2Fuc1RULENpc2NvU2Fuc1RUX01TRm9udFNlcnZpY2Usc2Fucy1zZXJpZiIgZmlsbC1vcGFjaXR5PSIxIiBmaWxsPSIjNTY5MzM0Ij4tPC90ZXh0Pjx0ZXh0IHRyYW5zZm9ybT0ibWF0cml4KDEgMCAwIDEgNzM3LjgxMyAxOTc4KSIgdGV4dC1kZWNvcmF0aW9uPSJub25lIiB3cml0aW5nLW1vZGU9ImxyLXRiIiBkaXJlY3Rpb249Imx0ciIgdGV4dC1hbmNob3I9InN0YXJ0IiBmb250LXNpemU9IjMyIiBmb250LXN0cmV0Y2g9Im5vcm1hbCIgZm9udC13ZWlnaHQ9IjcwMCIgZm9udC12YXJpYW50PSJub3JtYWwiIGZvbnQtc3R5bGU9Im5vcm1hbCIgZm9udC1mYW1pbHk9IkNpc2NvU2Fuc1RULENpc2NvU2Fuc1RUX01TRm9udFNlcnZpY2Usc2Fucy1zZXJpZiIgZmlsbC1vcGFjaXR5PSIxIiBmaWxsPSIjNTY5MzM0Ij5vcmc8L3RleHQ+PHRleHQgdHJhbnNmb3JtPSJtYXRyaXgoMSAwIDAgMSA3OTAuNTIxIDE5NzgpIiB0ZXh0LWRlY29yYXRpb249Im5vbmUiIHdyaXRpbmctbW9kZT0ibHItdGIiIGRpcmVjdGlvbj0ibHRyIiB0ZXh0LWFuY2hvcj0ic3RhcnQiIGZvbnQtc2l6ZT0iMzIiIGZvbnQtc3RyZXRjaD0ibm9ybWFsIiBmb250LXdlaWdodD0iMzAwIiBmb250LXZhcmlhbnQ9Im5vcm1hbCIgZm9udC1zdHlsZT0ibm9ybWFsIiBmb250LWZhbWlseT0iQ2lzY29TYW5zVFQgRXh0cmFMaWdodCxDaXNjb1NhbnNUVCBFeHRyYUxpZ2h0X01TRm9udFNlcnZpY2Usc2Fucy1zZXJpZiIgZmlsbC1vcGFjaXR5PSIxIiBmaWxsPSIjNTY5MzM0Ij4sIDwvdGV4dD48dGV4dCB0cmFuc2Zvcm09Im1hdHJpeCgxIDAgMCAxIDgwOS40MjcgMTk3OCkiIHRleHQtZGVjb3JhdGlvbj0ibm9uZSIgd3JpdGluZy1tb2RlPSJsci10YiIgZGlyZWN0aW9uPSJsdHIiIHRleHQtYW5jaG9yPSJzdGFydCIgZm9udC1zaXplPSIzMiIgZm9udC1zdHJldGNoPSJub3JtYWwiIGZvbnQtd2VpZ2h0PSI3MDAiIGZvbnQtdmFyaWFudD0ibm9ybWFsIiBmb250LXN0eWxlPSJub3JtYWwiIGZvbnQtZmFtaWx5PSJDaXNjb1NhbnNUVCxDaXNjb1NhbnNUVF9NU0ZvbnRTZXJ2aWNlLHNhbnMtc2VyaWYiIGZpbGwtb3BhY2l0eT0iMSIgZmlsbD0iIzU2OTMzNCI+UHViS2V5PC90ZXh0Pjx0ZXh0IHRyYW5zZm9ybT0ibWF0cml4KDEgMCAwIDEgOTMwLjg4NiAxOTc4KSIgdGV4dC1kZWNvcmF0aW9uPSJub25lIiB3cml0aW5nLW1vZGU9ImxyLXRiIiBkaXJlY3Rpb249Imx0ciIgdGV4dC1hbmNob3I9InN0YXJ0IiBmb250LXNpemU9IjMyIiBmb250LXN0cmV0Y2g9Im5vcm1hbCIgZm9udC13ZWlnaHQ9IjMwMCIgZm9udC12YXJpYW50PSJub3JtYWwiIGZvbnQtc3R5bGU9Im5vcm1hbCIgZm9udC1mYW1pbHk9IkNpc2NvU2Fuc1RUIEV4dHJhTGlnaHQsQ2lzY29TYW5zVFQgRXh0cmFMaWdodF9NU0ZvbnRTZXJ2aWNlLHNhbnMtc2VyaWYiIGZpbGwtb3BhY2l0eT0iMSIgZmlsbD0iIzU2OTMzNCI+KTwvdGV4dD48cGF0aCBmaWxsLW9wYWNpdHk9IjEiIGZpbGwtcnVsZT0ibm9uemVybyIgZmlsbD0iIzU2OTMzNCIgZD0iTTIxNTAuMTUgMTE2NyAyMTUwLjE1IDEyODcuMjIgMjE0Ny44NSAxMjg3LjIyIDIxNDcuODUgMTE2N1pNMjE1OC4xNyAxMjgyLjYzIDIxNDkgMTMxMC4xMyAyMTM5LjgzIDEyODIuNjNaIi8+PHRleHQgdHJhbnNmb3JtPSJtYXRyaXgoMSAwIDAgMSAyMjA5LjcgMTIyOSkiIHRleHQtZGVjb3JhdGlvbj0ibm9uZSIgd3JpdGluZy1tb2RlPSJsci10YiIgZGlyZWN0aW9uPSJsdHIiIHRleHQtYW5jaG9yPSJzdGFydCIgZm9udC1zaXplPSIzMiIgZm9udC1zdHJldGNoPSJub3JtYWwiIGZvbnQtd2VpZ2h0PSIzMDAiIGZvbnQtdmFyaWFudD0ibm9ybWFsIiBmb250LXN0eWxlPSJub3JtYWwiIGZvbnQtZmFtaWx5PSJDaXNjb1NhbnNUVCBFeHRyYUxpZ2h0LENpc2NvU2Fuc1RUIEV4dHJhTGlnaHRfTVNGb250U2VydmljZSxzYW5zLXNlcmlmIiBmaWxsLW9wYWNpdHk9IjEiIGZpbGw9IiM1NjkzMzQiPnVzZXMgYSA8L3RleHQ+PHRleHQgdHJhbnNmb3JtPSJtYXRyaXgoMSAwIDAgMSAyMjAwLjgzIDEyNjgpIiB0ZXh0LWRlY29yYXRpb249Im5vbmUiIHdyaXRpbmctbW9kZT0ibHItdGIiIGRpcmVjdGlvbj0ibHRyIiB0ZXh0LWFuY2hvcj0ic3RhcnQiIGZvbnQtc2l6ZT0iMzIiIGZvbnQtc3RyZXRjaD0ibm9ybWFsIiBmb250LXdlaWdodD0iNzAwIiBmb250LXZhcmlhbnQ9Im5vcm1hbCIgZm9udC1zdHlsZT0ibm9ybWFsIiBmb250LWZhbWlseT0iQ2lzY29TYW5zVFQsQ2lzY29TYW5zVFRfTVNGb250U2VydmljZSxzYW5zLXNlcmlmIiBmaWxsLW9wYWNpdHk9IjEiIGZpbGw9IiM1NjkzMzQiPlBydktleTwvdGV4dD48cGF0aCBmaWxsLW9wYWNpdHk9IjEiIGZpbGwtcnVsZT0iZXZlbm9kZCIgZmlsbD0iI0ZGRkZGRiIgc3Ryb2tlLW9wYWNpdHk9IjEiIHN0cm9rZS1taXRlcmxpbWl0PSI4IiBzdHJva2UtbGluZWpvaW49Im1pdGVyIiBzdHJva2UtbGluZWNhcD0iYnV0dCIgc3Ryb2tlLXdpZHRoPSIyLjI5MTY3IiBzdHJva2U9IiM1NjkzMzQiIGQ9Ik0yMDAyIDEzMzUuNUMyMDAyIDEzMjYuMzkgMjAwOS4zOSAxMzE5IDIwMTguNSAxMzE5TDIyNzguNSAxMzE5QzIyODcuNjEgMTMxOSAyMjk1IDEzMjYuMzkgMjI5NSAxMzM1LjVMMjI5NSAxNDAxLjVDMjI5NSAxNDEwLjYxIDIyODcuNjEgMTQxOCAyMjc4LjUgMTQxOEwyMDE4LjUgMTQxOEMyMDA5LjM5IDE0MTggMjAwMiAxNDEwLjYxIDIwMDIgMTQwMS41WiIvPjx0ZXh0IHRyYW5zZm9ybT0ibWF0cml4KDEgMCAwIDEgMjA2My4wMSAxMzc5KSIgdGV4dC1kZWNvcmF0aW9uPSJub25lIiB3cml0aW5nLW1vZGU9ImxyLXRiIiBkaXJlY3Rpb249Imx0ciIgdGV4dC1hbmNob3I9InN0YXJ0IiBmb250LXNpemU9IjMyIiBmb250LXN0cmV0Y2g9Im5vcm1hbCIgZm9udC13ZWlnaHQ9IjcwMCIgZm9udC12YXJpYW50PSJub3JtYWwiIGZvbnQtc3R5bGU9Im5vcm1hbCIgZm9udC1mYW1pbHk9IkNpc2NvU2Fuc1RULENpc2NvU2Fuc1RUX01TRm9udFNlcnZpY2Usc2Fucy1zZXJpZiIgZmlsbC1vcGFjaXR5PSIxIiBmaWxsPSIjNTY5MzM0Ij5GaW5nZXJwcmludDwvdGV4dD48cGF0aCBmaWxsLXJ1bGU9ImV2ZW5vZGQiIGZpbGw9Im5vbmUiIHN0cm9rZS1vcGFjaXR5PSIxIiBzdHJva2UtZGFzaGFycmF5PSI5LjE2NjY3IDYuODc1IiBzdHJva2UtbWl0ZXJsaW1pdD0iMTAiIHN0cm9rZS1saW5lam9pbj0icm91bmQiIHN0cm9rZS1saW5lY2FwPSJidXR0IiBzdHJva2Utd2lkdGg9IjIuMjkxNjciIHN0cm9rZT0iIzU2OTMzNCIgZD0iTTIxMDAuMDggMTIzOC42NCAxNjk5LjkxIDEyMzguNjQgMTY5OS45MSAxMDM4IDEyNTYgMTAzOCIvPjxwYXRoIGZpbGwtcnVsZT0iZXZlbm9kZCIgZmlsbD0ibm9uZSIgc3Ryb2tlLW9wYWNpdHk9IjEiIHN0cm9rZS1kYXNoYXJyYXk9IjkuMTY2NjcgNi44NzUiIHN0cm9rZS1taXRlcmxpbWl0PSIxMCIgc3Ryb2tlLWxpbmVqb2luPSJyb3VuZCIgc3Ryb2tlLWxpbmVjYXA9ImJ1dHQiIHN0cm9rZS13aWR0aD0iMi4yOTE2NyIgc3Ryb2tlPSIjNTY5MzM0IiBkPSJNMTM3Ny45NSAyMDEwLjAyIDExNTYgMTY4MSIvPjx0ZXh0IHRyYW5zZm9ybT0ibWF0cml4KDEgMCAwIDEgMTc5Ni43NSAxNzU5KSIgdGV4dC1kZWNvcmF0aW9uPSJub25lIiB3cml0aW5nLW1vZGU9ImxyLXRiIiBkaXJlY3Rpb249Imx0ciIgdGV4dC1hbmNob3I9InN0YXJ0IiBmb250LXNpemU9IjMyIiBmb250LXN0cmV0Y2g9Im5vcm1hbCIgZm9udC13ZWlnaHQ9IjcwMCIgZm9udC12YXJpYW50PSJub3JtYWwiIGZvbnQtc3R5bGU9Im5vcm1hbCIgZm9udC1mYW1pbHk9IkNpc2NvU2Fuc1RULENpc2NvU2Fuc1RUX01TRm9udFNlcnZpY2Usc2Fucy1zZXJpZiIgZmlsbC1vcGFjaXR5PSIxIiBmaWxsPSIjNTY5MzM0Ij5SZXNvbHZlciA8L3RleHQ+PHRleHQgdHJhbnNmb3JtPSJtYXRyaXgoMSAwIDAgMSAxNzkxLjU5IDE3OTgpIiB0ZXh0LWRlY29yYXRpb249Im5vbmUiIHdyaXRpbmctbW9kZT0ibHItdGIiIGRpcmVjdGlvbj0ibHRyIiB0ZXh0LWFuY2hvcj0ic3RhcnQiIGZvbnQtc2l6ZT0iMzIiIGZvbnQtc3RyZXRjaD0ibm9ybWFsIiBmb250LXdlaWdodD0iNzAwIiBmb250LXZhcmlhbnQ9Im5vcm1hbCIgZm9udC1zdHlsZT0ibm9ybWFsIiBmb250LWZhbWlseT0iQ2lzY29TYW5zVFQsQ2lzY29TYW5zVFRfTVNGb250U2VydmljZSxzYW5zLXNlcmlmIiBmaWxsLW9wYWNpdHk9IjEiIGZpbGw9IiM1NjkzMzQiPk1ldGFkYXRhPC90ZXh0PjxwYXRoIHRyYW5zZm9ybT0ibWF0cml4KC0xLjgzNjk3ZS0xNiAtMSAtMSAxLjgzNjk3ZS0xNiAxODY1LjE2IDE3MTIuMzgpIiBmaWxsLXJ1bGU9ImV2ZW5vZGQiIGZpbGw9Im5vbmUiIHN0cm9rZS1vcGFjaXR5PSIxIiBzdHJva2UtZGFzaGFycmF5PSI5LjE2NjY3IDYuODc1IiBzdHJva2UtbWl0ZXJsaW1pdD0iMTAiIHN0cm9rZS1saW5lam9pbj0icm91bmQiIHN0cm9rZS1saW5lY2FwPSJidXR0IiBzdHJva2Utd2lkdGg9IjIuMjkxNjciIHN0cm9rZT0iIzU2OTMzNCIgZD0iTTAgMCAxMDIuMzgxIDAgMTAyLjM4MSA0NTQuMTY0Ii8+PHBhdGggdHJhbnNmb3JtPSJtYXRyaXgoMSAwIDAgLTEgMTI2NCAxMzUwKSIgZmlsbC1ydWxlPSJldmVub2RkIiBmaWxsPSJub25lIiBzdHJva2Utb3BhY2l0eT0iMSIgc3Ryb2tlLWRhc2hhcnJheT0iOS4xNjY2NyA2Ljg3NSIgc3Ryb2tlLW1pdGVybGltaXQ9IjEwIiBzdHJva2UtbGluZWpvaW49InJvdW5kIiBzdHJva2UtbGluZWNhcD0iYnV0dCIgc3Ryb2tlLXdpZHRoPSIyLjI5MTY3IiBzdHJva2U9IiM1NjkzMzQiIGQ9Ik0wIDAgMTQ5LjcwNCAwLjAwMDM2MDg5MiIvPjx0ZXh0IHRyYW5zZm9ybT0ibWF0cml4KDEgMCAwIDEgMTEwMS42NiAxOTMyKSIgdGV4dC1kZWNvcmF0aW9uPSJub25lIiB3cml0aW5nLW1vZGU9ImxyLXRiIiBkaXJlY3Rpb249Imx0ciIgdGV4dC1hbmNob3I9InN0YXJ0IiBmb250LXNpemU9IjMyIiBmb250LXN0cmV0Y2g9Im5vcm1hbCIgZm9udC13ZWlnaHQ9IjcwMCIgZm9udC12YXJpYW50PSJub3JtYWwiIGZvbnQtc3R5bGU9Im5vcm1hbCIgZm9udC1mYW1pbHk9IkNpc2NvU2Fuc1RULENpc2NvU2Fuc1RUX01TRm9udFNlcnZpY2Usc2Fucy1zZXJpZiIgZmlsbC1vcGFjaXR5PSIxIiBmaWxsPSIjNTY5MzM0Ij5UcnVzdDwvdGV4dD48dGV4dCB0cmFuc2Zvcm09Im1hdHJpeCgxIDAgMCAxIDEwNzYuNzUgMTk3MSkiIHRleHQtZGVjb3JhdGlvbj0ibm9uZSIgd3JpdGluZy1tb2RlPSJsci10YiIgZGlyZWN0aW9uPSJsdHIiIHRleHQtYW5jaG9yPSJzdGFydCIgZm9udC1zaXplPSIzMiIgZm9udC1zdHJldGNoPSJub3JtYWwiIGZvbnQtd2VpZ2h0PSI3MDAiIGZvbnQtdmFyaWFudD0ibm9ybWFsIiBmb250LXN0eWxlPSJub3JtYWwiIGZvbnQtZmFtaWx5PSJDaXNjb1NhbnNUVCxDaXNjb1NhbnNUVF9NU0ZvbnRTZXJ2aWNlLHNhbnMtc2VyaWYiIGZpbGwtb3BhY2l0eT0iMSIgZmlsbD0iIzU2OTMzNCI+QW5jaG9yczwvdGV4dD48dGV4dCB0cmFuc2Zvcm09Im1hdHJpeCgxIDAgMCAxIDIwNTUuMjQgNTE2KSIgdGV4dC1kZWNvcmF0aW9uPSJub25lIiB3cml0aW5nLW1vZGU9ImxyLXRiIiBkaXJlY3Rpb249Imx0ciIgdGV4dC1hbmNob3I9InN0YXJ0IiBmb250LXNpemU9IjMyIiBmb250LXN0cmV0Y2g9Im5vcm1hbCIgZm9udC13ZWlnaHQ9IjMwMCIgZm9udC12YXJpYW50PSJub3JtYWwiIGZvbnQtc3R5bGU9Im5vcm1hbCIgZm9udC1mYW1pbHk9IkNpc2NvU2Fuc1RUIEV4dHJhTGlnaHQsQ2lzY29TYW5zVFQgRXh0cmFMaWdodF9NU0ZvbnRTZXJ2aWNlLHNhbnMtc2VyaWYiIGZpbGwtb3BhY2l0eT0iMSIgZmlsbD0iIzQxNDI0NCI+QWdlbnQgQmFkZ2U8L3RleHQ+PHBhdGggdHJhbnNmb3JtPSJtYXRyaXgoMS44MzY5N2UtMTYgMSAxIC0xLjgzNjk3ZS0xNiA1NjEgMTUwMikiIGZpbGwtb3BhY2l0eT0iMSIgZmlsbC1ydWxlPSJub256ZXJvIiBmaWxsPSIjNTY5MzM0IiBkPSJNMC0xLjE0NTgzIDI0MS44OTEtMS4xNDU4M0MyNDIuNTI0LTEuMTQ1ODMgMjQzLjAzNy0wLjYzMjgyNiAyNDMuMDM3IDBMMjQzLjAzNyAzMzkuNjQ1IDI0MC43NDUgMzM5LjY0NSAyNDAuNzQ1IDAgMjQxLjg5MSAxLjE0NTgzIDAgMS4xNDU4M1pNMjUxLjA1OCAzMzUuMDYyIDI0MS44OTEgMzYyLjU2MiAyMzIuNzI0IDMzNS4wNjJaIi8+PHJlY3QgZmlsbD0ibm9uZSIgc3Ryb2tlLW9wYWNpdHk9IjEiIHN0cm9rZS1kYXNoYXJyYXk9IjkuMTY2NjcgNi44NzUiIHN0cm9rZS1taXRlcmxpbWl0PSIxMCIgc3Ryb2tlLWxpbmVqb2luPSJyb3VuZCIgc3Ryb2tlLWxpbmVjYXA9ImJ1dHQiIHN0cm9rZS13aWR0aD0iMi4yOTE2NyIgc3Ryb2tlPSIjNDE0MjQ0IiBoZWlnaHQ9IjE0NCIgd2lkdGg9IjE4NSIgeT0iMTM1OCIgeD0iNDY4Ii8+PHRleHQgdHJhbnNmb3JtPSJtYXRyaXgoMSAwIDAgMSA1MTcuNTUxIDE0MDIpIiB0ZXh0LWRlY29yYXRpb249Im5vbmUiIHdyaXRpbmctbW9kZT0ibHItdGIiIGRpcmVjdGlvbj0ibHRyIiB0ZXh0LWFuY2hvcj0ic3RhcnQiIGZvbnQtc2l6ZT0iMzIiIGZvbnQtc3RyZXRjaD0ibm9ybWFsIiBmb250LXdlaWdodD0iNzAwIiBmb250LXZhcmlhbnQ9Im5vcm1hbCIgZm9udC1zdHlsZT0ibm9ybWFsIiBmb250LWZhbWlseT0iQ2lzY29TYW5zVFQsQ2lzY29TYW5zVFRfTVNGb250U2VydmljZSxzYW5zLXNlcmlmIiBmaWxsLW9wYWNpdHk9IjEiIGZpbGw9IiM0MTQyNDQiPklEIGZvciA8L3RleHQ+PHRleHQgdHJhbnNmb3JtPSJtYXRyaXgoMSAwIDAgMSA1MTMuODE1IDE0NDEpIiB0ZXh0LWRlY29yYXRpb249Im5vbmUiIHdyaXRpbmctbW9kZT0ibHItdGIiIGRpcmVjdGlvbj0ibHRyIiB0ZXh0LWFuY2hvcj0ic3RhcnQiIGZvbnQtc2l6ZT0iMzIiIGZvbnQtc3RyZXRjaD0ibm9ybWFsIiBmb250LXdlaWdodD0iNzAwIiBmb250LXZhcmlhbnQ9Im5vcm1hbCIgZm9udC1zdHlsZT0ibm9ybWFsIiBmb250LWZhbWlseT0iQ2lzY29TYW5zVFQsQ2lzY29TYW5zVFRfTVNGb250U2VydmljZSxzYW5zLXNlcmlmIiBmaWxsLW9wYWNpdHk9IjEiIGZpbGw9IiM0MTQyNDQiPkFnZW50IDwvdGV4dD48dGV4dCB0cmFuc2Zvcm09Im1hdHJpeCgxIDAgMCAxIDUwMi4wODIgMTQ3OSkiIHRleHQtZGVjb3JhdGlvbj0ibm9uZSIgd3JpdGluZy1tb2RlPSJsci10YiIgZGlyZWN0aW9uPSJsdHIiIHRleHQtYW5jaG9yPSJzdGFydCIgZm9udC1zaXplPSIzMiIgZm9udC1zdHJldGNoPSJub3JtYWwiIGZvbnQtd2VpZ2h0PSI3MDAiIGZvbnQtdmFyaWFudD0ibm9ybWFsIiBmb250LXN0eWxlPSJub3JtYWwiIGZvbnQtZmFtaWx5PSJDaXNjb1NhbnNUVCxDaXNjb1NhbnNUVF9NU0ZvbnRTZXJ2aWNlLHNhbnMtc2VyaWYiIGZpbGwtb3BhY2l0eT0iMSIgZmlsbD0iIzQxNDI0NCI+c3ViamVjdDwvdGV4dD48cGF0aCBmaWxsLW9wYWNpdHk9IjEiIGZpbGwtcnVsZT0ibm9uemVybyIgZmlsbD0iIzQxNDI0NCIgZD0iTTU1OC4xNDYgMTAwMCA1NTguMTQ2IDEzMzUuMDkgNTU1Ljg1NCAxMzM1LjA5IDU1NS44NTQgMTAwMFpNNTY2LjE2NyAxMzMwLjUxIDU1NyAxMzU4LjAxIDU0Ny44MzQgMTMzMC41MVoiLz48dGV4dCB0cmFuc2Zvcm09Im1hdHJpeCgxIDAgMCAxIDQyNi43NDQgMTE4NSkiIHRleHQtZGVjb3JhdGlvbj0ibm9uZSIgd3JpdGluZy1tb2RlPSJsci10YiIgZGlyZWN0aW9uPSJsdHIiIHRleHQtYW5jaG9yPSJzdGFydCIgZm9udC1zaXplPSIzMiIgZm9udC1zdHJldGNoPSJub3JtYWwiIGZvbnQtd2VpZ2h0PSIzMDAiIGZvbnQtdmFyaWFudD0ibm9ybWFsIiBmb250LXN0eWxlPSJub3JtYWwiIGZvbnQtZmFtaWx5PSJDaXNjb1NhbnNUVCBFeHRyYUxpZ2h0LENpc2NvU2Fuc1RUIEV4dHJhTGlnaHRfTVNGb250U2VydmljZSxzYW5zLXNlcmlmIiBmaWxsLW9wYWNpdHk9IjEiIGZpbGw9IiM0MTQyNDQiPmNyZWF0ZXM8L3RleHQ+PHRleHQgdHJhbnNmb3JtPSJtYXRyaXgoMSAwIDAgMSA0MTYgMTYzNCkiIHRleHQtZGVjb3JhdGlvbj0ibm9uZSIgd3JpdGluZy1tb2RlPSJsci10YiIgZGlyZWN0aW9uPSJsdHIiIHRleHQtYW5jaG9yPSJzdGFydCIgZm9udC1zaXplPSIzMiIgZm9udC1zdHJldGNoPSJub3JtYWwiIGZvbnQtd2VpZ2h0PSIzMDAiIGZvbnQtdmFyaWFudD0ibm9ybWFsIiBmb250LXN0eWxlPSJub3JtYWwiIGZvbnQtZmFtaWx5PSJDaXNjb1NhbnNUVCBFeHRyYUxpZ2h0LENpc2NvU2Fuc1RUIEV4dHJhTGlnaHRfTVNGb250U2VydmljZSxzYW5zLXNlcmlmIiBmaWxsLW9wYWNpdHk9IjEiIGZpbGw9IiM1NjkzMzQiPmlzIHN0b3JlZDwvdGV4dD48cGF0aCB0cmFuc2Zvcm09Im1hdHJpeCgxIC0xLjIyNDY1ZS0xNiAtMS4yMjQ2NWUtMTYgLTEgNDY4IDE0MjkuODYpIiBmaWxsLXJ1bGU9ImV2ZW5vZGQiIGZpbGw9Im5vbmUiIHN0cm9rZS1vcGFjaXR5PSIxIiBzdHJva2UtZGFzaGFycmF5PSI5LjE2NjY3IDYuODc1IiBzdHJva2UtbWl0ZXJsaW1pdD0iMTAiIHN0cm9rZS1saW5lam9pbj0icm91bmQiIHN0cm9rZS1saW5lY2FwPSJidXR0IiBzdHJva2Utd2lkdGg9IjIuMjkxNjciIHN0cm9rZT0iIzU2OTMzNCIgZD0iTTAgMC0yMTIuMTQgMC0yMTIuMTQgMTA0OS41MyA2MTUuMDI0IDEwNDkuNTMgNjE1LjAyNCA4NjYuODYiLz48dGV4dCB0cmFuc2Zvcm09Im1hdHJpeCgxIDAgMCAxIDUzNy40NTMgMzUwKSIgdGV4dC1kZWNvcmF0aW9uPSJub25lIiB3cml0aW5nLW1vZGU9ImxyLXRiIiBkaXJlY3Rpb249Imx0ciIgdGV4dC1hbmNob3I9InN0YXJ0IiBmb250LXNpemU9IjMyIiBmb250LXN0cmV0Y2g9Im5vcm1hbCIgZm9udC13ZWlnaHQ9IjMwMCIgZm9udC12YXJpYW50PSJub3JtYWwiIGZvbnQtc3R5bGU9Im5vcm1hbCIgZm9udC1mYW1pbHk9IkNpc2NvU2Fuc1RUIEV4dHJhTGlnaHQsQ2lzY29TYW5zVFQgRXh0cmFMaWdodF9NU0ZvbnRTZXJ2aWNlLHNhbnMtc2VyaWYiIGZpbGwtb3BhY2l0eT0iMSIgZmlsbD0iIzU2OTMzNCI+aXMgYXNzb2NpYXRlZCB0byA8L3RleHQ+PHBhdGggdHJhbnNmb3JtPSJtYXRyaXgoMSAwIDAgLTEgNjUzIDE0MzAuNDgpIiBmaWxsLW9wYWNpdHk9IjEiIGZpbGwtcnVsZT0ibm9uemVybyIgZmlsbD0iIzU2OTMzNCIgZD0iTTAtMS4xNDU4MyA4NjIuOTEzLTEuMTQ1ODNDODYzLjU0Ni0xLjE0NTgzIDg2NC4wNTktMC42MzI4MjYgODY0LjA1OSAwTDg2NC4wNTkgNjY2LjU2MiA4NjEuNzY3IDY2Ni41NjIgODYxLjc2NyAwIDg2Mi45MTMgMS4xNDU4MyAwIDEuMTQ1ODNaTTg3Mi4wNzkgNjYxLjk3OSA4NjIuOTEzIDY4OS40NzkgODUzLjc0NiA2NjEuOTc5WiIvPjx0ZXh0IHRyYW5zZm9ybT0ibWF0cml4KDEgMCAwIDEgMTQxOS45NCA4OTUpIiB0ZXh0LWRlY29yYXRpb249Im5vbmUiIHdyaXRpbmctbW9kZT0ibHItdGIiIGRpcmVjdGlvbj0ibHRyIiB0ZXh0LWFuY2hvcj0ic3RhcnQiIGZvbnQtc2l6ZT0iMzIiIGZvbnQtc3RyZXRjaD0ibm9ybWFsIiBmb250LXdlaWdodD0iMzAwIiBmb250LXZhcmlhbnQ9Im5vcm1hbCIgZm9udC1zdHlsZT0ibm9ybWFsIiBmb250LWZhbWlseT0iQ2lzY29TYW5zVFQgRXh0cmFMaWdodCxDaXNjb1NhbnNUVCBFeHRyYUxpZ2h0X01TRm9udFNlcnZpY2Usc2Fucy1zZXJpZiIgZmlsbC1vcGFjaXR5PSIxIiBmaWxsPSIjNTY5MzM0Ij51c2VzPC90ZXh0PjxwYXRoIHRyYW5zZm9ybT0ibWF0cml4KDEgMCAwIC0xIDE0MTEgMTYxMC4yNikiIGZpbGwtcnVsZT0iZXZlbm9kZCIgZmlsbD0ibm9uZSIgc3Ryb2tlLW9wYWNpdHk9IjEiIHN0cm9rZS1kYXNoYXJyYXk9IjkuMTY2NjcgNi44NzUiIHN0cm9rZS1taXRlcmxpbWl0PSIxMCIgc3Ryb2tlLWxpbmVqb2luPSJyb3VuZCIgc3Ryb2tlLWxpbmVjYXA9ImJ1dHQiIHN0cm9rZS13aWR0aD0iMi4yOTE2NyIgc3Ryb2tlPSIjNTY5MzM0IiBkPSJNMCAwIDAuMDAwMzYwODkyIDI2MC4yNjIiLz48cGF0aCBmaWxsLXJ1bGU9ImV2ZW5vZGQiIGZpbGw9Im5vbmUiIHN0cm9rZS1vcGFjaXR5PSIxIiBzdHJva2UtbWl0ZXJsaW1pdD0iMTAiIHN0cm9rZS1saW5lam9pbj0icm91bmQiIHN0cm9rZS1saW5lY2FwPSJidXR0IiBzdHJva2Utd2lkdGg9IjMuNDM3NSIgc3Ryb2tlPSIjNTY5MzM0IiBkPSJNMTk5MS41IDE3MzcuNjdDMTk5MS41IDE3MzAuNCAxOTk3LjM5IDE3MjQuNSAyMDA0LjY3IDE3MjQuNUwyMDU3LjMzIDE3MjQuNUMyMDY0LjYgMTcyNC41IDIwNzAuNSAxNzMwLjQgMjA3MC41IDE3MzcuNjdMMjA3MC41IDE3OTYuMzNDMjA3MC41IDE4MDMuNiAyMDY0LjYgMTgwOS41IDIwNTcuMzMgMTgwOS41TDIwMDQuNjcgMTgwOS41QzE5OTcuMzkgMTgwOS41IDE5OTEuNSAxODAzLjYgMTk5MS41IDE3OTYuMzNaIi8+PHBhdGggZmlsbC1ydWxlPSJldmVub2RkIiBmaWxsPSJub25lIiBzdHJva2Utb3BhY2l0eT0iMSIgc3Ryb2tlLW1pdGVybGltaXQ9IjEwIiBzdHJva2UtbGluZWpvaW49InJvdW5kIiBzdHJva2UtbGluZWNhcD0iYnV0dCIgc3Ryb2tlLXdpZHRoPSI2Ljg3NSIgc3Ryb2tlPSIjNTY5MzM0IiBkPSJNMjAwNy41IDE3NDMuNSAyMDUzLjA0IDE3NDMuNSIvPjxwYXRoIGZpbGwtcnVsZT0iZXZlbm9kZCIgZmlsbD0ibm9uZSIgc3Ryb2tlLW9wYWNpdHk9IjEiIHN0cm9rZS1taXRlcmxpbWl0PSIxMCIgc3Ryb2tlLWxpbmVqb2luPSJyb3VuZCIgc3Ryb2tlLWxpbmVjYXA9ImJ1dHQiIHN0cm9rZS13aWR0aD0iNi44NzUiIHN0cm9rZT0iIzU2OTMzNCIgZD0iTTIwMDcuNSAxNzY0LjUgMjA1My4wNCAxNzY0LjUiLz48cGF0aCBmaWxsLXJ1bGU9ImV2ZW5vZGQiIGZpbGw9Im5vbmUiIHN0cm9rZS1vcGFjaXR5PSIxIiBzdHJva2UtbWl0ZXJsaW1pdD0iMTAiIHN0cm9rZS1saW5lam9pbj0icm91bmQiIHN0cm9rZS1saW5lY2FwPSJidXR0IiBzdHJva2Utd2lkdGg9IjYuODc1IiBzdHJva2U9IiM1NjkzMzQiIGQ9Ik0yMDA3LjUgMTc4My41IDIwNTMuMDQgMTc4My41Ii8+PC9nPjwvZz48L3N2Zz4=;" vertex="1" parent="1">
          <mxGeometry x="170" y="470" width="1200" height="849" as="geometry" />
        </mxCell>
      </root>
    </mxGraphModel>
  </diagram>
</mxfile>
